<svg width="412" height="150" viewBox="0 0 412 150" fill="none" xmlns="http://www.w3.org/2000/svg">
<rect width="412" height="150" fill="#FFDBC8"/>
<path d="M59.648 68.5023C58.9867 68.4597 58.3253 68.2143 57.664 67.7663C57.0027 67.3397 56.3947 66.9343 55.84 66.5503C55.4773 66.1877 55.2 65.8037 55.008 65.3983C54.816 64.9717 54.656 64.417 54.528 63.7343C54.4427 63.329 54.4427 62.7957 54.528 62.1343C54.6133 61.473 54.752 60.8117 54.944 60.1503C55.136 59.4677 55.3173 58.9343 55.488 58.5503C55.744 57.953 56.064 57.313 56.448 56.6303C56.8533 55.9263 57.248 55.265 57.632 54.6463C58.0373 54.0063 58.3573 53.4943 58.592 53.1103C58.7413 52.961 58.8053 52.8863 58.784 52.8863C58.784 52.865 58.784 52.8543 58.784 52.8543C58.784 52.7477 58.8907 52.481 59.104 52.0543C59.3387 51.6063 59.5413 51.2117 59.712 50.8703C60.032 50.529 60.2133 50.2517 60.256 50.0383C60.2987 49.825 60.2667 49.6543 60.16 49.5263C60.1173 49.441 60.2027 49.2597 60.416 48.9823C60.6507 48.705 60.9707 48.3957 61.376 48.0543C61.7813 47.6917 62.2293 47.3717 62.72 47.0943C63.232 46.689 63.7227 46.4757 64.192 46.4543C64.6827 46.4117 64.9707 46.5077 65.056 46.7423C65.056 46.8063 65.1733 46.8277 65.408 46.8063C65.664 46.7637 65.952 46.7103 66.272 46.6463C66.6133 46.561 66.912 46.497 67.168 46.4543C67.2747 46.3263 67.52 46.2303 67.904 46.1663C68.3093 46.081 68.7787 46.0063 69.312 45.9423C69.5893 45.9637 69.8987 45.9743 70.24 45.9743C70.5813 45.953 70.88 45.9317 71.136 45.9103C71.4133 45.889 71.552 45.8783 71.552 45.8783C71.7013 45.8357 71.9147 45.9317 72.192 46.1663C72.4907 46.3797 72.7253 46.6783 72.896 47.0623C73.0453 47.4463 72.9173 47.777 72.512 48.0543C72.1067 48.3317 71.4667 48.5237 70.592 48.6303C69.952 48.7157 69.4507 48.7903 69.088 48.8543C68.7467 48.897 68.3733 48.961 67.968 49.0463C67.584 49.1103 67.0187 49.2277 66.272 49.3983C65.7387 49.505 65.2907 49.5903 64.928 49.6543C64.5653 49.7183 64.2453 49.8463 63.968 50.0383C63.712 50.2303 63.424 50.5717 63.104 51.0623C62.9547 51.169 62.7627 51.4463 62.528 51.8943C62.2933 52.3423 62.0587 52.7903 61.824 53.2383C61.2267 54.0703 60.7787 54.689 60.48 55.0943C60.2027 55.4783 60.1067 55.7237 60.192 55.8303C60.192 55.8303 60.3413 55.8623 60.64 55.9263C60.9387 55.9903 61.1307 56.0223 61.216 56.0223C61.4293 55.9157 61.6853 55.841 61.984 55.7983C62.304 55.7557 62.56 55.713 62.752 55.6703C64.0747 55.329 65.0453 55.0837 65.664 54.9343C66.304 54.7637 66.752 54.6463 67.008 54.5823C67.2853 54.5183 67.5307 54.4757 67.744 54.4543C68.0427 54.2197 68.3413 54.241 68.64 54.5183C68.96 54.7743 69.184 55.0837 69.312 55.4463C69.4613 55.873 69.4613 56.2037 69.312 56.4383C69.1627 56.673 68.832 56.865 68.32 57.0143C67.8293 57.1637 67.1253 57.345 66.208 57.5583C65.2907 57.7503 64.1387 58.0383 62.752 58.4223C61.5787 58.7637 60.6293 58.9663 59.904 59.0303C59.1787 59.0943 58.8373 58.913 58.88 58.4863C58.7307 58.401 58.56 58.4863 58.368 58.7423C58.1973 58.977 58.0373 59.3077 57.888 59.7343C57.7387 60.161 57.6 60.6197 57.472 61.1103C57.3653 61.601 57.3013 62.0597 57.28 62.4863C57.2587 62.913 57.2907 63.2437 57.376 63.4783C57.5467 63.969 57.8133 64.3957 58.176 64.7583C58.56 65.0997 59.1147 65.377 59.84 65.5903C60.2667 65.6117 60.6827 65.6437 61.088 65.6863C61.4933 65.729 61.952 65.6437 62.464 65.4303C63.7227 65.217 64.5973 64.993 65.088 64.7583C65.5787 64.5237 65.8773 64.3637 65.984 64.2783C66.1547 64.193 66.2613 64.1077 66.304 64.0223C66.368 63.937 66.4533 63.8943 66.56 63.8943C66.496 64.001 66.5173 64.001 66.624 63.8943C66.7307 63.7877 66.9013 63.6383 67.136 63.4463C67.584 63.0623 68.032 62.8277 68.48 62.7423C68.928 62.657 69.3013 62.657 69.6 62.7423C69.8987 62.8063 70.0587 62.8917 70.08 62.9983C70.208 63.2117 70.144 63.553 69.888 64.0223C69.632 64.4703 69.2373 64.9503 68.704 65.4623C68.192 65.9743 67.584 66.433 66.88 66.8383C65.7493 67.4357 64.5227 67.8517 63.2 68.0863C61.8773 68.3423 60.6933 68.481 59.648 68.5023ZM74.1398 67.4463C73.4144 67.1477 72.8811 66.8383 72.5397 66.5183C72.2197 66.177 72.0917 65.8783 72.1557 65.6223C72.1984 65.4943 72.2731 65.377 72.3797 65.2703C72.4864 65.1637 72.7211 65.121 73.0837 65.1423C73.4677 65.1423 74.0544 65.2383 74.8438 65.4303C75.0784 65.4303 75.3131 65.4197 75.5477 65.3983C75.7824 65.377 75.9957 65.345 76.1877 65.3023C76.4011 65.2597 76.5718 65.2063 76.6997 65.1423C76.8064 65.0997 76.8384 65.0463 76.7958 64.9823C76.7531 64.897 76.6784 64.8117 76.5718 64.7263C76.4864 64.6197 76.3904 64.5557 76.2838 64.5343C76.1771 64.4917 76.0811 64.4703 75.9957 64.4703C75.9531 64.3637 75.8571 64.257 75.7077 64.1503C75.5797 64.0437 75.4197 63.9263 75.2277 63.7983C74.7584 63.4143 74.3317 63.073 73.9477 62.7743C73.5637 62.4757 73.4144 62.2517 73.4997 62.1023C73.4997 62.017 73.4997 61.9743 73.4997 61.9743C73.4997 61.953 73.4997 61.9423 73.4997 61.9423C73.3504 61.9423 73.2117 61.7397 73.0837 61.3343C72.9557 60.9077 72.8917 60.5237 72.8917 60.1823C72.8917 59.7557 72.9771 59.329 73.1477 58.9023C73.3397 58.4757 73.5744 58.0703 73.8517 57.6863C74.1504 57.3023 74.4491 56.961 74.7477 56.6623C75.1531 56.2783 75.5798 55.905 76.0278 55.5423C76.4971 55.1583 76.9984 54.817 77.5317 54.5183C78.0864 54.2197 78.6944 53.985 79.3558 53.8143C79.6544 53.7503 79.9958 53.7183 80.3798 53.7183C80.7638 53.7183 81.0411 53.7717 81.2118 53.8783C81.3824 53.7717 81.5958 53.8037 81.8518 53.9743C82.1078 54.1237 82.3638 54.337 82.6198 54.6143C82.8757 54.8917 83.0677 55.169 83.1958 55.4463C83.1958 55.7023 83.1851 56.0223 83.1638 56.4063C83.1638 56.769 83.1424 57.089 83.0998 57.3663C83.0571 57.6437 82.9611 57.7823 82.8118 57.7823C82.8118 57.7823 82.7798 57.793 82.7158 57.8143C82.6731 57.8143 82.6518 57.8677 82.6518 57.9743C82.6518 58.1877 82.4918 58.433 82.1718 58.7103C81.7664 58.9877 81.3824 59.2117 81.0198 59.3823C80.6571 59.553 80.3797 59.5637 80.1877 59.4143C80.0598 59.329 79.9424 59.2437 79.8358 59.1583C79.7291 59.073 79.6331 58.9663 79.5478 58.8383C79.5478 58.8383 79.5158 58.7957 79.4517 58.7103C79.4091 58.6037 79.3877 58.5077 79.3877 58.4223C79.3877 58.337 79.4197 58.2623 79.4838 58.1983C79.5478 58.113 79.5798 58.0703 79.5798 58.0703C79.8784 57.793 80.1024 57.537 80.2517 57.3023C80.4224 57.0677 80.5398 56.865 80.6038 56.6943C80.6678 56.5023 80.6997 56.353 80.6997 56.2463C80.6997 56.1183 80.6678 56.0437 80.6038 56.0223C80.5611 55.9797 80.4544 55.9583 80.2838 55.9583C80.1771 55.9583 79.9424 56.0437 79.5798 56.2143C79.2384 56.385 78.8757 56.5983 78.4917 56.8543C78.1078 57.089 77.8091 57.3023 77.5957 57.4943C77.5104 57.6437 77.4464 57.7397 77.4038 57.7823C77.3824 57.825 77.3291 57.8463 77.2437 57.8463C77.2437 57.761 77.1904 57.7717 77.0837 57.8783C76.9771 57.985 76.8491 58.1343 76.6997 58.3263C76.5504 58.5183 76.4011 58.721 76.2517 58.9343C76.1024 59.1477 75.9851 59.3183 75.8997 59.4463C75.8784 59.6383 75.8251 59.8197 75.7397 59.9903C75.6757 60.1397 75.6544 60.2997 75.6757 60.4703C75.6971 60.6837 75.8037 60.8863 75.9957 61.0783C76.1878 61.2703 76.4651 61.5157 76.8278 61.8143C77.5744 62.369 78.1291 62.8063 78.4917 63.1263C78.8757 63.4463 79.1424 63.7023 79.2917 63.8943C79.4411 64.0863 79.5371 64.2783 79.5798 64.4703C79.9424 65.1317 79.9851 65.7077 79.7078 66.1983C79.4304 66.6677 79.0037 67.0303 78.4277 67.2863C78.2144 67.393 77.8411 67.489 77.3077 67.5743C76.7744 67.681 76.2091 67.7237 75.6118 67.7023C75.0357 67.7023 74.5451 67.617 74.1398 67.4463ZM83.4932 73.1743C83.1946 73.2597 82.8852 73.185 82.5652 72.9503C82.2666 72.7157 82.0319 72.3957 81.8612 71.9903C81.7119 71.585 81.7119 71.169 81.8612 70.7423C81.9039 70.6143 81.9679 70.401 82.0532 70.1023C82.1386 69.825 82.1919 69.5797 82.2132 69.3663C82.2346 69.217 82.2986 68.961 82.4052 68.5983C82.5119 68.257 82.6292 67.9157 82.7572 67.5743C82.9066 67.233 83.0239 66.9877 83.1092 66.8383C83.2372 66.625 83.3226 66.3797 83.3652 66.1023C83.4292 65.825 83.4612 65.6117 83.4612 65.4623C83.5039 65.313 83.5572 65.1423 83.6212 64.9503C83.7066 64.7583 83.7919 64.609 83.8772 64.5023C83.9199 64.3317 83.9839 64.1503 84.0692 63.9583C84.1546 63.745 84.2506 63.5637 84.3572 63.4143C84.3999 63.265 84.4319 63.0837 84.4532 62.8703C84.4959 62.657 84.5599 62.5397 84.6452 62.5183C84.6666 62.433 84.6772 62.3477 84.6772 62.2623C84.6986 62.177 84.7412 62.0597 84.8052 61.9103C84.8479 61.6757 84.9439 61.3343 85.0932 60.8863C85.2426 60.4383 85.4239 59.9477 85.6372 59.4143C85.8719 58.7957 86.0319 58.2623 86.1172 57.8143C86.2026 57.345 86.0852 57.0463 85.7652 56.9183C85.5946 56.833 85.4879 56.641 85.4452 56.3423C85.4026 56.0223 85.4239 55.7023 85.5092 55.3823C85.5946 55.0623 85.7226 54.8703 85.8932 54.8063C86.0852 54.721 86.3199 54.6677 86.5972 54.6463C86.8746 54.625 87.1199 54.625 87.3332 54.6463C87.5679 54.6463 87.6746 54.6677 87.6532 54.7103C87.6532 54.817 87.7066 54.881 87.8132 54.9023C87.8559 54.8383 87.9412 54.9343 88.0692 55.1903C88.2186 55.425 88.3572 55.6917 88.4852 55.9903C88.6132 56.289 88.6772 56.4917 88.6772 56.5983C88.6346 56.6837 88.6132 56.737 88.6132 56.7583C88.6132 56.7583 88.6559 56.7583 88.7413 56.7583C88.7413 56.7583 88.8586 56.705 89.0932 56.5983C89.3279 56.4703 89.5732 56.3317 89.8292 56.1823C90.1066 56.0117 90.2879 55.8837 90.3733 55.7983C90.3733 55.7983 90.4266 55.777 90.5332 55.7343C90.6612 55.6703 90.7679 55.5957 90.8532 55.5103C91.2799 55.3397 91.7386 55.3077 92.2292 55.4143C92.7412 55.521 93.1466 55.713 93.4452 55.9903C93.8719 56.5237 94.1919 57.185 94.4052 57.9743C94.6399 58.7637 94.6079 59.5317 94.3092 60.2783C94.2666 60.385 94.1706 60.5663 94.0212 60.8223C93.8933 61.057 93.7653 61.281 93.6372 61.4943C93.5092 61.6863 93.4452 61.7823 93.4452 61.7823C92.9546 62.5503 92.4106 63.1903 91.8132 63.7023C91.2372 64.2143 90.6079 64.6623 89.9253 65.0463C89.7119 65.1957 89.4132 65.3343 89.0292 65.4623C88.6666 65.5903 88.3252 65.6863 88.0052 65.7503C87.7066 65.8143 87.5252 65.825 87.4612 65.7823C87.2266 65.6117 87.0132 65.249 86.8212 64.6943C86.7146 64.9717 86.6079 65.249 86.5012 65.5263C86.4159 65.7823 86.3626 65.953 86.3412 66.0383C86.3199 66.1877 86.2986 66.3157 86.2772 66.4223C86.2559 66.5077 86.2026 66.5823 86.1172 66.6463C86.1172 66.6463 86.1066 66.689 86.0852 66.7743C86.0639 66.8597 85.9892 66.9877 85.8612 67.1583C85.6479 67.777 85.4772 68.257 85.3492 68.5983C85.2212 68.961 85.1146 69.249 85.0292 69.4623C84.9652 69.697 84.9012 69.9423 84.8372 70.1983C84.7946 70.7743 84.6559 71.3823 84.4212 72.0223C84.2079 72.6623 83.8986 73.0463 83.4932 73.1743ZM88.2612 62.7743C88.3466 62.7317 88.4959 62.657 88.7092 62.5503C88.9439 62.4437 89.1999 62.3157 89.4773 62.1663C89.7546 61.9957 90.0106 61.8357 90.2452 61.6863C90.5012 61.5157 90.6826 61.3663 90.7892 61.2383C90.9599 61.0463 91.0559 60.897 91.0772 60.7903C91.0986 60.6623 91.1519 60.4597 91.2372 60.1823C91.3012 60.0117 91.3759 59.8197 91.4612 59.6063C91.5466 59.393 91.6212 59.1903 91.6852 58.9983C91.7706 58.8277 91.8026 58.657 91.7812 58.4863C91.7812 58.2943 91.7172 58.1343 91.5892 58.0063C91.5039 57.985 91.3012 58.017 90.9812 58.1023C90.6826 58.1877 90.3306 58.3583 89.9253 58.6143C89.5412 58.8703 89.1572 59.2437 88.7732 59.7343C88.3252 60.3103 88.0266 60.833 87.8772 61.3023C87.7279 61.7503 87.6959 62.113 87.7812 62.3903C87.8666 62.6463 88.0266 62.7743 88.2612 62.7743ZM96.985 66.7743C96.8357 66.7743 96.633 66.6677 96.377 66.4543C96.1423 66.241 96.0037 66.049 95.961 65.8783C95.897 65.7077 95.897 65.4623 95.961 65.1423C96.0463 64.801 96.1637 64.4063 96.313 63.9583C96.4837 63.2543 96.601 62.7423 96.665 62.4223C96.729 62.1023 96.793 61.825 96.857 61.5903C96.921 61.3557 97.0063 61.0143 97.113 60.5663C97.241 60.289 97.337 60.0223 97.401 59.7663C97.4863 59.489 97.5717 59.2117 97.657 58.9343C97.7637 58.657 97.881 58.3797 98.009 58.1023C98.1583 57.5477 98.3397 57.025 98.553 56.5343C98.7877 56.0223 99.0117 55.5957 99.225 55.2543C99.2677 55.1903 99.3637 55.073 99.513 54.9023C99.6623 54.7317 99.7797 54.6463 99.865 54.6463C100.036 54.4757 100.27 54.4223 100.569 54.4863C100.868 54.529 101.124 54.6357 101.337 54.8063C101.593 55.0837 101.732 55.4143 101.753 55.7983C101.796 56.161 101.646 56.673 101.305 57.3343C101.049 57.9957 100.804 58.5183 100.569 58.9023C100.356 59.265 100.142 59.6917 99.929 60.1823C100.164 59.841 100.452 59.489 100.793 59.1263C101.134 58.7637 101.401 58.4757 101.593 58.2623C101.87 57.9637 102.126 57.729 102.361 57.5583C102.617 57.3663 102.958 57.1317 103.385 56.8543C103.748 56.5983 104.11 56.3637 104.473 56.1503C104.857 55.937 105.316 55.873 105.849 55.9583C106.062 55.937 106.286 56.0437 106.521 56.2783C106.777 56.513 106.969 56.8223 107.097 57.2063C107.246 57.569 107.246 57.9637 107.097 58.3903C106.606 58.2837 106.169 58.305 105.785 58.4543C105.401 58.5823 105.07 58.7423 104.793 58.9343C104.537 59.1263 104.334 59.2757 104.185 59.3823C103.972 59.5103 103.726 59.681 103.449 59.8943C103.172 60.0863 102.873 60.3103 102.553 60.5663C102.233 60.801 101.892 61.0677 101.529 61.3663C101.017 61.793 100.633 62.1663 100.377 62.4863C100.121 62.8063 99.9183 63.1477 99.769 63.5103C99.641 63.8303 99.481 64.2143 99.289 64.6623C99.097 65.1103 98.9157 65.5157 98.745 65.8783C98.5743 66.2197 98.4357 66.433 98.329 66.5183C98.2223 66.7317 97.9983 66.849 97.657 66.8703C97.337 66.8917 97.113 66.8597 96.985 66.7743ZM113.882 66.6143C113.242 66.977 112.56 67.1903 111.834 67.2543C111.13 67.297 110.469 67.201 109.85 66.9663C109.232 66.7103 108.73 66.337 108.346 65.8463C108.133 65.569 107.93 65.1317 107.738 64.5343C107.546 63.9157 107.514 63.0837 107.642 62.0383C107.77 61.057 108.069 60.065 108.538 59.0623C109.029 58.0597 109.626 57.1743 110.33 56.4063C111.034 55.6383 111.802 55.1157 112.634 54.8383C112.933 54.7317 113.232 54.657 113.53 54.6143C113.85 54.5503 114.266 54.5397 114.778 54.5823C115.269 54.6463 115.706 54.7743 116.09 54.9663C116.474 55.137 116.752 55.329 116.922 55.5423C117.264 55.8837 117.488 56.2143 117.594 56.5343C117.701 56.8543 117.744 57.1637 117.722 57.4623C117.616 58.145 117.306 58.881 116.794 59.6703C116.304 60.4597 115.61 61.0463 114.714 61.4303C114.352 61.5797 113.925 61.6757 113.434 61.7183C112.944 61.761 112.272 61.697 111.418 61.5263C110.906 61.4197 110.565 61.473 110.394 61.6863C110.245 61.8997 110.181 62.3157 110.202 62.9343C110.245 63.3183 110.33 63.6597 110.458 63.9583C110.608 64.2357 110.874 64.4277 111.258 64.5343C111.749 64.6197 112.101 64.6303 112.314 64.5663C112.528 64.481 112.794 64.3637 113.114 64.2143C113.285 64.1077 113.445 63.9903 113.594 63.8623C113.765 63.7343 113.925 63.6063 114.074 63.4783C114.245 63.3503 114.384 63.2543 114.49 63.1903C114.597 63.105 114.704 63.0517 114.81 63.0303C114.917 63.009 115.024 62.9983 115.13 62.9983C115.365 63.0197 115.589 63.1477 115.802 63.3823C116.016 63.617 116.154 63.841 116.218 64.0543C116.218 64.225 116.112 64.4703 115.898 64.7903C115.685 65.089 115.397 65.409 115.034 65.7503C114.693 66.0703 114.309 66.3583 113.882 66.6143ZM113.466 59.4783C113.616 59.4143 113.829 59.265 114.106 59.0303C114.405 58.7957 114.672 58.5503 114.906 58.2943C115.141 58.017 115.258 57.8037 115.258 57.6543C115.258 57.4197 115.098 57.217 114.778 57.0463C114.48 56.8757 114.085 56.8437 113.594 56.9503C113.424 56.993 113.221 57.1103 112.986 57.3023C112.752 57.4943 112.517 57.7183 112.282 57.9743C112.048 58.209 111.845 58.4437 111.674 58.6783C111.504 58.8917 111.386 59.0623 111.322 59.1903C111.408 59.297 111.578 59.3823 111.834 59.4463C112.09 59.5103 112.368 59.5423 112.666 59.5423C112.986 59.5423 113.253 59.521 113.466 59.4783ZM120.24 67.4463C119.514 67.1477 118.981 66.8383 118.64 66.5183C118.32 66.177 118.192 65.8783 118.256 65.6223C118.298 65.4943 118.373 65.377 118.48 65.2703C118.586 65.1637 118.821 65.121 119.184 65.1423C119.568 65.1423 120.154 65.2383 120.944 65.4303C121.178 65.4303 121.413 65.4197 121.648 65.3983C121.882 65.377 122.096 65.345 122.288 65.3023C122.501 65.2597 122.672 65.2063 122.8 65.1423C122.906 65.0997 122.938 65.0463 122.896 64.9823C122.853 64.897 122.778 64.8117 122.672 64.7263C122.586 64.6197 122.49 64.5557 122.384 64.5343C122.277 64.4917 122.181 64.4703 122.096 64.4703C122.053 64.3637 121.957 64.257 121.808 64.1503C121.68 64.0437 121.52 63.9263 121.328 63.7983C120.858 63.4143 120.432 63.073 120.048 62.7743C119.664 62.4757 119.514 62.2517 119.6 62.1023C119.6 62.017 119.6 61.9743 119.6 61.9743C119.6 61.953 119.6 61.9423 119.6 61.9423C119.45 61.9423 119.312 61.7397 119.184 61.3343C119.056 60.9077 118.992 60.5237 118.992 60.1823C118.992 59.7557 119.077 59.329 119.248 58.9023C119.44 58.4757 119.674 58.0703 119.952 57.6863C120.25 57.3023 120.549 56.961 120.848 56.6623C121.253 56.2783 121.68 55.905 122.128 55.5423C122.597 55.1583 123.098 54.817 123.632 54.5183C124.186 54.2197 124.794 53.985 125.456 53.8143C125.754 53.7503 126.096 53.7183 126.48 53.7183C126.864 53.7183 127.141 53.7717 127.312 53.8783C127.482 53.7717 127.696 53.8037 127.952 53.9743C128.208 54.1237 128.464 54.337 128.72 54.6143C128.976 54.8917 129.168 55.169 129.296 55.4463C129.296 55.7023 129.285 56.0223 129.264 56.4063C129.264 56.769 129.242 57.089 129.2 57.3663C129.157 57.6437 129.061 57.7823 128.912 57.7823C128.912 57.7823 128.88 57.793 128.816 57.8143C128.773 57.8143 128.752 57.8677 128.752 57.9743C128.752 58.1877 128.592 58.433 128.272 58.7103C127.866 58.9877 127.482 59.2117 127.12 59.3823C126.757 59.553 126.48 59.5637 126.288 59.4143C126.16 59.329 126.042 59.2437 125.936 59.1583C125.829 59.073 125.733 58.9663 125.648 58.8383C125.648 58.8383 125.616 58.7957 125.552 58.7103C125.509 58.6037 125.488 58.5077 125.488 58.4223C125.488 58.337 125.52 58.2623 125.584 58.1983C125.648 58.113 125.68 58.0703 125.68 58.0703C125.978 57.793 126.202 57.537 126.352 57.3023C126.522 57.0677 126.64 56.865 126.704 56.6943C126.768 56.5023 126.8 56.353 126.8 56.2463C126.8 56.1183 126.768 56.0437 126.704 56.0223C126.661 55.9797 126.554 55.9583 126.384 55.9583C126.277 55.9583 126.042 56.0437 125.68 56.2143C125.338 56.385 124.976 56.5983 124.592 56.8543C124.208 57.089 123.909 57.3023 123.696 57.4943C123.61 57.6437 123.546 57.7397 123.504 57.7823C123.482 57.825 123.429 57.8463 123.344 57.8463C123.344 57.761 123.29 57.7717 123.184 57.8783C123.077 57.985 122.949 58.1343 122.8 58.3263C122.65 58.5183 122.501 58.721 122.352 58.9343C122.202 59.1477 122.085 59.3183 122 59.4463C121.978 59.6383 121.925 59.8197 121.84 59.9903C121.776 60.1397 121.754 60.2997 121.776 60.4703C121.797 60.6837 121.904 60.8863 122.096 61.0783C122.288 61.2703 122.565 61.5157 122.928 61.8143C123.674 62.369 124.229 62.8063 124.592 63.1263C124.976 63.4463 125.242 63.7023 125.392 63.8943C125.541 64.0863 125.637 64.2783 125.68 64.4703C126.042 65.1317 126.085 65.7077 125.808 66.1983C125.53 66.6677 125.104 67.0303 124.528 67.2863C124.314 67.393 123.941 67.489 123.408 67.5743C122.874 67.681 122.309 67.7237 121.712 67.7023C121.136 67.7023 120.645 67.617 120.24 67.4463ZM132.889 67.4463C132.207 67.4463 131.577 67.297 131.001 66.9983C130.447 66.6783 129.999 66.2943 129.657 65.8463C129.316 65.377 129.145 64.929 129.145 64.5023C129.145 64.3103 129.177 64.1717 129.241 64.0863C129.327 64.001 129.444 63.9583 129.593 63.9583C129.7 63.9797 129.828 64.033 129.977 64.1183C130.127 64.2037 130.276 64.2997 130.425 64.4063C130.767 64.641 131.14 64.7903 131.545 64.8543C131.951 64.9183 132.313 64.897 132.633 64.7903C132.953 64.6623 133.135 64.4703 133.177 64.2143C133.177 64.129 133.135 63.9477 133.049 63.6703C132.964 63.393 132.857 63.1263 132.729 62.8703C132.196 62.081 131.865 61.3343 131.737 60.6303C131.609 59.905 131.524 59.1797 131.481 58.4543C131.481 58.1557 131.62 57.825 131.897 57.4623C132.175 57.0783 132.516 56.705 132.921 56.3423C133.369 55.9583 133.86 55.5957 134.393 55.2543C134.948 54.913 135.492 54.625 136.025 54.3903C136.559 54.1557 137.007 54.017 137.369 53.9743C137.753 53.9743 138.159 53.9957 138.585 54.0383C139.033 54.0597 139.332 54.1343 139.481 54.2623C139.78 54.497 140.057 54.881 140.313 55.4143C140.569 55.9477 140.697 56.3957 140.697 56.7583C140.697 56.929 140.601 57.1423 140.409 57.3983C140.239 57.633 140.079 57.8997 139.929 58.1983C139.844 58.3477 139.769 58.5077 139.705 58.6783C139.641 58.849 139.567 59.0197 139.481 59.1903C139.353 59.489 139.119 59.617 138.777 59.5743C138.457 59.5103 138.159 59.3397 137.881 59.0623C137.604 58.7637 137.465 58.4223 137.465 58.0383C137.465 57.7183 137.561 57.441 137.753 57.2063C137.945 56.9717 138.041 56.8117 138.041 56.7263C138.041 56.6837 138.02 56.6517 137.977 56.6303C137.935 56.609 137.86 56.5983 137.753 56.5983C137.604 56.5983 137.359 56.6623 137.017 56.7903C136.697 56.897 136.356 57.057 135.993 57.2703C135.631 57.4837 135.3 57.7397 135.001 58.0383C134.788 58.273 134.607 58.529 134.457 58.8063C134.329 59.0623 134.265 59.3397 134.265 59.6383C134.265 59.937 134.319 60.289 134.425 60.6943C134.553 61.0783 134.692 61.3983 134.841 61.6543C134.884 61.697 134.948 61.8143 135.033 62.0063C135.14 62.177 135.257 62.3903 135.385 62.6463C136.175 64.2677 136.303 65.473 135.769 66.2623C135.257 67.0517 134.297 67.4463 132.889 67.4463Z" fill="#311300"/>
<path d="M96.0972 91.9838L94.9772 90.5758C94.5505 89.9358 94.2092 89.3384 93.9532 88.7838C93.6972 88.2291 93.5159 87.5464 93.4092 86.7358C93.2599 86.2238 93.1639 85.7438 93.1212 85.2958C93.0785 84.8478 93.0572 84.3358 93.0572 83.7598C93.0785 83.1624 93.0999 82.4264 93.1212 81.5518C93.1425 80.7411 93.2705 80.0798 93.5052 79.5678C93.7399 79.0344 93.8999 78.6824 93.9852 78.5118C94.4332 78.1278 94.7959 78.0531 95.0732 78.2878C95.3719 78.5224 95.5852 78.9171 95.7132 79.4718C95.8625 80.0264 95.9265 80.6131 95.9052 81.2318C95.9692 83.5144 96.1079 85.2424 96.3212 86.4158C96.5559 87.5891 96.8439 88.3144 97.1852 88.5918C97.4412 88.6558 97.6652 88.6344 97.8572 88.5278C98.0492 88.3998 98.2945 88.1651 98.5932 87.8238C98.9132 87.4611 99.3505 86.9918 99.9052 86.4158C100.503 85.7971 101.1 85.1464 101.697 84.4638C102.295 83.7598 102.86 83.0878 103.393 82.4478C103.948 81.8078 104.439 81.2531 104.865 80.7838C105.313 80.3144 105.665 80.0051 105.921 79.8558C106.007 79.7278 106.156 79.6211 106.369 79.5358C106.583 79.4291 106.785 79.3544 106.977 79.3118C107.191 79.2478 107.297 79.2158 107.297 79.2158C107.468 79.2584 107.564 79.3971 107.585 79.6318C107.607 79.8451 107.692 80.0584 107.841 80.2718C107.884 80.3571 107.98 80.4851 108.129 80.6558C108.279 80.8264 108.343 80.9651 108.321 81.0718C108.321 81.1358 108.225 81.2851 108.033 81.5198C107.841 81.7331 107.639 81.9464 107.425 82.1598C107.212 82.3731 107.052 82.5331 106.945 82.6398C106.668 82.8744 106.231 83.2904 105.633 83.8878C105.057 84.4638 104.46 85.0931 103.841 85.7758C103.223 86.4371 102.7 87.0344 102.273 87.5678C101.335 88.6558 100.492 89.5944 99.7452 90.3838C99.0199 91.1731 98.5719 91.6424 98.4012 91.7918C98.3799 91.8344 98.2412 91.8664 97.9852 91.8878C97.7292 91.8878 97.5479 91.9731 97.4412 92.1438L96.0972 91.9838ZM94.3052 102.704C94.2199 102.682 94.0385 102.586 93.7612 102.416C93.5052 102.245 93.2705 102.085 93.0572 101.936C92.9079 101.765 92.8119 101.584 92.7692 101.392C92.7479 101.2 92.7799 100.944 92.8652 100.624C92.9505 100.304 93.0679 99.8558 93.2172 99.2798C93.2385 98.7891 93.3345 98.1918 93.5052 97.4878C93.6972 96.7838 93.9212 96.1971 94.1772 95.7278C94.1772 95.4931 94.2305 95.1731 94.3372 94.7678C94.4439 94.3624 94.5719 93.9464 94.7212 93.5198C94.8919 93.0718 95.0412 92.6878 95.1692 92.3678L95.7452 90.7038L97.0252 89.6158L98.6892 90.7678C98.6039 90.8958 98.5292 91.0451 98.4652 91.2158C98.4012 91.3864 98.3159 91.6744 98.2092 92.0798C98.1025 92.4851 97.9425 93.1144 97.7292 93.9678C97.5585 94.5438 97.3665 95.1624 97.1532 95.8238C96.9612 96.4851 96.7799 97.1038 96.6092 97.6798C96.4385 98.2558 96.2892 98.7251 96.1612 99.0878C95.9052 100.048 95.6705 100.805 95.4572 101.36C95.2652 101.914 95.0732 102.288 94.8812 102.48C94.7105 102.693 94.5185 102.768 94.3052 102.704ZM105.794 100.048C105.517 100.048 105.293 99.9944 105.122 99.8878C104.973 99.7811 104.781 99.6318 104.546 99.4398C104.141 99.0131 103.81 98.5544 103.554 98.0638C103.319 97.5731 103.234 97.1464 103.298 96.7838C103.362 96.6131 103.383 96.4531 103.362 96.3038C103.362 96.1331 103.362 96.0478 103.362 96.0478C103.255 95.9411 103.223 95.8771 103.266 95.8558C103.309 95.8131 103.351 95.7491 103.394 95.6638C103.522 95.6638 103.565 95.5464 103.522 95.3118C103.479 95.1411 103.543 94.7784 103.714 94.2238C103.906 93.6478 104.162 93.1038 104.482 92.5918C104.61 92.3784 104.802 92.1011 105.058 91.7598C105.314 91.3971 105.591 91.0451 105.89 90.7038C106.21 90.3411 106.498 90.0531 106.754 89.8398C107.287 89.3918 107.778 89.0291 108.226 88.7518C108.695 88.4744 109.165 88.2824 109.634 88.1758C110.103 88.0691 110.583 88.0158 111.074 88.0158C111.586 88.0158 112.002 88.1864 112.322 88.5278C112.813 88.7411 113.154 89.0291 113.346 89.3918C113.559 89.7544 113.698 90.2238 113.762 90.7998C113.826 91.4398 113.762 92.2291 113.57 93.1678C113.378 94.0851 112.855 95.1518 112.002 96.3678C111.469 97.1358 110.946 97.7331 110.434 98.1598C109.922 98.5864 109.357 98.9811 108.738 99.3438C108.29 99.6424 107.81 99.8238 107.298 99.8878C106.786 99.9518 106.285 100.005 105.794 100.048ZM109.058 96.1438C109.527 95.7384 109.858 95.2904 110.05 94.7998C110.263 94.3091 110.487 93.7331 110.722 93.0718C110.807 92.9438 110.861 92.7304 110.882 92.4318C110.925 92.1331 110.935 91.8451 110.914 91.5678C110.893 91.2691 110.818 91.0984 110.69 91.0558C110.498 90.9064 110.306 90.8744 110.114 90.9598C109.922 91.0238 109.677 91.1624 109.378 91.3758C108.738 91.9091 108.141 92.5278 107.586 93.2318C107.053 93.9144 106.679 94.7571 106.466 95.7598C106.402 96.2931 106.455 96.6984 106.626 96.9758C106.818 97.2318 107.117 97.3064 107.522 97.1998C107.949 97.0718 108.461 96.7198 109.058 96.1438ZM115.874 101.904C115.682 101.818 115.458 101.648 115.202 101.392C114.775 101.029 114.487 100.57 114.338 100.016C114.21 99.4398 114.199 98.8851 114.306 98.3518C114.562 97.7118 114.839 97.2744 115.138 97.0398C115.458 96.7838 115.788 96.6771 116.13 96.7198C116.492 96.7411 116.834 96.8691 117.154 97.1038C117.004 97.5518 116.887 97.9571 116.802 98.3198C116.716 98.6824 116.748 98.9918 116.898 99.2478C117.047 99.5038 117.399 99.7064 117.954 99.8558C118.38 99.8984 118.743 99.9198 119.042 99.9198C119.362 99.8984 119.735 99.8771 120.162 99.8558C120.652 99.8131 121.036 99.7598 121.314 99.6958C121.612 99.6318 121.879 99.5678 122.114 99.5038C122.711 99.3331 123.223 99.0984 123.65 98.7998C124.076 98.4798 124.428 98.1171 124.706 97.7118C124.876 97.4131 124.994 97.1464 125.058 96.9118C125.122 96.6558 125.154 96.3891 125.154 96.1118C125.154 95.7918 125.122 95.5144 125.058 95.2798C124.994 95.0238 124.876 94.7251 124.706 94.3838C124.556 94.0211 124.311 93.5198 123.97 92.8798C123.948 92.7304 123.778 92.4744 123.458 92.1118C123.159 91.7491 122.86 91.3971 122.562 91.0558C122.412 90.7144 122.22 90.3304 121.986 89.9038C121.751 89.4558 121.484 89.1358 121.186 88.9438C121.1 88.8158 121.004 88.6131 120.898 88.3358C120.812 88.0584 120.738 87.9091 120.674 87.8878C120.674 87.8878 120.642 87.8344 120.578 87.7278C120.535 87.6211 120.482 87.4931 120.418 87.3438C120.14 86.7251 120.13 85.9571 120.386 85.0398C120.642 84.1011 121.111 83.2264 121.794 82.4158C122.028 82.0318 122.327 81.6478 122.69 81.2638C123.052 80.8584 123.383 80.5278 123.682 80.2718C124.002 79.9944 124.204 79.8558 124.29 79.8558C124.29 79.8558 124.354 79.8344 124.482 79.7918C124.631 79.7278 124.812 79.6211 125.026 79.4718C125.26 79.3224 125.484 79.2051 125.698 79.1198C125.911 79.0131 126.22 78.9171 126.626 78.8318L126.818 78.7998L126.946 78.7678C127.308 78.6611 127.607 78.5864 127.842 78.5438C128.076 78.4798 128.3 78.4478 128.514 78.4478C128.727 78.4478 128.983 78.4584 129.282 78.4798C130.242 78.7358 130.978 79.0878 131.49 79.5358C132.023 79.9624 132.311 80.7411 132.354 81.8718L132.098 82.7678L131.554 83.3758C131.49 83.3544 131.319 83.4184 131.042 83.5678C130.786 83.7171 130.423 83.8344 129.954 83.9198C129.506 83.9838 128.93 83.8771 128.226 83.5998C128.14 83.5784 128.108 83.5251 128.13 83.4398C128.151 83.3331 128.236 83.2691 128.386 83.2478C128.45 83.2051 128.546 83.1091 128.674 82.9598C128.823 82.8104 128.962 82.6398 129.09 82.4478C129.367 82.0638 129.431 81.7758 129.282 81.5838C129.154 81.3704 128.898 81.2638 128.514 81.2638C127.788 81.2851 127.095 81.4238 126.434 81.6798C125.772 81.9144 125.164 82.3411 124.61 82.9598C124.162 83.5358 123.831 84.0478 123.618 84.4958C123.404 84.9224 123.298 85.3171 123.298 85.6798C123.34 85.8291 123.362 86.0531 123.362 86.3518C123.383 86.6291 123.468 86.9171 123.618 87.2158C124.322 88.1971 124.866 88.9544 125.25 89.4878C125.655 90.0211 125.932 90.4051 126.082 90.6398C126.124 90.7038 126.156 90.7571 126.178 90.7998C126.199 90.8424 126.21 90.8851 126.21 90.9278C126.295 91.0771 126.412 91.2904 126.562 91.5678C126.711 91.8451 126.85 92.1118 126.978 92.3678C127.106 92.6238 127.17 92.7944 127.17 92.8798C127.17 92.8798 127.202 92.9438 127.266 93.0718C127.33 93.1784 127.404 93.3384 127.49 93.5518C127.596 93.7438 127.692 94.0211 127.778 94.3838C127.884 94.7251 127.97 95.0984 128.034 95.5038C128.098 95.8878 128.13 96.2398 128.13 96.5598C128.13 96.8158 128.066 97.1464 127.938 97.5518C127.81 97.9358 127.639 98.3304 127.426 98.7358C127.234 99.1198 126.988 99.4398 126.69 99.6958C126.391 99.9518 125.954 100.261 125.378 100.624C124.802 100.986 124.172 101.317 123.49 101.616C122.807 101.914 122.146 102.117 121.506 102.224C120.866 102.33 120.258 102.416 119.682 102.48C119.127 102.544 118.604 102.565 118.114 102.544C117.644 102.544 117.218 102.49 116.834 102.384C116.45 102.277 116.13 102.117 115.874 101.904ZM134.587 100.848C133.414 100.848 132.507 100.506 131.867 99.8238C131.249 99.1411 130.939 98.0958 130.939 96.6878C130.939 95.9198 131.078 95.0771 131.355 94.1598C131.654 93.2424 132.038 92.3464 132.507 91.4718C132.998 90.5971 133.531 89.8398 134.107 89.1998C134.683 88.5384 135.259 88.0798 135.835 87.8238C136.049 87.7171 136.273 87.6424 136.507 87.5998C136.763 87.5358 137.009 87.5038 137.243 87.5038C137.499 87.5038 137.777 87.5251 138.075 87.5678C138.395 87.5891 138.694 87.6531 138.971 87.7598C139.462 87.9091 139.889 88.1971 140.251 88.6238C140.635 89.0504 140.827 89.6691 140.827 90.4798C140.827 90.6931 140.806 90.9278 140.763 91.1838C140.721 91.4184 140.646 91.6531 140.539 91.8878C140.262 92.5918 139.835 93.2638 139.259 93.9038C138.705 94.5438 138.118 94.9918 137.499 95.2478C137.329 95.3331 137.158 95.3971 136.987 95.4398C136.838 95.4611 136.678 95.4718 136.507 95.4718C136.059 95.4718 135.654 95.4078 135.291 95.2798C134.95 95.1518 134.63 94.9811 134.331 94.7678L134.075 94.5438L133.915 94.8638C133.766 95.2691 133.659 95.6104 133.595 95.8878C133.553 96.1651 133.531 96.3678 133.531 96.4958C133.531 96.7518 133.542 97.0184 133.563 97.2958C133.585 97.5518 133.649 97.7651 133.755 97.9358C133.841 98.0424 133.947 98.1278 134.075 98.1918C134.225 98.2558 134.406 98.2878 134.619 98.2878C134.747 98.2878 134.865 98.2878 134.971 98.2878C135.099 98.2664 135.206 98.2451 135.291 98.2238C135.675 98.1384 135.985 97.9998 136.219 97.8078C136.475 97.5944 136.742 97.4131 137.019 97.2638L137.147 97.1998L137.115 97.1038C137.478 96.9118 137.723 96.7944 137.851 96.7518C137.979 96.6878 138.075 96.6344 138.139 96.5918C138.225 96.5064 138.321 96.4638 138.427 96.4638C138.726 96.4211 139.014 96.5064 139.291 96.7198C139.59 96.9118 139.739 97.1571 139.739 97.4558C139.739 97.5838 139.643 97.7864 139.451 98.0638C139.281 98.3411 139.057 98.6184 138.779 98.8958C138.523 99.1518 138.257 99.3544 137.979 99.5038C137.915 99.5251 137.851 99.5571 137.787 99.5998C137.723 99.6211 137.659 99.6531 137.595 99.6958H137.627C137.435 99.9518 137.243 100.08 137.051 100.08H136.795C136.71 100.229 136.433 100.389 135.963 100.56C135.494 100.752 135.035 100.848 134.587 100.848ZM136.251 93.1358C136.443 93.1358 136.614 93.1038 136.763 93.0398C136.934 92.9758 137.094 92.9011 137.243 92.8158C137.755 92.4531 138.086 91.9838 138.235 91.4078C138.385 90.8318 138.331 90.3944 138.075 90.0958C138.033 90.0318 137.979 89.9891 137.915 89.9678C137.851 89.9251 137.777 89.9038 137.691 89.9038C137.457 89.9038 137.19 89.9784 136.891 90.1278C136.614 90.2771 136.337 90.4904 136.059 90.7678C135.782 91.0451 135.526 91.3758 135.291 91.7598L134.875 92.4318C134.918 92.4104 134.95 92.3998 134.971 92.3998C135.014 92.3784 135.046 92.3678 135.067 92.3678C135.259 92.3678 135.387 92.4318 135.451 92.5598C135.515 92.6878 135.59 92.8158 135.675 92.9438C135.782 93.0718 135.974 93.1358 136.251 93.1358ZM143.537 100.624C143.132 100.73 142.769 100.613 142.449 100.272C142.129 99.9518 141.905 99.4718 141.777 98.8318C141.649 98.1918 141.67 97.4771 141.841 96.6878C141.948 96.4318 142.033 96.1864 142.097 95.9518C142.161 95.6958 142.193 95.4931 142.193 95.3438C142.236 95.1304 142.321 94.8211 142.449 94.4158C142.577 93.9891 142.716 93.5518 142.865 93.1038C143.014 92.6558 143.153 92.2611 143.281 91.9198C143.43 91.5571 143.526 91.3331 143.569 91.2478C143.654 91.2478 143.729 91.1731 143.793 91.0238C143.857 90.8744 143.889 90.7251 143.889 90.5758C143.889 90.4051 143.921 90.2131 143.985 89.9998C144.07 89.7864 144.156 89.6371 144.241 89.5518C144.241 89.4451 144.262 89.3278 144.305 89.1998C144.369 89.0504 144.401 88.9331 144.401 88.8478C144.401 88.7624 144.422 88.6771 144.465 88.5918C144.529 88.5064 144.561 88.4211 144.561 88.3358C144.71 88.0584 144.902 87.6211 145.137 87.0238C145.393 86.4051 145.66 85.7224 145.937 84.9758C146.236 84.2291 146.513 83.4931 146.769 82.7678C147.025 82.0424 147.228 81.4344 147.377 80.9438C147.548 80.4318 147.633 80.1224 147.633 80.0158C147.633 79.8451 147.697 79.6851 147.825 79.5358C147.953 79.3864 148.102 79.3118 148.273 79.3118C148.337 79.2478 148.486 79.2051 148.721 79.1838C148.956 79.1411 149.116 79.1198 149.201 79.1198C149.201 79.1198 149.244 79.1624 149.329 79.2478C149.414 79.3331 149.542 79.4611 149.713 79.6318C149.884 79.7811 150.044 79.9518 150.193 80.1438C150.364 80.3358 150.449 80.5598 150.449 80.8158C150.449 81.0931 150.406 81.3598 150.321 81.6158C150.257 81.8718 150.129 82.2238 149.937 82.6718C149.745 83.0984 149.446 83.7384 149.041 84.5918C148.87 85.0184 148.689 85.4238 148.497 85.8078C148.305 86.1704 148.209 86.3944 148.209 86.4798C148.209 86.5651 148.166 86.6931 148.081 86.8638C148.017 87.0344 147.942 87.2478 147.857 87.5038C147.772 87.6744 147.654 87.9304 147.505 88.2718C147.356 88.5918 147.196 88.9438 147.025 89.3278C146.876 89.6904 146.748 90.0104 146.641 90.2878C146.534 90.5438 146.481 90.6931 146.481 90.7358C146.481 90.8211 146.47 90.9064 146.449 90.9918C146.449 91.0771 146.406 91.1624 146.321 91.2478C146.236 91.2478 146.182 91.3118 146.161 91.4398C146.161 91.5464 146.161 91.5998 146.161 91.5998C146.161 91.8131 145.99 92.3784 145.649 93.2958C145.308 94.4691 144.988 95.5464 144.689 96.5278C144.412 97.5091 144.273 98.2984 144.273 98.8958C144.273 99.4078 144.188 99.8024 144.017 100.08C143.868 100.357 143.708 100.538 143.537 100.624ZM149.598 103.056C149.321 103.077 149.044 102.906 148.766 102.544C148.489 102.181 148.254 101.701 148.062 101.104C147.892 100.506 147.806 99.8558 147.806 99.1518C147.721 98.2771 147.796 97.2104 148.03 95.9518C148.265 94.6931 148.617 93.2211 149.086 91.5358C149.257 90.9598 149.502 90.2558 149.822 89.4238C150.142 88.5918 150.473 87.7704 150.814 86.9598C151.177 86.1491 151.497 85.4664 151.774 84.9118C152.052 84.3358 152.222 84.0158 152.286 83.9518C152.414 83.9944 152.478 83.8984 152.478 83.6638C152.478 83.6211 152.564 83.4611 152.734 83.1838C152.905 82.9064 153.065 82.6078 153.214 82.2878C153.492 81.8824 153.844 81.4558 154.27 81.0078C154.718 80.5384 155.166 80.1118 155.614 79.7278C156.084 79.3438 156.489 79.0878 156.83 78.9598C157.15 78.8318 157.47 78.7678 157.79 78.7678C158.196 78.7678 158.633 78.9064 159.102 79.1838C159.593 79.4398 160.009 79.7704 160.35 80.1758C160.713 80.5598 160.894 80.9544 160.894 81.3598C160.894 81.7011 160.82 82.0318 160.67 82.3518C160.606 82.6718 160.478 83.0344 160.286 83.4398C160.094 83.8238 159.902 84.1864 159.71 84.5278C159.54 84.8478 159.401 85.0824 159.294 85.2318C158.676 85.7011 158.196 85.8824 157.854 85.7758C157.513 85.6691 157.396 85.5411 157.502 85.3918C157.502 85.3064 157.534 85.1251 157.598 84.8478C157.662 84.5491 157.705 84.3251 157.726 84.1758C157.726 84.1331 157.769 84.0051 157.854 83.7918C157.961 83.5784 158.014 83.3651 158.014 83.1518C158.206 82.3838 158.292 81.8824 158.27 81.6478C158.27 81.4131 158.174 81.2958 157.982 81.2958C157.876 81.2744 157.748 81.2958 157.598 81.3598C157.449 81.4238 157.321 81.5091 157.214 81.6158C157.129 81.7011 157.086 81.7971 157.086 81.9038C157.086 81.9678 157.086 82.0104 157.086 82.0318C157.022 82.0104 156.83 82.1918 156.51 82.5758C156.212 82.9384 155.87 83.3864 155.486 83.9198C155.102 84.4318 154.782 84.9011 154.526 85.3278C154.356 85.6904 154.164 86.1064 153.95 86.5758C153.758 87.0238 153.481 87.7171 153.118 88.6558L152.862 89.4238L153.374 89.4878C153.545 89.5091 153.758 89.4984 154.014 89.4558C154.292 89.3918 154.601 89.3278 154.942 89.2638C155.668 89.1571 156.158 89.2318 156.414 89.4878C156.692 89.7224 156.905 90.0104 157.054 90.3518C157.289 90.8638 157.161 91.2158 156.67 91.4078C156.18 91.5784 155.124 91.7064 153.502 91.7918C153.161 91.7491 152.862 91.7384 152.606 91.7598C152.372 91.7598 152.212 91.8024 152.126 91.8878C152.041 91.9304 151.924 92.1651 151.774 92.5918C151.625 92.9971 151.465 93.4878 151.294 94.0638C151.145 94.6184 151.028 95.1518 150.942 95.6638C150.772 96.3251 150.665 97.0398 150.622 97.8078C150.58 98.5544 150.58 99.2584 150.622 99.9198C150.665 100.56 150.729 101.05 150.814 101.392C150.942 101.904 150.836 102.277 150.494 102.512C150.153 102.768 149.854 102.949 149.598 103.056Z" fill="#311300"/>
<g opacity="0.2">
<path d="M192.577 115.168C207.075 115.168 218.828 114.58 218.828 113.855C218.828 113.13 207.075 112.543 192.577 112.543C178.079 112.543 166.326 113.13 166.326 113.855C166.326 114.58 178.079 115.168 192.577 115.168Z" fill="#390176"/>
</g>
<path d="M191.668 69.9726C191.36 70.4291 190.928 70.7867 190.434 71.0271C189.529 71.4653 187.614 72.2183 186.544 71.1712C186.142 70.7782 186.016 70.4535 186.047 70.1801C186.128 69.4894 187.218 69.1208 187.464 68.7888C187.808 68.3263 186.434 67.3365 187.476 66.6017C187.922 66.2881 188.704 66.3344 189.498 66.5981C190.561 66.9532 191.641 67.7001 191.946 68.5008C192.15 69.0329 191.946 69.5601 191.668 69.9726Z" fill="#FFF5DC"/>
<path d="M191.668 69.9726C191.36 70.4291 190.928 70.7867 190.434 71.0271C189.529 71.4653 187.614 72.2183 186.544 71.1711C186.142 70.7782 186.016 70.4535 186.047 70.1801C186.108 70.3058 186.67 71.3567 188.511 70.816C190.47 70.2399 188.626 69.2111 187.656 68.8449L187.623 68.2652C187.623 68.2652 188.614 69.2196 189.961 68.9389C191.309 68.6594 190.548 67.3926 189.711 66.8336C189.583 66.7482 189.516 66.6689 189.498 66.5981C190.561 66.9532 191.641 67.7002 191.946 68.5008C192.15 69.0329 191.946 69.5601 191.668 69.9726Z" fill="#EDCD96"/>
<path d="M188.001 72.0358C187.308 72.0358 186.733 71.8282 186.308 71.4125C185.863 70.9781 185.668 70.567 185.71 70.1555C185.773 69.5338 186.371 69.1497 186.807 68.8692C186.949 68.7778 187.124 68.6653 187.184 68.5991C187.181 68.5226 187.088 68.3315 187.025 68.2028C186.811 67.7615 186.411 66.9401 187.282 66.3262C187.935 65.8664 188.933 66.072 189.47 66.2356C190.545 66.5631 191.877 67.3739 192.262 68.3801C192.471 68.9288 192.363 69.5448 191.948 70.1615V70.1615C191.617 70.6525 191.144 71.0567 190.58 71.3304C189.612 71.8004 188.739 72.0358 188.001 72.0358ZM188.317 66.7201C188.044 66.7201 187.821 66.7728 187.671 66.8781C187.304 67.1368 187.369 67.3659 187.633 67.9075C187.801 68.2537 187.992 68.646 187.735 68.9907C187.614 69.153 187.409 69.2847 187.172 69.4372C186.833 69.6549 186.412 69.9258 186.382 70.2239C186.357 70.4618 186.585 70.7391 186.78 70.9298C187.668 71.7991 189.358 71.1733 190.286 70.723C190.743 70.5012 191.124 70.1767 191.388 69.7844C191.679 69.3519 191.761 68.9606 191.631 68.6213C191.375 67.9514 190.383 67.2197 189.273 66.8815C188.92 66.7739 188.593 66.7201 188.317 66.7201Z" fill="#390176"/>
<path d="M211.476 100.487C210.187 102.425 207.368 105.725 202.557 106.887C201.522 107.138 200.395 107.288 199.173 107.307C198.384 107.318 197.629 106.995 197.078 106.432L195.743 105.065L193.793 103.069L196.844 101.306L209.863 93.7815L210.893 95.9698L211.681 97.6455C212.113 98.5645 212.038 99.6422 211.476 100.487Z" fill="white"/>
<path d="M201.845 106.015C201.094 106.187 200.295 106.307 199.448 106.362C198.901 106.397 198.366 106.183 197.993 105.782L197.144 104.869C198.258 104.69 199.32 104.453 200.328 104.158L201.845 106.015Z" fill="#F4E5D3"/>
<path d="M199.133 107.687C198.268 107.687 197.423 107.328 196.806 106.697L193.521 103.335C193.439 103.251 193.401 103.134 193.417 103.018C193.432 102.902 193.501 102.8 193.603 102.741L209.672 93.4525C209.764 93.3993 209.874 93.3871 209.976 93.419C210.077 93.4507 210.16 93.5235 210.206 93.6196L212.024 97.4842C212.511 98.5177 212.422 99.7489 211.792 100.697C210.086 103.264 206.179 107.585 199.178 107.686C199.163 107.687 199.148 107.687 199.133 107.687ZM197.35 106.166C197.832 106.659 198.497 106.938 199.167 106.927C205.82 106.831 209.536 102.719 211.159 100.277C211.643 99.5486 211.711 98.6023 211.337 97.8074L209.694 94.3167L194.406 103.154L197.35 106.166Z" fill="#390176"/>
<path d="M211.117 95.5416C211.044 95.6869 210.968 95.8297 210.892 95.97C208.661 100.09 205.091 102.768 200.328 104.158C198.905 104.574 197.376 104.875 195.743 105.065C195.722 105.067 195.701 105.07 195.68 105.072C194.739 105.18 193.807 104.801 193.209 104.067L190.661 100.932L182.895 91.3798L181.749 89.9714L180.769 88.7656L180.909 88.6862L183.778 87.0838L186.244 85.7071L200.31 77.8497L201.946 76.9356L204.226 75.6614L204.552 76.4816L204.697 76.8465L211.224 93.2545C211.52 93.9965 211.478 94.8301 211.117 95.5416Z" fill="white"/>
<path d="M199.054 104.342C198.289 104.494 197.495 104.617 196.678 104.712C196.657 104.715 196.636 104.717 196.615 104.719C195.674 104.827 194.742 104.449 194.144 103.714L191.94 101.003C193.322 101.012 194.765 100.809 196.21 100.437L196.844 101.306L199.054 104.342Z" fill="#F4E5D3"/>
<path d="M204.398 74.6033L202.842 71.9072C203.109 72.3735 203.23 72.9056 203.213 73.489C203.185 74.5117 202.74 75.6907 201.946 76.9356C201.474 77.6764 200.878 78.4404 200.174 79.2093C198.389 81.1584 195.904 83.138 192.955 84.8405C191.248 85.8267 189.538 86.631 187.9 87.2449C186.401 87.8075 184.963 88.209 183.643 88.4434C182.659 88.6179 181.74 88.7009 180.909 88.6863L180.769 88.7656L181.749 89.9714L182.895 91.3798C183.129 91.3749 183.369 91.3626 183.616 91.3433C183.892 91.3217 184.161 91.4365 184.336 91.6513L185.47 93.0458C187.054 93.0043 188.679 92.7407 190.29 92.3025L189.27 90.9013C189.014 90.5504 189.162 90.0525 189.567 89.8976L189.576 89.8945C191.177 89.2879 192.844 88.4983 194.51 87.5366C199.593 84.6013 203.296 80.8472 204.417 77.8412C204.545 77.4994 204.639 77.1663 204.697 76.8465C204.853 76.0007 204.764 75.2391 204.398 74.6033Z" fill="#F4E5D3"/>
<path d="M195.358 105.47C194.413 105.47 193.52 105.05 192.915 104.306L180.474 89.0044C180.403 88.9174 180.374 88.8037 180.395 88.6935C180.416 88.5834 180.485 88.4882 180.583 88.4335L204.041 75.3295C204.136 75.2762 204.25 75.2663 204.353 75.3033C204.456 75.3399 204.538 75.4191 204.579 75.5207L211.577 93.1141C211.912 93.9549 211.868 94.9024 211.456 95.7139C208.621 101.304 203.328 104.579 195.723 105.449C195.601 105.463 195.479 105.47 195.358 105.47ZM181.348 88.876L193.504 103.827C194.022 104.464 194.819 104.788 195.637 104.695C202.972 103.856 208.066 100.718 210.779 95.3704C211.092 94.7532 211.126 94.0331 210.872 93.3947L204.033 76.2035L181.348 88.876Z" fill="#390176"/>
<path d="M210.357 89.5685C208.763 94.0452 202.473 98.827 196.21 100.437C194.314 100.925 192.421 101.123 190.661 100.932C190.401 100.904 190.145 100.868 189.891 100.822C189.844 100.814 189.803 100.79 189.774 100.753L183.736 93.3276C183.629 93.1957 183.73 93.0005 183.898 93.0127C184.01 93.0212 184.124 93.0273 184.238 93.0322C186.204 93.1311 188.258 92.8552 190.29 92.3024C197.575 90.3179 204.58 84.7574 206.219 79.9525C206.277 79.7828 206.515 79.7792 206.581 79.9452L210.354 89.4307C210.371 89.4745 210.373 89.5234 210.357 89.5685Z" fill="#8C5242"/>
<path d="M196.21 100.437C194.597 100.852 192.986 101.057 191.458 100.991L185.901 94.0013C187.511 93.9683 189.163 93.7022 190.801 93.2568C190.852 93.2434 190.902 93.2287 190.954 93.2141L196.21 100.437Z" fill="#723A2D"/>
<g opacity="0.3">
<path d="M193.723 92.389C193.723 92.389 202.468 88.7488 206.331 81.9465C206.38 81.8587 206.509 81.867 206.545 81.9611L209.394 89.2624L206.413 83.8437C206.361 83.7489 206.229 83.7389 206.164 83.8256C205.369 84.8897 201.105 90.2027 193.723 92.389Z" fill="white"/>
</g>
<path d="M202.694 94.3503C203.118 92.6301 202.304 90.9509 200.876 90.5997C199.449 90.2486 197.949 91.3584 197.526 93.0786C197.102 94.7988 197.916 96.478 199.344 96.8292C200.771 97.1803 202.271 96.0705 202.694 94.3503Z" fill="#EFB06C"/>
<path d="M199.878 97.238C199.674 97.238 199.469 97.2138 199.264 97.1636C198.472 96.9687 197.822 96.4193 197.433 95.6167C197.054 94.8358 196.969 93.9045 197.193 92.9944C197.661 91.0917 199.352 89.8663 200.962 90.2622C202.573 90.6585 203.502 92.5288 203.034 94.4314C202.625 96.0927 201.284 97.238 199.878 97.238ZM200.344 90.8791C199.252 90.8791 198.196 91.8132 197.865 93.1597C197.679 93.9136 197.747 94.679 198.055 95.315C198.353 95.9292 198.841 96.3472 199.43 96.492C200.669 96.7967 201.985 95.7984 202.362 94.2662C202.739 92.7338 202.037 91.239 200.797 90.9339C200.647 90.8969 200.495 90.8791 200.344 90.8791Z" fill="white"/>
<path d="M198.235 96.5222C198.045 96.5222 197.891 96.3691 197.889 96.1791C197.888 95.9881 198.041 95.8321 198.232 95.8305C198.379 95.827 199.692 95.7361 199.768 93.7001C199.868 91.0138 201.502 90.6269 201.572 90.6118C201.758 90.5716 201.942 90.6893 201.983 90.876C202.023 91.0613 201.907 91.2442 201.723 91.2866C201.666 91.3008 200.538 91.6126 200.459 93.7258C200.357 96.4737 198.259 96.522 198.238 96.5222C198.237 96.5222 198.236 96.5222 198.235 96.5222Z" fill="white"/>
<path d="M192.022 101.383C191.26 101.383 190.525 101.321 189.824 101.196C189.688 101.172 189.566 101.1 189.479 100.992L183.441 93.5666C183.297 93.3891 183.272 93.1434 183.377 92.9406C183.483 92.7384 183.698 92.6178 183.925 92.6345C192.759 93.2681 203.77 85.9589 205.86 79.8296C205.938 79.6011 206.144 79.4496 206.386 79.4435C206.633 79.4387 206.843 79.5794 206.933 79.8048L210.706 89.2907C210.758 89.4209 210.761 89.565 210.714 89.6963C209.643 92.7042 206.525 95.9201 202.373 98.2984C198.867 100.307 195.211 101.382 192.022 101.383ZM190.025 100.46C193.472 101.052 197.83 100.026 201.996 97.6395C205.905 95.4005 208.954 92.2903 209.975 89.5069L206.406 80.5355C205.19 83.5453 202.038 86.8196 197.864 89.3845C193.376 92.1419 188.461 93.6005 184.297 93.4164L190.025 100.46Z" fill="#390176"/>
<path d="M203.349 72.1292C203.304 73.7597 202.198 75.7881 200.31 77.8495C198.524 79.7986 196.039 81.7782 193.091 83.4808C191.383 84.4669 189.673 85.2712 188.035 85.8851C186.537 86.4477 185.099 86.8492 183.778 87.0836C181.409 87.5046 179.418 87.3887 178.13 86.6918C177.616 86.4147 177.214 86.0437 176.945 85.5775C175.978 83.9018 176.94 81.351 179.235 78.7002C179.235 78.7002 179.236 78.7002 179.236 78.699C181.04 76.6156 183.669 74.4713 186.833 72.6442C194.022 68.4946 201.249 67.5561 202.978 70.5475C203.245 71.0136 203.366 71.5458 203.349 72.1292Z" fill="white"/>
<path d="M204.552 76.4813C203.432 79.4874 199.729 83.2415 194.646 86.1767C192.98 87.1385 191.313 87.9281 189.711 88.5347C189.127 88.758 188.549 88.9557 187.986 89.1278L187.981 89.1303C185.6 89.8613 183.438 90.153 181.749 89.9712C180.211 89.8052 179.065 89.2474 178.503 88.2735L176.945 85.5775C177.214 86.0437 177.616 86.4147 178.13 86.6918C179.418 87.3887 181.41 87.5046 183.779 87.0835C185.099 86.8492 186.537 86.4477 188.036 85.8851C189.673 85.2712 191.383 84.4669 193.091 83.4807C196.039 81.7782 198.524 79.7986 200.31 77.8495C202.198 75.7881 203.304 73.7597 203.349 72.1291C203.366 71.5458 203.245 71.0136 202.978 70.5474L204.534 73.2434C205.039 74.1198 205.017 75.2365 204.552 76.4813Z" fill="white"/>
<path d="M189.711 88.5347L187.986 89.1279L187.981 89.1303C185.599 89.8613 183.438 90.153 181.749 89.9712C181.552 89.9504 181.361 89.9224 181.178 89.8882L179.332 87.1324C180.531 87.4119 182.055 87.3899 183.779 87.0836C185.099 86.8492 186.537 86.4477 188.036 85.8851L189.711 88.5347Z" fill="#F4E5D3"/>
<path d="M188.035 85.8851C186.537 86.4477 185.099 86.8492 183.778 87.0835C182.055 87.3899 180.531 87.4118 179.332 87.1324L178.818 86.3659C178.818 86.3659 176.396 84.6304 178.978 79.9414C178.601 84.019 183.498 85.3066 186.244 85.7069C187.298 85.8619 188.035 85.8851 188.035 85.8851Z" fill="#F4E5D3"/>
<path d="M200.329 73.0231C200.215 74.1697 199.755 75.63 198.424 77.0258C195.884 79.6896 185.077 84.5465 183.102 85.4209C182.901 85.5095 182.792 85.5576 182.792 85.5576C182.792 85.5576 179.738 85.6715 178.298 83.6012C178.298 83.6012 180.282 78.595 186.266 74.7391C192.249 70.8832 197.499 70.2935 200.163 70.8782C200.163 70.8782 200.454 71.7615 200.329 73.0231Z" fill="#390176"/>
<path d="M200.329 73.0231C200.215 74.1696 199.755 75.63 198.424 77.0258C195.884 79.6896 185.077 84.5464 183.102 85.4209C182.21 85.2336 181.079 84.797 180.375 83.7846C180.375 83.7846 182.173 79.2504 187.592 75.7578C193.012 72.2651 197.767 71.7298 200.182 72.26C200.182 72.26 200.277 72.5473 200.329 73.0231Z" fill="#D18642"/>
<path d="M178.298 83.98C178.251 83.98 178.204 83.9715 178.158 83.9531C177.963 83.8758 177.868 83.6554 177.945 83.4606C178.028 83.2516 180.043 78.2978 186.059 74.4203C192.063 70.5511 197.453 69.8946 200.244 70.5075C200.449 70.5524 200.579 70.7549 200.534 70.9597C200.488 71.1645 200.286 71.2942 200.081 71.2491C197.432 70.6673 192.278 71.3158 186.471 75.0585C180.671 78.7967 178.67 83.6917 178.651 83.7407C178.592 83.8894 178.449 83.98 178.298 83.98Z" fill="#390176"/>
<path d="M181.21 87.702C179.908 87.702 178.794 87.4823 177.949 87.0253C177.364 86.7097 176.915 86.2864 176.616 85.7675C174.756 82.545 179.161 76.6363 186.644 72.316C190.162 70.2843 193.806 68.9438 196.904 68.5415C200.116 68.1245 202.389 68.7697 203.306 70.3581C203.605 70.8775 203.747 71.477 203.729 72.1404C203.635 75.5136 199.338 80.3121 193.28 83.8097C188.945 86.3127 184.485 87.702 181.21 87.702ZM198.683 69.1789C198.16 69.1789 197.598 69.217 197.002 69.2945C194.001 69.6841 190.457 70.9907 187.023 72.9736C183.589 74.9566 180.685 77.3725 178.847 79.7761C177.105 82.0554 176.531 84.101 177.274 85.3881C177.502 85.7833 177.85 86.1093 178.31 86.3574C179.595 87.0525 181.723 87.137 184.302 86.5954C187.012 86.0257 189.986 84.835 192.9 83.1522C195.814 81.4699 198.331 79.4903 200.18 77.4276C201.938 75.4653 202.929 73.58 202.97 72.1191V72.1191C202.984 71.598 202.876 71.1332 202.648 70.7375C202.061 69.7207 200.652 69.1789 198.683 69.1789Z" fill="#390176"/>
<path d="M182.777 90.4033C180.514 90.4033 178.908 89.7362 178.173 88.463L176.617 85.7676C176.616 85.7675 176.616 85.7674 176.616 85.7674C176.512 85.5858 176.574 85.3538 176.756 85.249C176.937 85.1442 177.169 85.2064 177.274 85.388L177.277 85.393C177.505 85.7859 177.852 86.1103 178.31 86.3573C179.595 87.0524 181.723 87.1369 184.302 86.5953C187.013 86.0256 189.986 84.835 192.9 83.1522C195.814 81.4698 198.331 79.4902 200.18 77.4275C201.938 75.4653 202.929 73.58 202.97 72.119C202.985 71.5979 202.876 71.1331 202.648 70.7374C202.544 70.5558 202.606 70.3237 202.787 70.219C202.969 70.1143 203.201 70.1765 203.306 70.358L204.863 73.0534C206.722 76.276 202.317 82.1848 194.835 86.5051C191.317 88.5369 187.673 89.8774 184.575 90.2796C183.938 90.3624 183.337 90.4033 182.777 90.4033ZM178.323 87.2049L178.831 88.0834C179.574 89.3701 181.631 89.8959 184.477 89.5267C187.478 89.137 191.022 87.8304 194.456 85.8477C197.89 83.8645 200.794 81.4487 202.632 79.045C204.374 76.7656 204.948 74.7202 204.205 73.4331L203.697 72.5539C203.286 75.8971 199.094 80.4528 193.28 83.8096C187.465 87.1676 181.424 88.5212 178.323 87.2049Z" fill="#390176"/>
<path d="M200.589 73.6084C200.006 75.2573 198.594 77.8214 195.184 80.1574C189.581 83.997 184.877 84.5597 184.877 84.5597C182.603 86.4465 179.081 87.0958 176.444 86.0181C176.324 85.9693 176.206 85.9168 176.09 85.8607C176.087 85.8595 176.086 85.8583 176.086 85.8583C175.434 85.5422 174.847 85.1113 174.36 84.5597C171.875 81.744 174.447 80.4992 175.61 81.334C176.594 82.0431 176.644 83.3502 177.856 83.3514C178.075 83.3514 178.333 83.3087 178.64 83.2123C178.686 83.1976 178.729 83.1818 178.772 83.1659C180.596 82.4361 179.413 79.3507 177.399 78.8003C175.963 78.4085 174.95 78.7734 173.593 78.4525C173.001 78.3121 172.344 78.0412 171.558 77.5212C171.247 77.315 170.973 77.0758 170.734 76.8134L170.733 76.8121C168.973 74.8911 169.058 71.7179 170.096 71.0112C171.276 70.2094 172.298 71.2334 173.162 72.6332C174.026 74.0319 174.465 72.7858 175.152 72.1036C175.839 71.4213 177.055 71.9852 177.918 71.6593C178.62 71.3969 179.614 69.7005 179.96 69.0756C180.04 68.9328 180.085 68.8449 180.085 68.8449C180.085 68.8449 180.403 65.4666 180.86 63.5554C180.91 63.3479 180.965 63.1319 181.022 62.9098C181.485 61.0973 182.061 58.953 180.931 58.4367C179.662 57.857 177.654 58.8126 177.126 57.2077C176.597 55.6052 179.064 52.6358 179.733 54.2737C180.403 55.9128 181.037 56.2521 181.917 55.4685C182.798 54.6838 184.279 54.6838 184.632 55.6394C184.983 56.5938 183.398 59.0506 184.561 59.119C185.723 59.1873 187.662 58.7443 187.097 61.9187C186.887 63.1026 186.116 64.3023 185.248 65.5508H185.247C183.791 67.6464 182.059 69.8835 182.235 72.4282C182.435 75.3097 184.92 77.0659 186.345 77.8422C186.811 78.0972 187.165 78.2473 187.287 78.2962C187.311 78.3047 187.326 78.3108 187.333 78.3133L187.335 78.3145C187.335 78.3145 187.348 78.0179 187.339 77.4785C187.331 76.8987 187.3 76.0359 187.203 74.9619C187.018 72.8883 188.894 72.0449 190.031 73.1189C191.105 74.1344 192.123 76.4508 192.233 76.7047C192.238 76.7206 192.241 76.7279 192.241 76.7279C192.241 76.7279 195.097 73.8268 194.991 72.6674C194.923 71.9217 194.216 70.7683 193.38 69.2879C192.912 68.4641 192.407 67.5378 191.95 66.5248C190.672 63.6921 193.074 63.5554 193.074 63.5554C193.197 60.6946 194.105 59.3619 194.936 58.7406C195.434 58.3672 196.136 58.8151 195.99 59.4083C195.616 60.946 195.643 62.3691 195.894 63.6335C196.468 66.5382 198.213 68.6118 198.954 69.3404C199.365 69.7444 199.745 70.1826 200.062 70.5804C200.749 71.4421 200.954 72.5783 200.589 73.6084Z" fill="#EFB06C"/>
<path d="M178.765 73.8269C178.164 74.4749 177.708 73.6646 176.527 73.7842C175.346 73.9038 176.433 75.5551 175.02 75.0645C174.527 74.8936 173.038 75.0559 173.743 75.9603C174.431 76.8439 175.373 77.254 174.249 77.8776C174.222 77.8935 174.195 77.9081 174.166 77.9228C173.711 78.1583 173.175 78.1168 172.661 77.9533C172.66 77.9533 172.66 77.9533 172.66 77.9533C171.761 77.6689 170.932 77.0111 170.734 76.8134L170.733 76.8122C168.973 74.8912 169.058 71.7179 170.096 71.0113C171.276 70.2094 172.298 71.2334 173.162 72.6333C174.026 74.0319 174.465 72.7858 175.152 72.1036C175.839 71.4213 177.055 71.9852 177.918 71.6593C178.62 71.3969 179.614 69.7005 179.96 69.0756C180.045 69.9751 179.983 71.4848 180.032 72.0853C180.096 72.8713 179.363 73.1788 178.765 73.8269Z" fill="#FFF5DC"/>
<path d="M179.013 84.401C178.941 84.4389 178.858 84.4755 178.765 84.5084C177.531 84.9527 176.938 83.4247 176.512 84.0129C176.228 84.4059 176.721 84.628 176.915 85.5495C177.029 86.095 176.717 86.1024 176.444 86.0182C176.273 85.9657 176.117 85.8766 176.09 85.8607C176.087 85.8595 176.086 85.8583 176.086 85.8583C175.434 85.5422 174.847 85.1114 174.36 84.5597C171.875 81.7441 174.447 80.4992 175.61 81.334C176.594 82.0431 176.644 83.3502 177.856 83.3514C178.075 83.3514 178.333 83.3087 178.64 83.2123C178.686 83.1976 178.73 83.1818 178.772 83.1659C179.412 83.421 179.787 84.0044 179.013 84.401Z" fill="#FFF5DC"/>
<path d="M187.099 61.9017C187.099 61.9078 187.098 61.9127 187.097 61.9188C186.887 63.1026 186.116 64.3024 185.248 65.5509H185.247C183.106 65.6107 186.94 61.6539 185.67 60.7325C184.401 59.8098 183.768 60.8082 182.895 62.3704C182.024 63.9313 181.022 62.9098 181.022 62.9098C181.485 61.0974 182.061 58.953 180.931 58.4368C180.257 58.1292 179.378 58.2537 178.618 58.1976C177.948 58.15 177.375 57.962 177.126 57.2078C176.597 55.6053 179.064 52.6359 179.733 54.2738C180.403 55.9129 181.037 56.2521 181.917 55.4686C182.798 54.6838 184.279 54.6838 184.632 55.6395C184.983 56.5939 183.398 59.0507 184.561 59.119C185.72 59.1874 187.655 58.7455 187.099 61.9017Z" fill="#FFF5DC"/>
<path d="M195.991 59.4083C195.616 60.9461 195.643 62.3691 195.894 63.6335C195.877 63.7312 195.861 63.83 195.845 63.9313C195.77 64.4195 195.685 64.8174 195.594 65.1384C194.982 67.2962 194.101 66.0549 194.101 66.0549C192.362 65.4911 193.346 69.1598 193.379 69.2843C193.286 69.122 193.192 68.9548 193.097 68.7839C192.714 68.0919 192.316 67.3364 191.95 66.5248C190.672 63.6921 193.074 63.5554 193.074 63.5554C193.197 60.6947 194.105 59.3619 194.936 58.7407C195.434 58.3672 196.136 58.8151 195.991 59.4083Z" fill="#FFF5DC"/>
<path d="M190.031 73.1188C191.105 74.135 192.123 76.4508 192.232 76.7052C192.181 76.752 192.115 76.7014 192.03 76.523C191.361 75.1246 188.578 74.5096 188.542 77.1721C188.507 79.8334 187.198 79.7335 187.198 79.7335L187.288 78.2959L187.339 77.4784C187.331 76.8988 187.3 76.0357 187.203 74.9614C187.017 72.8885 188.894 72.0445 190.031 73.1188Z" fill="#FFF5DC"/>
<path d="M192.029 76.3611C192.029 76.3611 192.153 76.5134 192.355 76.728C192.896 77.305 193.531 78.4345 194.736 77.694C196.615 76.5393 194.017 74.6677 194.017 74.6677L192.029 76.3611Z" fill="#D18642"/>
<path d="M196.01 69.5809C196.039 71.1138 195.126 72.7248 195.126 72.7248C195.126 72.7248 194.172 71.0296 193.104 68.7985C193.102 68.7937 193.099 68.7888 193.097 68.7839C193.192 68.9548 193.286 69.122 193.379 69.2843C193.346 69.1598 192.362 65.4911 194.101 66.0549C194.101 66.0549 194.982 67.2961 195.594 65.1384C196.066 66.886 196.01 69.5809 196.01 69.5809Z" fill="#D18642"/>
<path d="M195.594 65.1384C194.982 67.2962 194.101 66.055 194.101 66.055C192.362 65.4911 193.346 69.1599 193.379 69.2844C193.286 69.122 193.192 68.9548 193.097 68.784C192.039 66.5578 192.462 64.5453 192.954 64.4806C193.098 64.4611 193.229 64.4354 193.342 64.4073C193.598 64.3463 193.789 64.1291 193.819 63.8679C193.974 62.5046 194.738 63.0136 195.381 64.5135C195.462 64.7003 195.532 64.9114 195.594 65.1384Z" fill="#EDCD96"/>
<path d="M180.597 74.2626C180.687 74.7634 180.809 75.2095 180.954 75.6108C180.972 75.062 180.825 74.5625 180.597 74.2626Z" fill="#D18642"/>
<path d="M187.332 78.3134L186.345 77.8423L185.582 77.4786C185.582 77.4786 186.273 78.4781 185.385 78.7527C184.598 78.9959 182.071 78.7114 180.954 75.6108C180.949 75.7471 180.935 75.8863 180.908 76.0264C179.208 74.334 177.306 75.8401 176.811 77.1426C176.644 77.5824 176.758 77.9902 176.999 78.3465C176.225 78.3164 175.316 78.1719 174.249 77.8776C174.222 77.8935 174.195 77.9081 174.166 77.9228C173.711 78.1583 173.175 78.1169 172.661 77.9533C172.687 77.9667 173.077 78.1742 173.592 78.4525C174.947 78.7728 175.958 78.4103 177.39 78.7982C178.004 79.3736 178.825 79.731 178.831 79.7337C179.836 80.8756 180.092 82.6377 178.772 83.1659C179.412 83.421 179.786 84.0044 179.012 84.4011C179.359 84.4096 179.803 84.3632 180.374 84.2351C183.46 83.5443 183.682 84.3095 185.311 82.8779C186.939 81.4463 187.331 79.1506 187.335 78.3146L187.332 78.3134Z" fill="#D18642"/>
<path d="M172.661 77.9533C173.228 77.957 173.756 77.9301 174.249 77.8777C174.222 77.8935 174.195 77.9082 174.166 77.9228C173.711 78.1584 173.175 78.1169 172.661 77.9533Z" fill="#EDCD96"/>
<path d="M179.013 84.401C177.775 84.3693 177.801 83.6285 177.856 83.3514C178.075 83.3514 178.333 83.3087 178.64 83.2123C178.686 83.1976 178.729 83.1818 178.772 83.1659C179.412 83.421 179.786 84.0044 179.013 84.401Z" fill="#EDCD96"/>
<path d="M195.382 72.0845C195.382 72.0845 195.992 68.5321 196.369 69.8446C197.155 72.5794 200.274 73.1206 200.508 72.6511C200.936 71.7913 199.204 76.5058 198.424 77.0258C197.644 77.5459 197.447 76.7378 196.789 75.6608C196.13 74.5838 194.223 75.2447 194.542 74.2626C194.861 73.2805 195.382 72.0845 195.382 72.0845Z" fill="#FCCA97"/>
<path d="M187.099 61.9017C186.96 61.8712 186.874 61.6869 186.882 61.2707C186.915 59.5438 185.813 60.1516 184.414 60.2956C183.016 60.4384 182.917 59.2472 183.328 57.8644C183.739 56.4828 183.476 55.5772 182.456 56.3339C181.435 57.0918 180.333 57.0589 179.905 56.4499C179.478 55.8409 178.819 55.1001 178.227 56.1533C177.73 57.0382 178.393 57.934 178.618 58.1976C177.948 58.15 177.375 57.962 177.126 57.2078C176.597 55.6053 179.064 52.6359 179.733 54.2738C180.403 55.9129 181.037 56.2521 181.917 55.4686C182.798 54.6838 184.279 54.6838 184.632 55.6395C184.983 56.5939 183.398 59.0507 184.561 59.119C185.72 59.1874 187.655 58.7456 187.099 61.9017Z" fill="white"/>
<path d="M180.464 68.9187C180.193 70.7277 180.316 72.6085 180.812 74.3713C181.127 75.4512 181.588 76.4528 182.135 77.4489C182.163 77.497 182.092 77.5532 182.053 77.509C181.519 76.9571 181.077 76.311 180.729 75.6179C180.038 74.2244 179.673 72.6764 179.59 71.1245C179.555 70.54 179.57 69.9528 179.625 69.3689C179.643 69.1703 179.668 68.984 179.707 68.7714C179.744 68.5617 179.945 68.4224 180.155 68.4602C180.368 68.4984 180.508 68.7065 180.464 68.9187Z" fill="#390176"/>
<path d="M187.72 78.2905C187.81 80.5505 186.459 83.1969 184.132 83.7459C184.01 83.7711 183.934 83.6062 184.035 83.5319C184.904 82.8956 185.729 82.2703 186.228 81.3103C186.714 80.4071 186.957 79.3633 186.95 78.3388C186.932 77.8274 187.674 77.7791 187.72 78.2905Z" fill="#390176"/>
<path d="M192.591 76.565C192.892 77.1012 193.385 77.4724 193.884 77.8193C193.935 77.8608 193.944 77.9362 193.902 77.9879C193.88 78.0154 193.848 78.0306 193.815 78.0325C193.629 78.0424 193.44 78.0213 193.258 77.9716C192.791 77.8456 192.363 77.556 192.065 77.1716C191.999 77.0855 191.938 76.9903 191.892 76.8907C191.683 76.415 192.356 76.1035 192.591 76.565Z" fill="#390176"/>
<path d="M194.444 73.3004C194.698 72.7999 194.908 72.1867 195.098 71.6228C195.292 71.0207 195.51 70.4262 195.617 69.7965C195.839 68.5388 195.824 67.2235 195.687 65.9455C195.683 65.9167 195.703 65.8893 195.732 65.8861C195.757 65.8832 195.78 65.8985 195.787 65.9213C195.996 66.5521 196.135 67.2025 196.226 67.8645C196.355 68.8627 196.362 69.9058 196.14 70.9034C195.901 71.8721 195.658 72.8782 195.094 73.7214C194.791 74.2166 194.095 73.7695 194.444 73.3004Z" fill="#390176"/>
<path d="M179.219 86.9156C177.258 86.9156 175.357 86.2733 174.07 84.8148C172.282 82.7886 173.071 81.6064 173.355 81.2924C173.965 80.6178 175.101 80.4936 175.836 81.0215C176.286 81.3451 176.557 81.7634 176.796 82.1326C177.232 82.8044 177.471 83.1746 178.525 82.8436C179.043 82.6808 179.3 82.3054 179.289 81.7276C179.271 80.7718 178.448 79.4877 177.297 79.1731C176.595 78.9812 176.004 78.9833 175.379 78.9863C174.252 78.9922 173.087 78.996 171.345 77.843C169.607 76.6919 168.978 74.6681 168.969 73.1579C168.962 72.0061 169.302 71.0846 169.879 70.6929C170.332 70.3849 170.802 70.2801 171.276 70.3812C172.022 70.5408 172.726 71.1919 173.49 72.4303C173.761 72.8704 173.901 72.8834 173.903 72.8834C173.904 72.8835 173.904 72.8836 173.905 72.8836C174.014 72.8836 174.286 72.5394 174.432 72.3537C174.571 72.1769 174.716 71.9941 174.88 71.8303C175.401 71.3127 176.111 71.3445 176.738 71.3724C177.128 71.3897 177.497 71.4064 177.783 71.2992C178.271 71.1157 179.188 69.7112 179.709 68.7324C179.76 68.2061 180.059 65.2442 180.485 63.4657C180.545 63.2185 180.611 62.9593 180.679 62.6941C181.06 61.2023 181.583 59.1592 180.771 58.7877C180.371 58.6049 179.831 58.6034 179.308 58.602C178.358 58.5993 177.177 58.596 176.759 57.3292C176.326 56.0134 177.555 53.9175 178.716 53.4897C179.313 53.2698 179.839 53.5141 180.09 54.1277C180.513 55.1625 180.832 55.4331 181.025 55.4778C181.184 55.5146 181.398 55.4143 181.661 55.18C182.283 54.6264 183.165 54.3889 183.909 54.5745C184.435 54.706 184.82 55.0365 184.993 55.5052C185.186 56.0285 184.971 56.7606 184.763 57.4686C184.651 57.8505 184.444 58.5563 184.528 58.7258C184.536 58.7285 184.554 58.7326 184.583 58.7343C184.717 58.7422 184.867 58.7428 185.025 58.7433C185.724 58.7459 186.595 58.7491 187.138 59.3993C187.581 59.9303 187.692 60.7761 187.477 61.9851C187.225 63.4071 186.253 64.7922 185.224 66.2585C183.868 68.1908 182.466 70.1889 182.62 72.4015C182.827 75.3952 185.748 77.1295 186.956 77.7218C186.953 77.1603 186.927 76.2145 186.819 74.9962C186.717 73.8503 187.188 72.8792 188.05 72.4618C188.804 72.0967 189.664 72.2414 190.296 72.8389C191.161 73.6576 191.969 75.2257 192.357 76.0479C193.428 74.8931 194.661 73.3037 194.606 72.7021C194.554 72.1324 193.995 71.1506 193.347 70.0138C192.793 69.0409 192.165 67.9382 191.598 66.6833C191.109 65.5989 191.058 64.7234 191.448 64.081C191.779 63.534 192.342 63.3143 192.705 63.227C192.891 60.3691 193.887 59.0426 194.705 58.431C195.068 58.1595 195.548 58.1461 195.928 58.3974C196.298 58.6419 196.47 59.0748 196.366 59.5002C195.074 64.793 198.796 68.6433 199.225 69.0649C199.596 69.4298 199.979 69.8586 200.363 70.3396C201.141 71.3135 201.362 72.5838 200.954 73.7376C200.328 75.5048 198.857 78.1083 195.402 80.4758C190.198 84.0416 185.81 84.8144 185.037 84.9272C183.479 86.1825 181.315 86.9156 179.219 86.9156ZM174.771 81.4651C174.454 81.4651 174.131 81.5848 173.927 81.8102C173.458 82.3282 173.728 83.2607 174.649 84.3044C177.052 87.0282 181.901 86.5287 184.631 84.2627C184.688 84.2154 184.758 84.1855 184.832 84.1766C184.894 84.1689 189.527 83.5665 194.966 79.8392C198.25 77.5893 199.639 75.1392 200.226 73.48C200.545 72.5793 200.371 71.5854 199.76 70.8212C199.395 70.3641 199.033 69.9583 198.684 69.6149C198.223 69.1618 194.223 65.0238 195.616 59.3172C195.654 59.161 195.549 59.0719 195.502 59.0409C195.462 59.0141 195.318 58.9355 195.167 59.0489C194.453 59.5823 193.578 60.8001 193.459 63.5722C193.45 63.7702 193.293 63.9295 193.095 63.9408C193.09 63.9412 192.4 63.9932 192.105 64.4849C191.862 64.8913 191.93 65.5417 192.302 66.3658C192.853 67.5878 193.472 68.6737 194.018 69.6318C194.738 70.8967 195.307 71.8958 195.374 72.632C195.491 73.9058 193.014 76.4927 192.517 76.9984C192.426 77.0903 192.296 77.131 192.17 77.1069C192.043 77.0828 191.937 76.9972 191.887 76.8786C191.876 76.854 190.83 74.4059 189.766 73.3994C189.373 73.0275 188.844 72.9344 188.387 73.156C187.812 73.4344 187.513 74.0967 187.587 74.9276C187.772 77.0018 187.723 78.2774 187.721 78.3306C187.715 78.4544 187.651 78.5683 187.548 78.6366C187.444 78.7051 187.314 78.7195 187.199 78.6754C186.992 78.5973 182.145 76.7133 181.85 72.4548C181.677 69.9695 183.226 67.7625 184.592 65.8153C185.571 64.4209 186.495 63.1038 186.717 61.8501C186.888 60.8925 186.83 60.2343 186.545 59.8937C186.233 59.5193 185.617 59.517 185.022 59.5148C184.853 59.5142 184.693 59.5136 184.538 59.5045C184.188 59.484 183.998 59.3151 183.901 59.1771C183.588 58.7331 183.79 58.0464 184.023 57.2514C184.179 56.7188 184.373 56.0561 184.269 55.7721C184.164 55.4877 183.913 55.3709 183.722 55.323C183.233 55.201 182.597 55.3791 182.174 55.756C181.707 56.1724 181.274 56.327 180.851 56.2294C180.289 56.0993 179.834 55.5411 179.376 54.4195C179.271 54.1618 179.161 54.1478 178.983 54.2136C178.246 54.4853 177.178 56.1338 177.492 57.0876C177.724 57.7917 178.304 57.8275 179.31 57.8303C179.915 57.832 180.54 57.8338 181.092 58.086C182.49 58.7258 181.925 60.9356 181.426 62.8852C181.359 63.1465 181.294 63.4019 181.236 63.6455C180.789 65.5083 180.473 68.8475 180.469 68.881C180.465 68.9309 180.45 68.9794 180.427 69.0238C180.198 69.4616 179.007 71.6635 178.054 72.0214C177.621 72.1841 177.154 72.1633 176.703 72.1431C176.168 72.1191 175.705 72.0984 175.424 72.3776C175.292 72.5085 175.163 72.6726 175.038 72.8313C174.708 73.25 174.362 73.6822 173.858 73.6537C173.375 73.6259 173.042 73.1733 172.833 72.8354C172.205 71.817 171.627 71.2451 171.114 71.1357C170.851 71.0794 170.589 71.1433 170.313 71.331C170.024 71.5274 169.735 72.1669 169.741 73.1533C169.748 74.4646 170.286 76.2162 171.771 77.1996C173.318 78.2235 174.317 78.2185 175.376 78.2148C176.025 78.2117 176.697 78.2092 177.5 78.4288C179.051 78.8524 180.037 80.4634 180.06 81.713C180.078 82.6333 179.602 83.3136 178.756 83.5795C177.143 84.0866 176.615 83.2716 176.149 82.5523C175.937 82.225 175.717 81.8867 175.385 81.6479C175.213 81.5244 174.994 81.4651 174.771 81.4651Z" fill="#390176"/>
<path d="M207.803 53.8123C207.649 55.2659 206.671 56.5108 205.295 57.0075C202.783 57.9143 197.587 58.6197 188.157 55.4795C179.707 52.6638 176.051 48.2372 174.575 45.6791C173.611 44.0095 173.986 41.8688 175.51 40.6874C175.794 40.4677 175.99 40.3774 175.99 40.3774C175.99 40.3774 177.163 38.8457 178.307 38.6187C179.449 38.3917 180.822 38.7237 180.822 38.7237C180.822 38.7237 203.101 46.2857 205.482 47.6734C207.41 48.7974 207.701 50.8478 207.742 51.5874C207.751 51.7619 207.747 51.8632 207.747 51.8632C207.868 52.5686 207.864 53.2338 207.803 53.8123Z" fill="#8C5242"/>
<path d="M207.803 53.8123C207.649 55.2659 206.671 56.5107 205.295 57.0075C202.783 57.9143 197.587 58.6197 188.157 55.4794C179.707 52.6638 176.051 48.2372 174.575 45.6791C173.611 44.0095 173.986 41.8688 175.51 40.6874C175.794 40.4677 175.99 40.3774 175.99 40.3774C175.99 40.3774 174.919 42.2789 177.732 44.9785C180.546 47.6782 182.492 49.9568 189.961 52.5454C197.183 55.0474 206.463 56.4729 207.742 51.5874C207.751 51.7619 207.747 51.8632 207.747 51.8632C207.868 52.5686 207.864 53.2338 207.803 53.8123Z" fill="#723A2D"/>
<path d="M181.589 45.1811C181.589 45.1811 185.711 50.8487 196.443 53.076C204.976 54.8468 208.041 52.8128 207.746 50.5418C207.452 48.271 206.122 48.1583 206.122 48.1583L181.589 45.1811Z" fill="#B27962"/>
<path d="M176.311 40.5808C175.891 41.6451 176.773 43.2321 177.384 44.1433C177.46 44.2517 177.671 44.5507 177.745 44.6569C177.965 44.9282 178.172 45.2172 178.397 45.4848C178.578 45.703 178.759 45.9221 178.933 46.1497C178.998 46.232 178.883 46.3464 178.801 46.275C178.311 45.8674 177.84 45.4015 177.413 44.9269C176.695 44.0859 176.036 43.2065 175.674 42.137C175.523 41.6869 175.44 41.2038 175.502 40.7252C175.526 40.5385 175.575 40.3424 175.669 40.1749C175.948 39.7593 176.568 40.1501 176.311 40.5808Z" fill="#390176"/>
<path d="M184.548 50.26C188.797 52.1809 193.269 53.6605 197.913 54.2031C200.52 54.4926 204.582 54.6896 206.652 52.8862C206.987 52.5711 207.245 52.1904 207.383 51.7524C207.443 51.5476 207.662 51.4319 207.865 51.4985C208.063 51.5631 208.172 51.775 208.11 51.973C207.938 52.5372 207.603 53.0495 207.176 53.4488C203.443 56.6936 194.457 54.5419 190.162 53.0714C188.182 52.3705 186.199 51.6093 184.468 50.3933C184.433 50.3683 184.425 50.3196 184.45 50.2846C184.473 50.2529 184.514 50.2434 184.548 50.26Z" fill="#390176"/>
<path d="M200.179 58.164C197.216 58.1641 193.258 57.5782 188.038 55.8394C179.383 52.9564 175.682 48.3552 174.246 45.869C173.182 44.0258 173.625 41.6695 175.277 40.388C175.482 40.2295 175.647 40.1303 175.743 40.0781C176.001 39.7592 177.099 38.4712 178.233 38.2463C179.444 38.0064 180.852 38.341 180.912 38.3553C180.923 38.3579 180.934 38.3611 180.944 38.3648C181.856 38.674 203.286 45.9545 205.674 47.3458C208.088 48.7531 208.133 51.4486 208.127 51.836C208.235 52.4878 208.253 53.166 208.181 53.8526C208.013 55.4418 206.931 56.8202 205.424 57.3643C204.196 57.8078 202.49 58.164 200.179 58.164ZM176.148 40.7234C176.148 40.7234 175.982 40.8022 175.743 40.9879C174.389 42.038 174.028 43.9731 174.904 45.4893C176.286 47.8822 179.861 52.3153 188.278 55.119C197.841 58.3041 202.964 57.4455 205.167 56.6501C206.402 56.2041 207.288 55.0748 207.426 53.7729C207.492 53.1426 207.474 52.5215 207.372 51.9269C207.368 51.9005 207.366 51.8738 207.367 51.847C207.371 51.7425 207.439 49.2537 205.291 48.0018C202.998 46.6652 181.458 39.3412 180.718 39.0898C180.57 39.0561 179.365 38.7962 178.381 38.991C177.559 39.1541 176.594 40.2141 176.292 40.6089C176.254 40.6582 176.205 40.6975 176.148 40.7234Z" fill="#390176"/>
<path d="M205.133 46.1851C205.038 46.4458 204.845 46.6622 204.566 46.8356C202.824 47.9239 197.73 47.3456 192.142 45.2955C186.552 43.2442 182.292 40.3918 181.669 38.4354C181.568 38.1229 181.561 37.8331 181.656 37.5736C181.725 37.3863 181.844 37.2218 182.009 37.0801L182.021 37.0712C183.536 35.7881 188.821 36.3259 194.648 38.4633C200.476 40.6019 204.859 43.6125 205.18 45.5689L205.183 45.579C205.217 45.7954 205.202 45.9978 205.133 46.1851Z" fill="#8C5242"/>
<path d="M206.043 49.8841C205.233 52.0924 197.732 52.2855 190.121 49.5666C180.728 46.2108 177.76 42.0155 178.57 39.8072C178.665 39.5478 178.843 39.3251 179.095 39.1403L179.197 39.0682L182.009 37.0802C181.844 37.2219 181.725 37.3864 181.656 37.5737C181.561 37.8331 181.568 38.1229 181.669 38.4355C182.291 40.3919 186.552 43.2443 192.142 45.2956C197.73 47.3456 202.824 47.9239 204.566 46.8356C204.845 46.6623 205.038 46.4459 205.133 46.1852C205.202 45.9979 205.217 45.7954 205.183 45.579L205.954 48.6706L206.119 49.3299V49.3311C206.132 49.526 206.106 49.7108 206.043 49.8841Z" fill="#723A2D"/>
<path d="M205.183 45.579L205.18 45.5689C204.859 43.6125 200.476 40.6019 194.648 38.4633C189.23 36.4758 184.282 35.8724 182.396 36.829C184.809 36.5775 188.809 37.2826 193.103 38.8582C198.932 40.9969 203.315 44.0074 203.636 45.9638L203.638 45.9739C203.673 46.1903 203.657 46.3928 203.589 46.5801C203.494 46.8408 203.301 47.0572 203.022 47.2305C202.97 47.2634 202.914 47.2946 202.855 47.3244C203.58 47.2485 204.164 47.0871 204.566 46.8356C204.845 46.6622 205.038 46.4459 205.133 46.1852C205.202 45.9979 205.217 45.7954 205.183 45.579Z" fill="#B27962"/>
<path d="M201.809 47.7493C199.283 47.7493 195.73 47.0164 192.011 45.6519C186.382 43.5861 181.98 40.6659 181.307 38.5505C181.179 38.1542 181.176 37.7811 181.3 37.4432C181.39 37.1965 181.546 36.9771 181.763 36.7916C181.767 36.7876 181.772 36.7838 181.777 36.78L181.782 36.776C183.46 35.3678 188.801 35.914 194.778 38.1069C200.757 40.3005 205.182 43.3362 205.553 45.4948C205.554 45.5038 205.556 45.5134 205.557 45.5196C205.602 45.8021 205.579 46.0697 205.49 46.3151C205.367 46.6519 205.124 46.9355 204.767 47.1579C204.128 47.5567 203.104 47.7493 201.809 47.7493ZM182.25 37.3742C182.135 37.4737 182.057 37.5816 182.013 37.7039C181.949 37.8789 181.955 38.0855 182.03 38.3184C182.543 39.9295 186.225 42.7198 192.273 44.9391C198.316 47.1562 202.931 47.4093 204.365 46.5136C204.575 46.3829 204.713 46.2288 204.776 46.0552C204.776 46.0552 204.776 46.0551 204.777 46.055C204.821 45.9336 204.832 45.8012 204.809 45.6503C204.808 45.6429 204.806 45.6355 204.805 45.6304C204.548 44.0644 200.855 41.1452 194.517 38.8197C188.184 36.4965 183.478 36.334 182.266 37.361C182.262 37.3645 182.258 37.368 182.253 37.3714L182.25 37.3742Z" fill="#390176"/>
<path d="M200.536 52.051C197.679 52.051 194.03 51.4482 190.217 50.0085L190.148 49.9822C188.582 49.3912 187.451 48.9641 186.43 48.5046C180.357 45.7716 177.437 41.7942 178.213 39.6764C178.333 39.3499 178.554 39.0663 178.87 38.8342L181.79 36.7701C181.956 36.653 182.184 36.6868 182.309 36.847C182.433 37.007 182.41 37.2369 182.256 37.3687C182.138 37.4697 182.058 37.5793 182.013 37.7039C181.949 37.8788 181.955 38.0855 182.03 38.3184C182.543 39.9295 186.225 42.7198 192.273 44.9391C198.316 47.1562 202.931 47.4092 204.365 46.5136C204.575 46.3829 204.713 46.2288 204.777 46.0552C204.822 45.9304 204.832 45.7941 204.808 45.6384C204.776 45.4377 204.908 45.2475 205.107 45.207C205.305 45.1664 205.502 45.2899 205.551 45.487L206.487 49.2379C206.494 49.2629 206.497 49.2884 206.498 49.314C206.513 49.5589 206.48 49.7945 206.4 50.0144C206.205 50.545 205.734 50.9841 205 51.32C203.985 51.7843 202.435 52.0508 200.536 52.051ZM181.215 38.1066L179.313 39.4507C179.126 39.5884 178.994 39.7537 178.926 39.9376C178.366 41.4664 180.826 45.15 186.742 47.8122C187.741 48.2621 188.863 48.6857 190.416 49.2719L190.485 49.2981C196.574 51.597 202.345 51.6998 204.684 50.6295C205.22 50.3845 205.566 50.0816 205.687 49.7534C205.729 49.6383 205.747 49.5176 205.742 49.3859L205.117 46.8851C205.017 46.9842 204.9 47.0752 204.767 47.1578C202.882 48.3348 197.637 47.7157 192.011 45.6519C186.382 43.586 181.98 40.6659 181.307 38.5505C181.258 38.3989 181.227 38.2508 181.215 38.1066Z" fill="#390176"/>
<path d="M169.497 78.5649C169.826 78.2396 170.341 78.1834 170.738 78.4204C171.168 78.6767 171.659 79.1448 171.741 79.9648C171.893 81.471 170.191 82.4579 169.214 80.7713C168.621 79.7473 169.061 78.9967 169.497 78.5649Z" fill="#FFF5DC"/>
<path d="M168.947 79.5584C168.947 79.5584 169.587 80.6396 170.558 80.4093C171.529 80.1789 171.48 79.1485 171.48 79.1485C171.48 79.1485 172.477 81.7109 170.613 81.6443C168.748 81.5776 168.947 79.5584 168.947 79.5584Z" fill="#EDCD96"/>
<path d="M170.475 82.0382C169.948 82.0382 169.34 81.7582 168.881 80.9646C168.327 80.0082 168.45 79.0584 169.226 78.2905C169.68 77.8422 170.383 77.7592 170.936 78.0889C171.423 78.3796 172.026 78.9342 172.125 79.9261C172.219 80.8541 171.714 81.7128 170.924 81.9679C170.786 82.0126 170.634 82.0382 170.475 82.0382ZM170.211 78.6617C170.048 78.6617 169.887 78.7224 169.769 78.8391C169.769 78.8391 169.769 78.8391 169.769 78.8392C169.244 79.3583 169.172 79.9271 169.549 80.5778C169.866 81.1258 170.281 81.3654 170.687 81.2338C171.069 81.1102 171.423 80.6478 171.358 80.0032C171.303 79.4635 171.029 79.0424 170.541 78.7517C170.439 78.6912 170.325 78.6617 170.211 78.6617Z" fill="#390176"/>
<path d="M201.582 67.173C201.121 67.2171 200.687 66.9355 200.529 66.5006C200.358 66.0303 200.273 65.3574 200.728 64.6698C201.562 63.4069 203.505 63.7179 203.195 65.6423C203.008 66.8106 202.193 67.1146 201.582 67.173Z" fill="#FFF5DC"/>
<path d="M202.803 64.1843C202.814 64.3465 202.807 64.5244 202.776 64.7198C202.588 65.8882 201.773 66.1921 201.162 66.2506C200.882 66.2774 200.612 66.1833 200.408 66.0081C200.431 66.1881 200.475 66.3542 200.529 66.5007C200.687 66.9355 201.121 67.2172 201.581 67.1731C202.193 67.1146 203.008 66.8107 203.195 65.6423C203.308 64.9443 203.123 64.4597 202.803 64.1843Z" fill="#EDCD96"/>
<path d="M201.485 67.5633C200.901 67.5633 200.371 67.1951 200.166 66.6324C199.972 66.0991 199.856 65.2888 200.406 64.457C200.92 63.679 201.854 63.3328 202.627 63.6341C203.21 63.8613 203.766 64.5243 203.576 65.7034C203.401 66.7946 202.705 67.4529 201.618 67.557C201.574 67.5612 201.529 67.5633 201.485 67.5633ZM202.041 64.2981C201.706 64.2981 201.319 64.4751 201.049 64.8824C200.75 65.3351 200.697 65.8351 200.891 66.3686C200.989 66.6389 201.263 66.8155 201.545 66.7889C202.28 66.7186 202.695 66.3234 202.814 65.5809C202.915 64.9555 202.744 64.5079 202.347 64.3529C202.255 64.317 202.151 64.2981 202.041 64.2981Z" fill="#390176"/>
<path d="M174.375 53.0685C173.844 53.0275 173.277 52.5834 173.001 52.0045C172.702 51.3785 172.463 50.5164 172.851 49.7484C173.565 48.3378 175.905 49.1341 175.945 51.4846C175.969 52.9117 175.078 53.1228 174.375 53.0685Z" fill="#FFF5DC"/>
<path d="M175.319 49.7173C175.443 49.9747 175.521 50.2836 175.527 50.6418C175.546 51.7072 174.88 51.8649 174.355 51.8243C173.959 51.7938 173.536 51.4621 173.329 51.03C173.106 50.5625 172.928 49.9189 173.218 49.3455C173.232 49.3178 173.247 49.2918 173.263 49.2663C173.099 49.3805 172.957 49.5397 172.851 49.7484C172.463 50.5164 172.702 51.3784 173.001 52.0045C173.277 52.5833 173.844 53.0275 174.375 53.0685C175.078 53.1228 175.969 52.9116 175.945 51.4845C175.932 50.7258 175.679 50.1302 175.319 49.7173Z" fill="#EDCD96"/>
<path d="M174.561 53.4617C174.49 53.4617 174.418 53.4589 174.345 53.4532C173.684 53.4022 172.988 52.8748 172.652 52.1707C172.189 51.1998 172.139 50.302 172.507 49.5744C172.864 48.8692 173.605 48.5306 174.396 48.7123C175.309 48.9218 176.303 49.8767 176.33 51.4781C176.342 52.1637 176.163 52.6854 175.799 53.0284C175.496 53.3136 175.071 53.4617 174.561 53.4617ZM174.404 52.684C174.793 52.7139 175.085 52.6409 175.27 52.4667C175.47 52.2788 175.567 51.9506 175.559 51.4913C175.539 50.3046 174.853 49.6087 174.223 49.4643C174.009 49.4151 173.479 49.3611 173.195 49.9226C172.872 50.5623 173.1 51.3175 173.349 51.8385C173.564 52.2907 174.018 52.6541 174.404 52.684Z" fill="#390176"/>
<path d="M171.961 69.0878C171.311 69.1354 170.801 68.7388 170.441 68.2982C170.043 67.8124 169.794 67.2217 169.695 66.6005C169.549 65.6949 169.396 64.0204 170.103 62.9611C170.281 62.6926 170.514 62.4643 170.817 62.2971C172.647 61.2878 172.727 63.2223 173.038 63.9386C173.064 63.9984 173.092 64.0485 173.121 64.0888C173.197 64.1901 173.313 64.2291 173.456 64.2352C174.037 64.2608 175.053 63.747 175.462 64.699C175.479 64.7368 175.495 64.7784 175.51 64.8223C175.97 66.2051 173.663 68.9634 171.961 69.0878Z" fill="#FFF5DC"/>
<path d="M171.961 69.0878C171.311 69.1354 170.801 68.7388 170.441 68.2982C170.043 67.8124 169.794 67.2217 169.695 66.6005C169.549 65.6949 169.396 64.0204 170.103 62.961C170.134 62.9635 170.151 62.9659 170.151 62.9659C170.151 62.9659 169.291 65.7803 170.591 66.0598C171.891 66.3393 172.813 63.8386 172.813 63.8386C172.813 63.8386 172.915 63.8813 173.038 63.9387C173.243 64.0351 173.507 64.1742 173.456 64.2352C173.373 64.3316 172.081 66.0269 172.571 66.9972C173.059 67.9686 175.264 66.2246 175.412 64.9822C175.424 64.8784 175.441 64.7844 175.462 64.699C175.479 64.7368 175.495 64.7783 175.51 64.8223C175.97 66.2051 173.663 68.9633 171.961 69.0878Z" fill="#EDCD96"/>
<path d="M171.856 69.4778C171.235 69.4778 170.645 69.1569 170.143 68.5431C169.715 68.0199 169.428 67.3694 169.314 66.6622C168.935 64.3073 169.403 62.6372 170.631 61.9596C171.253 61.6167 171.767 61.5382 172.203 61.7195C172.863 61.9935 173.086 62.7737 173.25 63.3433C173.303 63.529 173.368 63.7574 173.421 63.8445C173.506 63.8664 173.746 63.8278 173.907 63.8017C174.46 63.7121 175.491 63.5455 175.876 64.7006C176.164 65.5659 175.611 66.5903 175.255 67.1239C174.542 68.1923 173.217 69.3832 171.989 69.473C171.945 69.4762 171.9 69.4778 171.856 69.4778ZM171.72 62.398C171.489 62.398 171.215 62.5187 171.004 62.6351C169.76 63.3213 169.889 65.3759 170.076 66.5396C170.168 67.1125 170.398 67.6363 170.74 68.0544C171.117 68.5155 171.52 68.7341 171.933 68.7035C172.75 68.6437 173.877 67.7994 174.613 66.696C175.078 65.9979 175.277 65.3432 175.144 64.9447C174.982 64.4579 174.709 64.4534 174.03 64.5634C173.596 64.6334 173.104 64.7132 172.811 64.3188C172.673 64.1331 172.597 63.8656 172.508 63.5559C172.381 63.1137 172.224 62.5634 171.908 62.432C171.85 62.4083 171.787 62.398 171.72 62.398Z" fill="#390176"/>
<path d="M170.236 59.3096C171.12 57.2669 169.516 54.6077 166.655 53.37C163.794 52.1324 160.758 52.785 159.875 54.8277C158.991 56.8704 160.594 59.5296 163.455 60.7673C166.317 62.0049 169.352 61.3523 170.236 59.3096Z" fill="#CC8A5E"/>
<path d="M170.181 60.0137C170.184 60.2236 170.017 60.3957 169.807 60.3981H169.802C169.7 60.3981 169.609 60.3591 169.542 60.2956C169.469 60.2273 169.423 60.1309 169.422 60.0234C169.416 59.5255 169.409 58.9433 168.965 58.4576C168.457 57.8986 167.372 57.4702 165.053 57.4482C163.203 57.4312 161.986 57.0186 161.188 56.5072C160.375 55.9885 159.995 55.3698 159.822 54.9633C159.719 54.7241 159.69 54.5594 159.685 54.5325C159.651 54.325 159.791 54.1298 159.999 54.0956C160.101 54.0785 160.2 54.1041 160.278 54.1591C160.359 54.2152 160.416 54.3018 160.435 54.4056C160.442 54.4446 160.518 54.8059 160.866 55.2306C161.395 55.8763 162.553 56.6659 165.059 56.6891C167.361 56.7098 168.669 57.1126 169.386 57.7948C169.862 58.2464 170.076 58.8212 170.151 59.4888C170.169 59.6586 170.179 59.8331 170.181 60.0137Z" fill="#994722"/>
<path d="M162.433 52.891C161.806 53.173 161.318 53.6209 161.06 54.2189C160.92 54.5411 160.858 54.8829 160.865 55.2307C160.518 54.8059 160.442 54.4447 160.435 54.4056C160.416 54.3019 160.359 54.2152 160.278 54.1591C160.781 53.5306 161.538 53.101 162.433 52.891Z" fill="#BF723D"/>
<path d="M170.236 59.3107C170.209 59.3717 170.181 59.4315 170.151 59.4889C170.076 58.8213 169.861 58.2465 169.385 57.7949C169.802 56.8075 169.498 55.6432 168.69 54.6583C170.206 56.013 170.879 57.8242 170.236 59.3107Z" fill="#BF723D"/>
<path d="M169.542 60.2956C168.238 61.5295 165.789 61.7772 163.456 60.7679C160.657 59.5572 159.063 56.9869 159.822 54.9634C159.995 55.3698 160.375 55.9886 161.188 56.5073C161.662 57.5007 162.636 58.4258 163.934 58.986C165.897 59.8355 167.964 59.5755 168.964 58.4576C169.409 58.9433 169.416 59.5255 169.422 60.0234C169.423 60.1308 169.468 60.2272 169.542 60.2956Z" fill="#BF723D"/>
<path d="M160.865 55.2307C160.874 55.653 160.985 56.0862 161.188 56.5073C160.375 55.9886 159.995 55.3698 159.822 54.9634C159.838 54.9182 159.856 54.8731 159.876 54.8279C159.981 54.585 160.117 54.3617 160.278 54.1591C160.359 54.2152 160.416 54.3019 160.435 54.4056C160.442 54.4447 160.518 54.806 160.865 55.2307Z" fill="#6B2C12"/>
<path d="M170.151 59.4889C169.996 59.7928 169.79 60.0613 169.542 60.2956C169.469 60.2272 169.423 60.1308 169.422 60.0234C169.416 59.5255 169.409 58.9433 168.964 58.4576C169.135 58.2684 169.274 58.0548 169.377 57.8168C169.381 57.8095 169.383 57.8022 169.386 57.7948C169.862 58.2464 170.076 58.8213 170.151 59.4889Z" fill="#6B2C12"/>
<g opacity="0.3">
<path d="M161.93 54.9466C161.604 54.455 161.885 53.7851 162.463 53.6679C163.323 53.4938 164.668 53.4445 166.265 54.1642C167.463 54.7045 168.234 55.2943 168.723 55.7916C169.209 56.2857 168.92 57.1259 168.232 57.2124C167.316 57.3276 166.424 57.1233 165.066 56.7159C163.637 56.2874 162.388 55.6364 161.93 54.9466Z" fill="white"/>
</g>
<path d="M166.364 61.8381C165.354 61.8381 164.295 61.6131 163.28 61.1743C161.812 60.5394 160.606 59.5288 159.882 58.3285C159.13 57.0807 158.983 55.7752 159.469 54.6523C159.955 53.5294 161.007 52.7423 162.431 52.4361C163.801 52.1417 165.364 52.3292 166.832 52.964C169.913 54.2966 171.622 57.2224 170.643 59.486C170.157 60.6089 169.106 61.396 167.681 61.7021C167.258 61.7931 166.816 61.8381 166.364 61.8381ZM163.75 53.1855C163.36 53.1855 162.98 53.2241 162.617 53.3022C161.48 53.5466 160.651 54.151 160.282 55.004C159.913 55.857 160.04 56.8752 160.641 57.8712C161.27 58.9147 162.332 59.799 163.632 60.3613C164.932 60.9236 166.304 61.0923 167.495 60.8361C168.632 60.5917 169.461 59.9873 169.83 59.1344C170.615 57.319 169.112 54.9157 166.48 53.777C165.577 53.3862 164.638 53.1855 163.75 53.1855Z" fill="#390176"/>
<path d="M175.52 107.268C179.271 106.629 181.942 103.94 181.486 101.262C181.03 98.5842 177.62 96.9312 173.868 97.57C170.117 98.2089 167.446 100.898 167.902 103.576C168.359 106.254 171.769 107.907 175.52 107.268Z" fill="#CC8A5E"/>
<path d="M181.901 102.017C182.044 102.23 181.987 102.517 181.774 102.659L181.769 102.663C181.665 102.73 181.546 102.751 181.435 102.731C181.314 102.71 181.204 102.641 181.131 102.532C180.793 102.027 180.398 101.436 179.62 101.235C178.729 101.001 177.334 101.285 174.947 102.807C173.043 104.022 171.523 104.41 170.366 104.418C169.19 104.429 168.389 104.049 167.941 103.748C167.677 103.572 167.538 103.423 167.515 103.399C167.342 103.209 167.355 102.916 167.545 102.743C167.638 102.657 167.756 102.617 167.873 102.622C167.993 102.625 168.109 102.676 168.197 102.77C168.23 102.805 168.548 103.124 169.187 103.327C170.159 103.635 171.869 103.671 174.448 102.026C176.816 100.515 178.423 100.056 179.61 100.277C180.398 100.422 181 100.867 181.521 101.5C181.652 101.661 181.779 101.833 181.901 102.017Z" fill="#994722"/>
<path d="M169.232 99.89C168.779 100.595 168.578 101.379 168.712 102.163C168.784 102.585 168.948 102.976 169.187 103.327C168.548 103.124 168.23 102.805 168.197 102.77C168.109 102.676 167.993 102.625 167.873 102.622C167.969 101.644 168.457 100.7 169.232 99.89Z" fill="#BF723D"/>
<path d="M181.49 101.261C181.503 101.341 181.514 101.421 181.521 101.5C181 100.867 180.398 100.422 179.61 100.277C179.378 98.9896 178.292 98.0009 176.81 97.5314C179.262 97.9079 181.158 99.312 181.49 101.261Z" fill="#BF723D"/>
<path d="M181.435 102.731C180.923 104.861 178.582 106.745 175.524 107.266C171.854 107.892 168.512 106.324 167.941 103.748C168.389 104.049 169.19 104.429 170.366 104.418C171.514 105.118 173.126 105.416 174.826 105.125C177.401 104.687 179.341 103.045 179.621 101.235C180.398 101.436 180.794 102.027 181.131 102.532C181.204 102.641 181.315 102.71 181.435 102.731Z" fill="#BF723D"/>
<path d="M169.187 103.327C169.477 103.753 169.879 104.122 170.367 104.418C169.19 104.429 168.389 104.049 167.941 103.748C167.928 103.691 167.916 103.633 167.906 103.574C167.852 103.256 167.843 102.936 167.873 102.622C167.993 102.625 168.109 102.676 168.197 102.77C168.23 102.805 168.548 103.124 169.187 103.327Z" fill="#6B2C12"/>
<path d="M181.521 101.5C181.564 101.914 181.532 102.326 181.435 102.731C181.314 102.71 181.204 102.641 181.131 102.532C180.793 102.027 180.398 101.436 179.62 101.235C179.669 100.928 179.669 100.617 179.616 100.305C179.615 100.295 179.612 100.286 179.61 100.277C180.397 100.422 181 100.867 181.521 101.5Z" fill="#6B2C12"/>
<g opacity="0.3">
<path d="M170.087 102.327C169.425 102.042 169.267 101.169 169.781 100.664C170.544 99.9139 171.887 98.9676 174 98.6407C175.586 98.3953 176.767 98.4857 177.598 98.6687C178.424 98.8507 178.688 99.9027 178.042 100.449C177.181 101.177 176.133 101.562 174.472 102.05C172.726 102.562 171.015 102.728 170.087 102.327Z" fill="white"/>
</g>
<path d="M173.936 107.942C170.597 107.942 167.807 106.215 167.373 103.665C167.122 102.193 167.674 100.687 168.927 99.4257C170.133 98.2121 171.856 97.3631 173.781 97.0353C177.819 96.3475 181.517 98.2018 182.022 101.169C182.528 104.137 179.653 107.111 175.614 107.799C175.046 107.896 174.483 107.942 173.936 107.942ZM173.962 98.1012C172.258 98.3916 170.743 99.1325 169.694 100.188C168.694 101.195 168.248 102.365 168.439 103.483C168.844 105.863 171.981 107.321 175.433 106.733C178.884 106.145 181.362 103.731 180.957 101.351C180.551 98.9713 177.413 97.5136 173.962 98.1012Z" fill="#390176"/>
<path d="M216.161 70.1887C218.382 67.0772 218.382 63.2693 216.16 61.6835C213.939 60.0978 210.337 61.3347 208.116 64.4462C205.895 67.5577 205.895 71.3656 208.117 72.9514C210.338 74.5371 213.939 73.3003 216.161 70.1887Z" fill="#CC8A5E"/>
<path d="M216.99 61.9318C217.242 61.9829 217.405 62.2277 217.354 62.4801L217.353 62.4859C217.327 62.6074 217.256 62.707 217.163 62.7712C217.062 62.8414 216.935 62.8707 216.806 62.8445C216.207 62.7235 215.508 62.5822 214.811 62.9897C214.01 63.4544 213.216 64.6448 212.593 67.4194C212.095 69.6333 211.287 70.9859 210.468 71.8111C209.637 72.652 208.797 72.9477 208.265 73.0507C207.952 73.112 207.747 73.1046 207.714 73.1036C207.456 73.0911 207.258 72.8725 207.271 72.6149C207.277 72.4876 207.333 72.3757 207.419 72.2962C207.507 72.2141 207.626 72.1676 207.755 72.1724C207.803 72.1737 208.256 72.1761 208.855 71.8685C209.765 71.3998 211.011 70.2146 211.684 67.2165C212.302 64.4621 213.122 62.9972 214.125 62.3141C214.789 61.8597 215.533 61.7503 216.353 61.8331C216.561 61.8549 216.773 61.8882 216.99 61.9318Z" fill="#994722"/>
<path d="M206.453 69.3868C206.63 70.2101 207.041 70.9108 207.692 71.3751C208.042 71.625 208.436 71.7876 208.855 71.8685C208.256 72.1761 207.803 72.1737 207.755 72.1724C207.626 72.1677 207.507 72.2141 207.419 72.2962C206.795 71.5314 206.475 70.5134 206.453 69.3868Z" fill="#BF723D"/>
<path d="M216.161 61.6848C216.228 61.7327 216.292 61.7818 216.353 61.8331C215.533 61.7503 214.789 61.8598 214.125 62.3141C213.048 61.5607 211.574 61.625 210.185 62.3399C212.2 60.8716 214.545 60.5306 216.161 61.6848Z" fill="#BF723D"/>
<path d="M217.163 62.7712C218.307 64.6519 217.973 67.6525 216.162 70.1888C213.988 73.2336 210.496 74.4823 208.266 73.0507C208.798 72.9477 209.637 72.652 210.469 71.8111C211.782 71.4979 213.142 70.5686 214.148 69.1575C215.673 67.022 215.893 64.4776 214.811 62.9897C215.508 62.5822 216.208 62.7235 216.806 62.8445C216.935 62.8707 217.062 62.8414 217.163 62.7712Z" fill="#BF723D"/>
<path d="M208.855 71.8685C209.363 71.9671 209.911 71.9456 210.468 71.8111C209.637 72.652 208.797 72.9477 208.265 73.0507C208.215 73.0201 208.166 72.9865 208.117 72.9514C207.853 72.763 207.62 72.5416 207.419 72.2962C207.507 72.2141 207.626 72.1677 207.755 72.1724C207.803 72.1737 208.256 72.1761 208.855 71.8685Z" fill="#6B2C12"/>
<path d="M216.353 61.8331C216.677 62.0973 216.946 62.4138 217.163 62.7712C217.062 62.8414 216.935 62.8707 216.806 62.8445C216.207 62.7235 215.508 62.5822 214.811 62.9897C214.628 62.7361 214.408 62.5143 214.149 62.33C214.141 62.3237 214.133 62.319 214.125 62.3141C214.789 61.8598 215.533 61.7504 216.353 61.8331Z" fill="#6B2C12"/>
<g opacity="0.3">
<path d="M208.789 70.5188C208.115 70.7836 207.385 70.2737 207.393 69.5501C207.406 68.4748 207.693 66.849 208.968 65.1201C209.924 63.8223 210.83 63.0506 211.552 62.5925C212.27 62.1373 213.203 62.7003 213.129 63.5468C213.031 64.6756 212.556 65.6922 211.718 67.2156C210.836 68.8175 209.734 70.1474 208.789 70.5188Z" fill="white"/>
</g>
<path d="M210.373 74.1886C209.419 74.1886 208.541 73.9216 207.801 73.394C206.58 72.5223 205.908 71.0583 205.908 69.2715C205.908 67.553 206.535 65.7273 207.675 64.1312C208.814 62.535 210.337 61.3485 211.962 60.7902C213.652 60.2099 215.255 60.3704 216.476 61.2421C217.697 62.1138 218.37 63.5778 218.37 65.3646C218.37 67.0832 217.743 68.9087 216.603 70.5049C215.464 72.1011 213.941 73.2876 212.316 73.8458C211.649 74.075 210.995 74.1886 210.373 74.1886ZM213.9 61.5354C213.398 61.5354 212.864 61.629 212.315 61.8176C210.902 62.303 209.568 63.3487 208.559 64.7623V64.7623C207.55 66.1759 206.994 67.7773 206.994 69.2715C206.994 70.6976 207.505 71.8477 208.433 72.5099C209.36 73.172 210.614 73.2816 211.963 72.8185C213.376 72.3331 214.71 71.2873 215.719 69.8738C216.728 68.4602 217.284 66.8588 217.284 65.3646C217.284 63.9385 216.773 62.7884 215.845 62.1262C215.295 61.7338 214.631 61.5354 213.9 61.5354Z" fill="#390176"/>
<rect x="271.036" width="140.625" height="150" fill="#616133"/>
<path d="M379.518 119.866C379.518 125.308 362.729 129.719 342.019 129.719C321.308 129.719 304.518 125.308 304.518 119.866C304.518 114.424 321.307 110.013 342.019 110.013C362.728 110.012 379.518 114.424 379.518 119.866Z" fill="#C49A6C"/>
<path d="M371.718 32.3412L363.858 117.465C363.858 121.261 353.835 122.38 341.471 122.38C329.106 122.38 319.084 121.26 319.084 117.465L311.223 32.3412H371.718Z" fill="#F1F1F1"/>
<path d="M370.526 54.4633C370.248 54.1583 369.854 53.9843 369.442 53.9843H313.5C313.088 53.9843 312.694 54.1583 312.416 54.4633C312.138 54.7693 312.001 55.177 312.041 55.5886L315.305 90.1219C315.376 90.8747 316.008 91.4495 316.764 91.4495H366.178C366.934 91.4495 367.566 90.8747 367.637 90.1219L370.902 55.5886C370.941 55.177 370.804 54.7684 370.526 54.4633Z" fill="#C49A6C"/>
<path d="M374.394 37.6987H308.548C307.988 37.6987 307.535 37.245 307.535 36.6848V30.3155C307.535 29.7553 307.988 29.3017 308.548 29.3017H374.394C374.953 29.3017 375.407 29.7553 375.407 30.3155V36.6848C375.406 37.245 374.953 37.6987 374.394 37.6987Z" fill="#E2E2E2"/>
<path d="M371.08 29.3027H311.863L313.026 22.5912C313.355 20.3749 315.063 18.75 317.066 18.75H365.877C367.88 18.75 369.588 20.3749 369.917 22.5912L371.08 29.3027Z" fill="#F1F1F1"/>
<path d="M339.227 70.1593C340.633 71.177 342.526 72.0276 344.853 72.6885C344.955 72.7188 347.124 73.3689 349.247 74.9048C350.888 76.0926 352.159 77.6334 352.9 79.31C354.46 75.7387 352.565 70.8339 348.692 66.4853C344.692 61.9911 339.061 60.2323 335.022 61.8826C335.301 63.7333 336.253 68.0085 339.227 70.1593Z" fill="#A07338"/>
<path d="M351.273 81.5266C351.315 81.4894 351.352 81.4513 351.392 81.4141L351.192 80.894C351.185 80.8764 351.179 80.8588 351.174 80.8403C350.671 79.2878 349.507 77.7636 347.979 76.6579C346.159 75.342 344.269 74.773 344.251 74.7671C341.691 74.0407 339.571 73.0788 337.959 71.9124C334.896 69.6971 333.535 65.7005 333.028 63.098C332.994 63.1263 332.96 63.1527 332.927 63.1821C328.975 66.6996 329.628 73.8814 334.384 79.2232C339.14 84.5661 347.322 85.0441 351.273 81.5266Z" fill="#A07338"/>
<path d="M346.48 24.1691C346.48 24.8886 345.896 25.4723 345.177 25.4723H337.356C336.636 25.4723 336.052 24.8886 336.052 24.1691C336.052 23.4495 336.636 22.8649 337.356 22.8649H345.177C345.895 22.8649 346.48 23.4486 346.48 24.1691Z" fill="#E2E2E2"/>
<path d="M263 6.02679L272.04 0.80744V11.2461L263 6.02679Z" fill="#616133"/>
<path d="M263 30.8036L273.045 25.0043V36.6028L263 30.8036Z" fill="#616133"/>
<path d="M263 56.25L273.045 50.4507V62.0493L263 56.25Z" fill="#616133"/>
<path d="M263 81.6964L273.045 75.8971V87.4957L263 81.6964Z" fill="#616133"/>
<path d="M263 107.143L273.045 101.344V112.942L263 107.143Z" fill="#616133"/>
<path d="M263 132.589L273.045 126.79V138.389L263 132.589Z" fill="#616133"/>
<path d="M263 17.4107L273.045 11.6114V23.21L263 17.4107Z" fill="#616133"/>
<path d="M263 42.8571L273.045 37.0579V48.6564L263 42.8571Z" fill="#616133"/>
<path d="M263 68.3036L273.045 62.5043V74.1028L263 68.3036Z" fill="#616133"/>
<path d="M263 93.75L273.045 87.9507V99.5493L263 93.75Z" fill="#616133"/>
<path d="M263 119.196L273.045 113.397V124.996L263 119.196Z" fill="#616133"/>
<path d="M263 143.304L273.045 137.504V149.103L263 143.304Z" fill="#616133"/>
</svg>
