<svg width="50" height="50" viewBox="0 0 50 50" fill="none" xmlns="http://www.w3.org/2000/svg">
<path d="M43.1496 29.7324C44.7895 19.3217 37.6795 9.55282 27.269 7.91294C16.8586 6.27307 7.08981 13.3832 5.4499 23.7939C3.81 34.2045 10.9199 43.9734 21.3304 45.6133C31.7409 47.2532 41.5097 40.1431 43.1496 29.7324Z" fill="#C49A6C"/>
<path d="M31.8918 42.8026C41.7205 38.998 46.604 27.9459 42.7993 18.117C38.9946 8.28812 27.9426 3.40445 18.1139 7.20905C8.28514 11.0136 3.40168 22.0658 7.20634 31.8947C11.011 41.7236 22.0631 46.6072 31.8918 42.8026Z" fill="#F1F1F1"/>
<path d="M37.5 37.5C44.4036 30.5964 44.4036 19.4036 37.5 12.5C30.5964 5.59644 19.4036 5.59644 12.5 12.5C5.59644 19.4036 5.59644 30.5964 12.5 37.5C19.4036 44.4036 30.5964 44.4036 37.5 37.5Z" fill="#E6D7BA"/>
<path d="M39.8887 19.6983L36.1147 21.6218C35.0769 22.151 33.795 21.7346 33.2658 20.6968C32.7366 19.6589 33.153 18.377 34.1908 17.8478L37.9648 15.9243C39.0027 15.3951 40.2846 15.8115 40.8138 16.8493C41.343 17.8875 40.9266 19.1694 39.8887 19.6983Z" fill="#F1F1F1"/>
<path d="M27.7981 38.289C20.4705 39.8313 13.2543 35.1239 11.7116 27.7963C10.1693 20.4687 14.8764 13.2526 22.2039 11.7102C29.5315 10.1679 36.7477 14.875 38.29 22.2025C39.8323 29.5301 35.1257 36.7466 27.7981 38.289Z" fill="#F1F1F1"/>
<path d="M27.3365 36.0946C21.2187 37.382 15.1943 33.4528 13.9068 27.335C12.619 21.2173 16.5486 15.1928 22.6663 13.905C28.7841 12.6175 34.8085 16.5468 36.096 22.6645C37.3835 28.7823 33.4539 34.8071 27.3365 36.0946Z" fill="#A07338"/>
<path d="M28.2642 20.2028C28.9445 21.5877 29.0559 23.1001 28.6782 24.5961C28.196 26.5064 27.7134 28.4167 27.2309 30.3267C25.9897 28.9616 24.0992 28.4481 22.4323 27.6574C20.7653 26.8664 19.0911 25.4313 19.1683 23.5882C19.1764 23.3904 19.2101 23.1826 19.3344 23.0284C19.4918 22.8327 19.7592 22.7659 20.0095 22.7436C21.4877 22.6123 22.8038 23.6042 23.9544 24.5418C23.9544 24.5418 22.9235 18.4101 26.2386 18.7906C26.2386 18.7906 27.5634 18.7753 28.2642 20.2028Z" fill="#C49A6C"/>
<path d="M26.2519 30.9433C26.2519 30.9433 23.7504 29.5026 22.2896 29.974C21.4059 30.2588 21.125 31.4502 21.8039 32.0835C22.0511 32.314 22.441 32.4021 23.0565 32.0932C23.0565 32.0932 24.8951 30.8472 26.2519 30.9433Z" fill="#C49A6C"/>
<path d="M28.7496 30.6313C28.7496 30.6313 28.4366 27.7619 29.4553 26.614C30.0715 25.9198 31.2751 26.1412 31.5818 27.0172C31.6936 27.3361 31.6173 27.7284 31.0874 28.1682C31.0874 28.1682 29.207 29.3505 28.7496 30.6313Z" fill="#C49A6C"/>
</svg>
