<svg width="111" height="112" viewBox="0 0 111 112" fill="none" xmlns="http://www.w3.org/2000/svg">
<path d="M6 0H95C103.837 0 111 7.16344 111 16V96C111 104.837 103.837 112 95 112H6V0Z" fill="#616133"/>
<path d="M87 89.5C87 93.5633 74.4644 96.8569 59.0004 96.8569C43.5365 96.8569 31 93.5633 31 89.5C31 85.4367 43.5357 82.1431 59.0004 82.1431C74.4636 82.1423 87 85.4367 87 89.5Z" fill="#C49A6C"/>
<path d="M81.176 24.1481L75.307 87.7069C75.307 90.5414 67.8234 91.3772 58.5914 91.3772C49.3594 91.3772 41.8757 90.5407 41.8757 87.7069L36.0067 24.1481H81.176Z" fill="#F1F1F1"/>
<path d="M80.2862 40.666C80.0789 40.4382 79.7847 40.3083 79.4766 40.3083H37.7068C37.3988 40.3083 37.1046 40.4382 36.8973 40.666C36.69 40.8945 36.5878 41.1989 36.617 41.5062L39.0543 67.291C39.1076 67.8531 39.5792 68.2823 40.1442 68.2823H77.0393C77.6043 68.2823 78.0758 67.8531 78.1291 67.291L80.5665 41.5062C80.5957 41.1989 80.4935 40.8937 80.2862 40.666Z" fill="#C49A6C"/>
<path d="M83.1739 28.1484H34.0094C33.5911 28.1484 33.2524 27.8096 33.2524 27.3914V22.6356C33.2524 22.2173 33.5911 21.8786 34.0094 21.8786H83.1739C83.5914 21.8786 83.9309 22.2173 83.9309 22.6356V27.3914C83.9301 27.8096 83.5914 28.1484 83.1739 28.1484Z" fill="#E2E2E2"/>
<path d="M80.7 21.8793H36.484L37.3527 16.8681C37.5987 15.2132 38.8739 14 40.3689 14H76.8151C78.31 14 79.5853 15.2132 79.8313 16.8681L80.7 21.8793Z" fill="#F1F1F1"/>
<path d="M56.916 52.3856C57.9657 53.1455 59.3796 53.7806 61.117 54.2741C61.1929 54.2967 62.8127 54.7821 64.3975 55.9289C65.6231 56.8159 66.5721 57.9663 67.1254 59.2182C68.2904 56.5516 66.875 52.8893 63.9836 49.6424C60.9965 46.2867 56.7919 44.9735 53.7764 46.2057C53.9844 47.5875 54.6954 50.7797 56.916 52.3856Z" fill="#A07338"/>
<path d="M65.9107 60.8732C65.9421 60.8454 65.9691 60.817 65.9991 60.7892L65.8501 60.4009C65.845 60.3877 65.8406 60.3746 65.8363 60.3607C65.461 59.2015 64.5916 58.0635 63.4507 57.2379C62.0922 56.2554 60.6812 55.8305 60.6673 55.8261C58.7562 55.2838 57.1729 54.5655 55.9692 53.6946C53.6822 52.0405 52.6661 49.0563 52.2872 47.1132C52.2624 47.1343 52.2368 47.154 52.212 47.1759C49.2615 49.8024 49.7491 55.1648 53.2997 59.1534C56.851 63.1427 62.9602 63.4996 65.9107 60.8732Z" fill="#A07338"/>
<path d="M62.3317 18.0463C62.3317 18.5835 61.8959 19.0193 61.3586 19.0193H55.5188C54.9816 19.0193 54.5458 18.5835 54.5458 18.0463C54.5458 17.509 54.9816 17.0725 55.5188 17.0725H61.3586C61.8951 17.0725 62.3317 17.5083 62.3317 18.0463Z" fill="#E2E2E2"/>
<path d="M0 4.5L6.75 0.602885L6.75 8.39711L0 4.5Z" fill="#616133"/>
<path d="M0 23L7.5 18.6699L7.5 27.3301L0 23Z" fill="#616133"/>
<path d="M0 42L7.5 37.6699L7.5 46.3301L0 42Z" fill="#616133"/>
<path d="M0 61L7.5 56.6699L7.5 65.3301L0 61Z" fill="#616133"/>
<path d="M0 80L7.5 75.6699L7.5 84.3301L0 80Z" fill="#616133"/>
<path d="M0 99L7.5 94.6699L7.5 103.33L0 99Z" fill="#616133"/>
<path d="M0 13L7.5 8.66987L7.5 17.3301L0 13Z" fill="#616133"/>
<path d="M0 32L7.5 27.6699L7.5 36.3301L0 32Z" fill="#616133"/>
<path d="M0 51L7.5 46.6699L7.5 55.3301L0 51Z" fill="#616133"/>
<path d="M0 70L7.5 65.6699L7.5 74.3301L0 70Z" fill="#616133"/>
<path d="M0 89L7.5 84.6699L7.5 93.3301L0 89Z" fill="#616133"/>
<path d="M0 107L7.5 102.67L7.5 111.33L0 107Z" fill="#616133"/>
</svg>
