<svg width="163" height="77" viewBox="0 0 163 77" fill="none" xmlns="http://www.w3.org/2000/svg">
<path d="M7.648 32.248C6.98667 32.2053 6.32533 31.96 5.664 31.512C5.00267 31.0853 4.39467 30.68 3.84 30.296C3.47733 29.9333 3.2 29.5493 3.008 29.144C2.816 28.7173 2.656 28.1627 2.528 27.48C2.44267 27.0747 2.44267 26.5413 2.528 25.88C2.61333 25.2187 2.752 24.5573 2.944 23.896C3.136 23.2133 3.31733 22.68 3.488 22.296C3.744 21.6987 4.064 21.0587 4.448 20.376C4.85333 19.672 5.248 19.0107 5.632 18.392C6.03733 17.752 6.35733 17.24 6.592 16.856C6.74133 16.7067 6.80533 16.632 6.784 16.632C6.784 16.6107 6.784 16.6 6.784 16.6C6.784 16.4933 6.89067 16.2267 7.104 15.8C7.33867 15.352 7.54133 14.9573 7.712 14.616C8.032 14.2747 8.21333 13.9973 8.256 13.784C8.29867 13.5707 8.26667 13.4 8.16 13.272C8.11733 13.1867 8.20267 13.0053 8.416 12.728C8.65067 12.4507 8.97067 12.1413 9.376 11.8C9.78133 11.4373 10.2293 11.1173 10.72 10.84C11.232 10.4347 11.7227 10.2213 12.192 10.2C12.6827 10.1573 12.9707 10.2533 13.056 10.488C13.056 10.552 13.1733 10.5733 13.408 10.552C13.664 10.5093 13.952 10.456 14.272 10.392C14.6133 10.3067 14.912 10.2427 15.168 10.2C15.2747 10.072 15.52 9.976 15.904 9.912C16.3093 9.82667 16.7787 9.752 17.312 9.688C17.5893 9.70933 17.8987 9.72 18.24 9.72C18.5813 9.69867 18.88 9.67733 19.136 9.656C19.4133 9.63467 19.552 9.624 19.552 9.624C19.7013 9.58133 19.9147 9.67733 20.192 9.912C20.4907 10.1253 20.7253 10.424 20.896 10.808C21.0453 11.192 20.9173 11.5227 20.512 11.8C20.1067 12.0773 19.4667 12.2693 18.592 12.376C17.952 12.4613 17.4507 12.536 17.088 12.6C16.7467 12.6427 16.3733 12.7067 15.968 12.792C15.584 12.856 15.0187 12.9733 14.272 13.144C13.7387 13.2507 13.2907 13.336 12.928 13.4C12.5653 13.464 12.2453 13.592 11.968 13.784C11.712 13.976 11.424 14.3173 11.104 14.808C10.9547 14.9147 10.7627 15.192 10.528 15.64C10.2933 16.088 10.0587 16.536 9.824 16.984C9.22667 17.816 8.77867 18.4347 8.48 18.84C8.20267 19.224 8.10667 19.4693 8.192 19.576C8.192 19.576 8.34133 19.608 8.64 19.672C8.93867 19.736 9.13067 19.768 9.216 19.768C9.42933 19.6613 9.68533 19.5867 9.984 19.544C10.304 19.5013 10.56 19.4587 10.752 19.416C12.0747 19.0747 13.0453 18.8293 13.664 18.68C14.304 18.5093 14.752 18.392 15.008 18.328C15.2853 18.264 15.5307 18.2213 15.744 18.2C16.0427 17.9653 16.3413 17.9867 16.64 18.264C16.96 18.52 17.184 18.8293 17.312 19.192C17.4613 19.6187 17.4613 19.9493 17.312 20.184C17.1627 20.4187 16.832 20.6107 16.32 20.76C15.8293 20.9093 15.1253 21.0907 14.208 21.304C13.2907 21.496 12.1387 21.784 10.752 22.168C9.57867 22.5093 8.62933 22.712 7.904 22.776C7.17867 22.84 6.83733 22.6587 6.88 22.232C6.73067 22.1467 6.56 22.232 6.368 22.488C6.19733 22.7227 6.03733 23.0533 5.888 23.48C5.73867 23.9067 5.6 24.3653 5.472 24.856C5.36533 25.3467 5.30133 25.8053 5.28 26.232C5.25867 26.6587 5.29067 26.9893 5.376 27.224C5.54667 27.7147 5.81333 28.1413 6.176 28.504C6.56 28.8453 7.11467 29.1227 7.84 29.336C8.26667 29.3573 8.68267 29.3893 9.088 29.432C9.49333 29.4747 9.952 29.3893 10.464 29.176C11.7227 28.9627 12.5973 28.7387 13.088 28.504C13.5787 28.2693 13.8773 28.1093 13.984 28.024C14.1547 27.9387 14.2613 27.8533 14.304 27.768C14.368 27.6827 14.4533 27.64 14.56 27.64C14.496 27.7467 14.5173 27.7467 14.624 27.64C14.7307 27.5333 14.9013 27.384 15.136 27.192C15.584 26.808 16.032 26.5733 16.48 26.488C16.928 26.4027 17.3013 26.4027 17.6 26.488C17.8987 26.552 18.0587 26.6373 18.08 26.744C18.208 26.9573 18.144 27.2987 17.888 27.768C17.632 28.216 17.2373 28.696 16.704 29.208C16.192 29.72 15.584 30.1787 14.88 30.584C13.7493 31.1813 12.5227 31.5973 11.2 31.832C9.87733 32.088 8.69333 32.2267 7.648 32.248ZM22.1398 31.192C21.4144 30.8933 20.8811 30.584 20.5397 30.264C20.2197 29.9227 20.0917 29.624 20.1557 29.368C20.1984 29.24 20.2731 29.1227 20.3797 29.016C20.4864 28.9093 20.7211 28.8667 21.0837 28.888C21.4677 28.888 22.0544 28.984 22.8438 29.176C23.0784 29.176 23.3131 29.1653 23.5477 29.144C23.7824 29.1227 23.9957 29.0907 24.1877 29.048C24.4011 29.0053 24.5718 28.952 24.6997 28.888C24.8064 28.8453 24.8384 28.792 24.7958 28.728C24.7531 28.6427 24.6784 28.5573 24.5718 28.472C24.4864 28.3653 24.3904 28.3013 24.2838 28.28C24.1771 28.2373 24.0811 28.216 23.9957 28.216C23.9531 28.1093 23.8571 28.0027 23.7077 27.896C23.5797 27.7893 23.4197 27.672 23.2277 27.544C22.7584 27.16 22.3317 26.8187 21.9477 26.52C21.5637 26.2213 21.4144 25.9973 21.4997 25.848C21.4997 25.7627 21.4997 25.72 21.4997 25.72C21.4997 25.6987 21.4997 25.688 21.4997 25.688C21.3504 25.688 21.2117 25.4853 21.0837 25.08C20.9557 24.6533 20.8917 24.2693 20.8917 23.928C20.8917 23.5013 20.9771 23.0747 21.1477 22.648C21.3397 22.2213 21.5744 21.816 21.8517 21.432C22.1504 21.048 22.4491 20.7067 22.7477 20.408C23.1531 20.024 23.5798 19.6507 24.0278 19.288C24.4971 18.904 24.9984 18.5627 25.5317 18.264C26.0864 17.9653 26.6944 17.7307 27.3558 17.56C27.6544 17.496 27.9958 17.464 28.3798 17.464C28.7638 17.464 29.0411 17.5173 29.2118 17.624C29.3824 17.5173 29.5958 17.5493 29.8518 17.72C30.1078 17.8693 30.3638 18.0827 30.6198 18.36C30.8757 18.6373 31.0677 18.9147 31.1958 19.192C31.1958 19.448 31.1851 19.768 31.1638 20.152C31.1638 20.5147 31.1424 20.8347 31.0998 21.112C31.0571 21.3893 30.9611 21.528 30.8118 21.528C30.8118 21.528 30.7798 21.5387 30.7158 21.56C30.6731 21.56 30.6518 21.6133 30.6518 21.72C30.6518 21.9333 30.4918 22.1787 30.1718 22.456C29.7664 22.7333 29.3824 22.9573 29.0198 23.128C28.6571 23.2987 28.3797 23.3093 28.1877 23.16C28.0598 23.0747 27.9424 22.9893 27.8358 22.904C27.7291 22.8187 27.6331 22.712 27.5478 22.584C27.5478 22.584 27.5158 22.5413 27.4517 22.456C27.4091 22.3493 27.3877 22.2533 27.3877 22.168C27.3877 22.0827 27.4197 22.008 27.4838 21.944C27.5478 21.8587 27.5798 21.816 27.5798 21.816C27.8784 21.5387 28.1024 21.2827 28.2517 21.048C28.4224 20.8133 28.5398 20.6107 28.6038 20.44C28.6678 20.248 28.6997 20.0987 28.6997 19.992C28.6997 19.864 28.6678 19.7893 28.6038 19.768C28.5611 19.7253 28.4544 19.704 28.2838 19.704C28.1771 19.704 27.9424 19.7893 27.5798 19.96C27.2384 20.1307 26.8757 20.344 26.4917 20.6C26.1078 20.8347 25.8091 21.048 25.5957 21.24C25.5104 21.3893 25.4464 21.4853 25.4038 21.528C25.3824 21.5707 25.3291 21.592 25.2437 21.592C25.2437 21.5067 25.1904 21.5173 25.0837 21.624C24.9771 21.7307 24.8491 21.88 24.6997 22.072C24.5504 22.264 24.4011 22.4667 24.2517 22.68C24.1024 22.8933 23.9851 23.064 23.8997 23.192C23.8784 23.384 23.8251 23.5653 23.7397 23.736C23.6757 23.8853 23.6544 24.0453 23.6757 24.216C23.6971 24.4293 23.8037 24.632 23.9957 24.824C24.1878 25.016 24.4651 25.2613 24.8278 25.56C25.5744 26.1147 26.1291 26.552 26.4917 26.872C26.8757 27.192 27.1424 27.448 27.2917 27.64C27.4411 27.832 27.5371 28.024 27.5798 28.216C27.9424 28.8773 27.9851 29.4533 27.7078 29.944C27.4304 30.4133 27.0037 30.776 26.4277 31.032C26.2144 31.1387 25.8411 31.2347 25.3077 31.32C24.7744 31.4267 24.2091 31.4693 23.6118 31.448C23.0357 31.448 22.5451 31.3627 22.1398 31.192ZM31.4932 36.92C31.1946 37.0053 30.8852 36.9307 30.5652 36.696C30.2666 36.4613 30.0319 36.1413 29.8612 35.736C29.7119 35.3307 29.7119 34.9147 29.8612 34.488C29.9039 34.36 29.9679 34.1467 30.0532 33.848C30.1386 33.5707 30.1919 33.3253 30.2132 33.112C30.2346 32.9627 30.2986 32.7067 30.4052 32.344C30.5119 32.0027 30.6292 31.6613 30.7572 31.32C30.9066 30.9787 31.0239 30.7333 31.1092 30.584C31.2372 30.3707 31.3226 30.1253 31.3652 29.848C31.4292 29.5707 31.4612 29.3573 31.4612 29.208C31.5039 29.0587 31.5572 28.888 31.6212 28.696C31.7066 28.504 31.7919 28.3547 31.8772 28.248C31.9199 28.0773 31.9839 27.896 32.0692 27.704C32.1546 27.4907 32.2506 27.3093 32.3572 27.16C32.3999 27.0107 32.4319 26.8293 32.4532 26.616C32.4959 26.4027 32.5599 26.2853 32.6452 26.264C32.6666 26.1787 32.6772 26.0933 32.6772 26.008C32.6986 25.9227 32.7412 25.8053 32.8052 25.656C32.8479 25.4213 32.9439 25.08 33.0932 24.632C33.2426 24.184 33.4239 23.6933 33.6372 23.16C33.8719 22.5413 34.0319 22.008 34.1172 21.56C34.2026 21.0907 34.0852 20.792 33.7652 20.664C33.5946 20.5787 33.4879 20.3867 33.4452 20.088C33.4026 19.768 33.4239 19.448 33.5092 19.128C33.5946 18.808 33.7226 18.616 33.8932 18.552C34.0852 18.4667 34.3199 18.4133 34.5972 18.392C34.8746 18.3707 35.1199 18.3707 35.3332 18.392C35.5679 18.392 35.6746 18.4133 35.6532 18.456C35.6532 18.5627 35.7066 18.6267 35.8132 18.648C35.8559 18.584 35.9412 18.68 36.0692 18.936C36.2186 19.1707 36.3572 19.4373 36.4852 19.736C36.6132 20.0347 36.6772 20.2373 36.6772 20.344C36.6346 20.4293 36.6132 20.4827 36.6132 20.504C36.6132 20.504 36.6559 20.504 36.7413 20.504C36.7413 20.504 36.8586 20.4507 37.0932 20.344C37.3279 20.216 37.5732 20.0773 37.8292 19.928C38.1066 19.7573 38.2879 19.6293 38.3733 19.544C38.3733 19.544 38.4266 19.5227 38.5332 19.48C38.6612 19.416 38.7679 19.3413 38.8532 19.256C39.2799 19.0853 39.7386 19.0533 40.2292 19.16C40.7412 19.2667 41.1466 19.4587 41.4452 19.736C41.8719 20.2693 42.1919 20.9307 42.4052 21.72C42.6399 22.5093 42.6079 23.2773 42.3092 24.024C42.2666 24.1307 42.1706 24.312 42.0212 24.568C41.8933 24.8027 41.7653 25.0267 41.6372 25.24C41.5092 25.432 41.4452 25.528 41.4452 25.528C40.9546 26.296 40.4106 26.936 39.8132 27.448C39.2372 27.96 38.6079 28.408 37.9253 28.792C37.7119 28.9413 37.4132 29.08 37.0292 29.208C36.6666 29.336 36.3252 29.432 36.0052 29.496C35.7066 29.56 35.5252 29.5707 35.4612 29.528C35.2266 29.3573 35.0132 28.9947 34.8212 28.44C34.7146 28.7173 34.6079 28.9947 34.5012 29.272C34.4159 29.528 34.3626 29.6987 34.3412 29.784C34.3199 29.9333 34.2986 30.0613 34.2772 30.168C34.2559 30.2533 34.2026 30.328 34.1172 30.392C34.1172 30.392 34.1066 30.4347 34.0852 30.52C34.0639 30.6053 33.9892 30.7333 33.8612 30.904C33.6479 31.5227 33.4772 32.0027 33.3492 32.344C33.2212 32.7067 33.1146 32.9947 33.0292 33.208C32.9652 33.4427 32.9012 33.688 32.8372 33.944C32.7946 34.52 32.6559 35.128 32.4212 35.768C32.2079 36.408 31.8986 36.792 31.4932 36.92ZM36.2612 26.52C36.3466 26.4773 36.4959 26.4027 36.7092 26.296C36.9439 26.1893 37.1999 26.0613 37.4773 25.912C37.7546 25.7413 38.0106 25.5813 38.2452 25.432C38.5012 25.2613 38.6826 25.112 38.7892 24.984C38.9599 24.792 39.0559 24.6427 39.0772 24.536C39.0986 24.408 39.1519 24.2053 39.2372 23.928C39.3012 23.7573 39.3759 23.5653 39.4612 23.352C39.5466 23.1387 39.6212 22.936 39.6852 22.744C39.7706 22.5733 39.8026 22.4027 39.7812 22.232C39.7812 22.04 39.7172 21.88 39.5892 21.752C39.5039 21.7307 39.3012 21.7627 38.9812 21.848C38.6826 21.9333 38.3306 22.104 37.9253 22.36C37.5412 22.616 37.1572 22.9893 36.7732 23.48C36.3252 24.056 36.0266 24.5787 35.8772 25.048C35.7279 25.496 35.6959 25.8587 35.7812 26.136C35.8666 26.392 36.0266 26.52 36.2612 26.52ZM44.985 30.52C44.8357 30.52 44.633 30.4133 44.377 30.2C44.1423 29.9867 44.0037 29.7947 43.961 29.624C43.897 29.4533 43.897 29.208 43.961 28.888C44.0463 28.5467 44.1637 28.152 44.313 27.704C44.4837 27 44.601 26.488 44.665 26.168C44.729 25.848 44.793 25.5707 44.857 25.336C44.921 25.1013 45.0063 24.76 45.113 24.312C45.241 24.0347 45.337 23.768 45.401 23.512C45.4863 23.2347 45.5717 22.9573 45.657 22.68C45.7637 22.4027 45.881 22.1253 46.009 21.848C46.1583 21.2933 46.3397 20.7707 46.553 20.28C46.7877 19.768 47.0117 19.3413 47.225 19C47.2677 18.936 47.3637 18.8187 47.513 18.648C47.6623 18.4773 47.7797 18.392 47.865 18.392C48.0357 18.2213 48.2703 18.168 48.569 18.232C48.8677 18.2747 49.1237 18.3813 49.337 18.552C49.593 18.8293 49.7317 19.16 49.753 19.544C49.7957 19.9067 49.6463 20.4187 49.305 21.08C49.049 21.7413 48.8037 22.264 48.569 22.648C48.3557 23.0107 48.1423 23.4373 47.929 23.928C48.1637 23.5867 48.4517 23.2347 48.793 22.872C49.1343 22.5093 49.401 22.2213 49.593 22.008C49.8703 21.7093 50.1263 21.4747 50.361 21.304C50.617 21.112 50.9583 20.8773 51.385 20.6C51.7477 20.344 52.1103 20.1093 52.473 19.896C52.857 19.6827 53.3157 19.6187 53.849 19.704C54.0623 19.6827 54.2863 19.7893 54.521 20.024C54.777 20.2587 54.969 20.568 55.097 20.952C55.2463 21.3147 55.2463 21.7093 55.097 22.136C54.6063 22.0293 54.169 22.0507 53.785 22.2C53.401 22.328 53.0703 22.488 52.793 22.68C52.537 22.872 52.3343 23.0213 52.185 23.128C51.9717 23.256 51.7263 23.4267 51.449 23.64C51.1717 23.832 50.873 24.056 50.553 24.312C50.233 24.5467 49.8917 24.8133 49.529 25.112C49.017 25.5387 48.633 25.912 48.377 26.232C48.121 26.552 47.9183 26.8933 47.769 27.256C47.641 27.576 47.481 27.96 47.289 28.408C47.097 28.856 46.9157 29.2613 46.745 29.624C46.5743 29.9653 46.4357 30.1787 46.329 30.264C46.2223 30.4773 45.9983 30.5947 45.657 30.616C45.337 30.6373 45.113 30.6053 44.985 30.52ZM61.8822 30.36C61.2422 30.7227 60.5596 30.936 59.8342 31C59.1302 31.0427 58.4689 30.9467 57.8502 30.712C57.2316 30.456 56.7302 30.0827 56.3462 29.592C56.1329 29.3147 55.9302 28.8773 55.7382 28.28C55.5462 27.6613 55.5142 26.8293 55.6422 25.784C55.7702 24.8027 56.0689 23.8107 56.5382 22.808C57.0289 21.8053 57.6262 20.92 58.3302 20.152C59.0342 19.384 59.8022 18.8613 60.6342 18.584C60.9329 18.4773 61.2316 18.4027 61.5302 18.36C61.8502 18.296 62.2662 18.2853 62.7782 18.328C63.2689 18.392 63.7062 18.52 64.0902 18.712C64.4742 18.8827 64.7516 19.0747 64.9222 19.288C65.2636 19.6293 65.4876 19.96 65.5942 20.28C65.7009 20.6 65.7436 20.9093 65.7222 21.208C65.6156 21.8907 65.3062 22.6267 64.7942 23.416C64.3036 24.2053 63.6102 24.792 62.7142 25.176C62.3516 25.3253 61.9249 25.4213 61.4342 25.464C60.9436 25.5067 60.2716 25.4427 59.4182 25.272C58.9062 25.1653 58.5649 25.2187 58.3942 25.432C58.2449 25.6453 58.1809 26.0613 58.2022 26.68C58.2449 27.064 58.3302 27.4053 58.4582 27.704C58.6076 27.9813 58.8742 28.1733 59.2582 28.28C59.7489 28.3653 60.1009 28.376 60.3142 28.312C60.5276 28.2267 60.7942 28.1093 61.1142 27.96C61.2849 27.8533 61.4449 27.736 61.5942 27.608C61.7649 27.48 61.9249 27.352 62.0742 27.224C62.2449 27.096 62.3836 27 62.4902 26.936C62.5969 26.8507 62.7036 26.7973 62.8102 26.776C62.9169 26.7547 63.0236 26.744 63.1302 26.744C63.3649 26.7653 63.5889 26.8933 63.8022 27.128C64.0156 27.3627 64.1542 27.5867 64.2182 27.8C64.2182 27.9707 64.1116 28.216 63.8982 28.536C63.6849 28.8347 63.3969 29.1547 63.0342 29.496C62.6929 29.816 62.3089 30.104 61.8822 30.36ZM61.4662 23.224C61.6156 23.16 61.8289 23.0107 62.1062 22.776C62.4049 22.5413 62.6716 22.296 62.9062 22.04C63.1409 21.7627 63.2582 21.5493 63.2582 21.4C63.2582 21.1653 63.0982 20.9627 62.7782 20.792C62.4796 20.6213 62.0849 20.5893 61.5942 20.696C61.4236 20.7387 61.2209 20.856 60.9862 21.048C60.7516 21.24 60.5169 21.464 60.2822 21.72C60.0476 21.9547 59.8449 22.1893 59.6742 22.424C59.5036 22.6373 59.3862 22.808 59.3222 22.936C59.4076 23.0427 59.5782 23.128 59.8342 23.192C60.0902 23.256 60.3676 23.288 60.6662 23.288C60.9862 23.288 61.2529 23.2667 61.4662 23.224ZM68.2398 31.192C67.5144 30.8933 66.9811 30.584 66.6398 30.264C66.3198 29.9227 66.1918 29.624 66.2558 29.368C66.2984 29.24 66.3731 29.1227 66.4798 29.016C66.5864 28.9093 66.8211 28.8667 67.1838 28.888C67.5678 28.888 68.1544 28.984 68.9438 29.176C69.1784 29.176 69.4131 29.1653 69.6478 29.144C69.8824 29.1227 70.0958 29.0907 70.2878 29.048C70.5011 29.0053 70.6718 28.952 70.7998 28.888C70.9064 28.8453 70.9384 28.792 70.8958 28.728C70.8531 28.6427 70.7784 28.5573 70.6718 28.472C70.5864 28.3653 70.4904 28.3013 70.3838 28.28C70.2771 28.2373 70.1811 28.216 70.0958 28.216C70.0531 28.1093 69.9571 28.0027 69.8078 27.896C69.6798 27.7893 69.5198 27.672 69.3278 27.544C68.8584 27.16 68.4318 26.8187 68.0477 26.52C67.6638 26.2213 67.5144 25.9973 67.5998 25.848C67.5998 25.7627 67.5998 25.72 67.5998 25.72C67.5998 25.6987 67.5998 25.688 67.5998 25.688C67.4504 25.688 67.3118 25.4853 67.1838 25.08C67.0558 24.6533 66.9918 24.2693 66.9918 23.928C66.9918 23.5013 67.0771 23.0747 67.2478 22.648C67.4398 22.2213 67.6744 21.816 67.9518 21.432C68.2504 21.048 68.5491 20.7067 68.8478 20.408C69.2531 20.024 69.6798 19.6507 70.1278 19.288C70.5971 18.904 71.0984 18.5627 71.6318 18.264C72.1864 17.9653 72.7944 17.7307 73.4558 17.56C73.7544 17.496 74.0958 17.464 74.4798 17.464C74.8638 17.464 75.1411 17.5173 75.3118 17.624C75.4824 17.5173 75.6958 17.5493 75.9518 17.72C76.2078 17.8693 76.4638 18.0827 76.7198 18.36C76.9758 18.6373 77.1678 18.9147 77.2958 19.192C77.2958 19.448 77.2851 19.768 77.2638 20.152C77.2638 20.5147 77.2424 20.8347 77.1998 21.112C77.1571 21.3893 77.0611 21.528 76.9118 21.528C76.9118 21.528 76.8798 21.5387 76.8158 21.56C76.7731 21.56 76.7518 21.6133 76.7518 21.72C76.7518 21.9333 76.5918 22.1787 76.2718 22.456C75.8664 22.7333 75.4824 22.9573 75.1198 23.128C74.7571 23.2987 74.4798 23.3093 74.2878 23.16C74.1598 23.0747 74.0424 22.9893 73.9358 22.904C73.8291 22.8187 73.7331 22.712 73.6478 22.584C73.6478 22.584 73.6158 22.5413 73.5518 22.456C73.5091 22.3493 73.4878 22.2533 73.4878 22.168C73.4878 22.0827 73.5198 22.008 73.5838 21.944C73.6478 21.8587 73.6798 21.816 73.6798 21.816C73.9784 21.5387 74.2024 21.2827 74.3518 21.048C74.5224 20.8133 74.6398 20.6107 74.7038 20.44C74.7678 20.248 74.7998 20.0987 74.7998 19.992C74.7998 19.864 74.7678 19.7893 74.7038 19.768C74.6611 19.7253 74.5544 19.704 74.3838 19.704C74.2771 19.704 74.0424 19.7893 73.6798 19.96C73.3384 20.1307 72.9758 20.344 72.5918 20.6C72.2078 20.8347 71.9091 21.048 71.6958 21.24C71.6104 21.3893 71.5464 21.4853 71.5038 21.528C71.4824 21.5707 71.4291 21.592 71.3438 21.592C71.3438 21.5067 71.2904 21.5173 71.1838 21.624C71.0771 21.7307 70.9491 21.88 70.7998 22.072C70.6504 22.264 70.5011 22.4667 70.3518 22.68C70.2024 22.8933 70.0851 23.064 69.9998 23.192C69.9784 23.384 69.9251 23.5653 69.8398 23.736C69.7758 23.8853 69.7544 24.0453 69.7758 24.216C69.7971 24.4293 69.9038 24.632 70.0958 24.824C70.2878 25.016 70.5651 25.2613 70.9278 25.56C71.6744 26.1147 72.2291 26.552 72.5918 26.872C72.9758 27.192 73.2424 27.448 73.3918 27.64C73.5411 27.832 73.6371 28.024 73.6798 28.216C74.0424 28.8773 74.0851 29.4533 73.8078 29.944C73.5304 30.4133 73.1038 30.776 72.5278 31.032C72.3144 31.1387 71.9411 31.2347 71.4078 31.32C70.8744 31.4267 70.3091 31.4693 69.7118 31.448C69.1358 31.448 68.6451 31.3627 68.2398 31.192ZM80.8893 31.192C80.2066 31.192 79.5773 31.0427 79.0013 30.744C78.4466 30.424 77.9986 30.04 77.6573 29.592C77.3159 29.1227 77.1453 28.6747 77.1453 28.248C77.1453 28.056 77.1773 27.9173 77.2413 27.832C77.3266 27.7467 77.4439 27.704 77.5933 27.704C77.6999 27.7253 77.8279 27.7787 77.9773 27.864C78.1266 27.9493 78.2759 28.0453 78.4253 28.152C78.7666 28.3867 79.1399 28.536 79.5453 28.6C79.9506 28.664 80.3133 28.6427 80.6333 28.536C80.9533 28.408 81.1346 28.216 81.1773 27.96C81.1773 27.8747 81.1346 27.6933 81.0493 27.416C80.9639 27.1387 80.8573 26.872 80.7293 26.616C80.1959 25.8267 79.8653 25.08 79.7373 24.376C79.6093 23.6507 79.5239 22.9253 79.4813 22.2C79.4813 21.9013 79.6199 21.5707 79.8973 21.208C80.1746 20.824 80.5159 20.4507 80.9213 20.088C81.3693 19.704 81.8599 19.3413 82.3933 19C82.9479 18.6587 83.4919 18.3707 84.0253 18.136C84.5586 17.9013 85.0066 17.7627 85.3693 17.72C85.7533 17.72 86.1586 17.7413 86.5853 17.784C87.0333 17.8053 87.3319 17.88 87.4813 18.008C87.7799 18.2427 88.0573 18.6267 88.3133 19.16C88.5693 19.6933 88.6973 20.1413 88.6973 20.504C88.6973 20.6747 88.6013 20.888 88.4093 21.144C88.2386 21.3787 88.0786 21.6453 87.9293 21.944C87.8439 22.0933 87.7693 22.2533 87.7053 22.424C87.6413 22.5947 87.5666 22.7653 87.4813 22.936C87.3533 23.2347 87.1186 23.3627 86.7773 23.32C86.4573 23.256 86.1586 23.0853 85.8813 22.808C85.6039 22.5093 85.4653 22.168 85.4653 21.784C85.4653 21.464 85.5613 21.1867 85.7533 20.952C85.9453 20.7173 86.0413 20.5573 86.0413 20.472C86.0413 20.4293 86.0199 20.3973 85.9773 20.376C85.9346 20.3547 85.8599 20.344 85.7533 20.344C85.6039 20.344 85.3586 20.408 85.0173 20.536C84.6973 20.6427 84.3559 20.8027 83.9933 21.016C83.6306 21.2293 83.2999 21.4853 83.0013 21.784C82.7879 22.0187 82.6066 22.2747 82.4573 22.552C82.3293 22.808 82.2653 23.0853 82.2653 23.384C82.2653 23.6827 82.3186 24.0347 82.4253 24.44C82.5533 24.824 82.6919 25.144 82.8413 25.4C82.8839 25.4427 82.9479 25.56 83.0333 25.752C83.1399 25.9227 83.2573 26.136 83.3853 26.392C84.1746 28.0133 84.3026 29.2187 83.7693 30.008C83.2573 30.7973 82.2973 31.192 80.8893 31.192Z" fill="#311300"/>
<path d="M43.048 54.712L41.928 53.304C41.5013 52.664 41.16 52.0667 40.904 51.512C40.648 50.9573 40.4667 50.2747 40.36 49.464C40.2107 48.952 40.1147 48.472 40.072 48.024C40.0293 47.576 40.008 47.064 40.008 46.488C40.0293 45.8907 40.0507 45.1547 40.072 44.28C40.0933 43.4693 40.2213 42.808 40.456 42.296C40.6907 41.7627 40.8507 41.4107 40.936 41.24C41.384 40.856 41.7467 40.7813 42.024 41.016C42.3227 41.2507 42.536 41.6453 42.664 42.2C42.8133 42.7547 42.8773 43.3413 42.856 43.96C42.92 46.2427 43.0587 47.9707 43.272 49.144C43.5067 50.3173 43.7947 51.0427 44.136 51.32C44.392 51.384 44.616 51.3627 44.808 51.256C45 51.128 45.2453 50.8933 45.544 50.552C45.864 50.1893 46.3013 49.72 46.856 49.144C47.4533 48.5253 48.0507 47.8747 48.648 47.192C49.2453 46.488 49.8107 45.816 50.344 45.176C50.8987 44.536 51.3893 43.9813 51.816 43.512C52.264 43.0427 52.616 42.7333 52.872 42.584C52.9573 42.456 53.1067 42.3493 53.32 42.264C53.5333 42.1573 53.736 42.0827 53.928 42.04C54.1413 41.976 54.248 41.944 54.248 41.944C54.4187 41.9867 54.5147 42.1253 54.536 42.36C54.5573 42.5733 54.6427 42.7867 54.792 43C54.8347 43.0853 54.9307 43.2133 55.08 43.384C55.2293 43.5547 55.2933 43.6933 55.272 43.8C55.272 43.864 55.176 44.0133 54.984 44.248C54.792 44.4613 54.5893 44.6747 54.376 44.888C54.1627 45.1013 54.0027 45.2613 53.896 45.368C53.6187 45.6027 53.1813 46.0187 52.584 46.616C52.008 47.192 51.4107 47.8213 50.792 48.504C50.1733 49.1653 49.6507 49.7627 49.224 50.296C48.2853 51.384 47.4427 52.3227 46.696 53.112C45.9707 53.9013 45.5227 54.3707 45.352 54.52C45.3307 54.5627 45.192 54.5947 44.936 54.616C44.68 54.616 44.4987 54.7013 44.392 54.872L43.048 54.712ZM41.256 65.432C41.1707 65.4107 40.9893 65.3147 40.712 65.144C40.456 64.9733 40.2213 64.8133 40.008 64.664C39.8587 64.4933 39.7627 64.312 39.72 64.12C39.6987 63.928 39.7307 63.672 39.816 63.352C39.9013 63.032 40.0187 62.584 40.168 62.008C40.1893 61.5173 40.2853 60.92 40.456 60.216C40.648 59.512 40.872 58.9253 41.128 58.456C41.128 58.2213 41.1813 57.9013 41.288 57.496C41.3947 57.0907 41.5227 56.6747 41.672 56.248C41.8427 55.8 41.992 55.416 42.12 55.096L42.696 53.432L43.976 52.344L45.64 53.496C45.5547 53.624 45.48 53.7733 45.416 53.944C45.352 54.1147 45.2667 54.4027 45.16 54.808C45.0533 55.2133 44.8933 55.8427 44.68 56.696C44.5093 57.272 44.3173 57.8907 44.104 58.552C43.912 59.2133 43.7307 59.832 43.56 60.408C43.3893 60.984 43.24 61.4533 43.112 61.816C42.856 62.776 42.6213 63.5333 42.408 64.088C42.216 64.6427 42.024 65.016 41.832 65.208C41.6613 65.4213 41.4693 65.496 41.256 65.432ZM52.7448 62.776C52.4674 62.776 52.2434 62.7227 52.0727 62.616C51.9234 62.5093 51.7314 62.36 51.4967 62.168C51.0914 61.7413 50.7607 61.2827 50.5047 60.792C50.2701 60.3013 50.1847 59.8747 50.2487 59.512C50.3127 59.3413 50.3341 59.1813 50.3127 59.032C50.3127 58.8613 50.3127 58.776 50.3127 58.776C50.2061 58.6693 50.1741 58.6053 50.2167 58.584C50.2594 58.5413 50.3021 58.4773 50.3447 58.392C50.4727 58.392 50.5154 58.2747 50.4727 58.04C50.4301 57.8693 50.4941 57.5067 50.6647 56.952C50.8567 56.376 51.1127 55.832 51.4327 55.32C51.5607 55.1067 51.7527 54.8293 52.0087 54.488C52.2647 54.1253 52.5421 53.7733 52.8407 53.432C53.1607 53.0693 53.4487 52.7813 53.7048 52.568C54.2381 52.12 54.7287 51.7573 55.1768 51.48C55.6461 51.2027 56.1154 51.0107 56.5848 50.904C57.0541 50.7973 57.5341 50.744 58.0247 50.744C58.5368 50.744 58.9528 50.9147 59.2727 51.256C59.7634 51.4693 60.1047 51.7573 60.2968 52.12C60.5101 52.4827 60.6488 52.952 60.7128 53.528C60.7768 54.168 60.7128 54.9573 60.5208 55.896C60.3287 56.8133 59.8061 57.88 58.9528 59.096C58.4194 59.864 57.8968 60.4613 57.3848 60.888C56.8727 61.3147 56.3074 61.7093 55.6888 62.072C55.2407 62.3707 54.7607 62.552 54.2487 62.616C53.7367 62.68 53.2354 62.7333 52.7448 62.776ZM56.0087 58.872C56.4781 58.4667 56.8088 58.0187 57.0008 57.528C57.2141 57.0373 57.4381 56.4613 57.6728 55.8C57.7581 55.672 57.8114 55.4587 57.8328 55.16C57.8754 54.8613 57.8861 54.5733 57.8647 54.296C57.8434 53.9973 57.7688 53.8267 57.6407 53.784C57.4487 53.6347 57.2567 53.6027 57.0647 53.688C56.8727 53.752 56.6274 53.8907 56.3287 54.104C55.6887 54.6373 55.0914 55.256 54.5367 55.96C54.0034 56.6427 53.6301 57.4853 53.4167 58.488C53.3527 59.0213 53.4061 59.4267 53.5767 59.704C53.7687 59.96 54.0674 60.0347 54.4728 59.928C54.8994 59.8 55.4114 59.448 56.0087 58.872ZM62.8245 64.632C62.6325 64.5467 62.4085 64.376 62.1525 64.12C61.7258 63.7573 61.4378 63.2987 61.2885 62.744C61.1605 62.168 61.1498 61.6133 61.2565 61.08C61.5125 60.44 61.7898 60.0027 62.0885 59.768C62.4085 59.512 62.7392 59.4053 63.0805 59.448C63.4432 59.4693 63.7845 59.5973 64.1045 59.832C63.9552 60.28 63.8378 60.6853 63.7525 61.048C63.6672 61.4107 63.6992 61.72 63.8485 61.976C63.9978 62.232 64.3498 62.4347 64.9045 62.584C65.3312 62.6267 65.6938 62.648 65.9925 62.648C66.3125 62.6267 66.6858 62.6053 67.1125 62.584C67.6032 62.5413 67.9872 62.488 68.2645 62.424C68.5632 62.36 68.8298 62.296 69.0645 62.232C69.6618 62.0613 70.1738 61.8267 70.6005 61.528C71.0272 61.208 71.3792 60.8453 71.6565 60.44C71.8272 60.1413 71.9445 59.8747 72.0085 59.64C72.0725 59.384 72.1045 59.1173 72.1045 58.84C72.1045 58.52 72.0725 58.2427 72.0085 58.008C71.9445 57.752 71.8272 57.4533 71.6565 57.112C71.5072 56.7493 71.2618 56.248 70.9205 55.608C70.8992 55.4587 70.7285 55.2027 70.4085 54.84C70.1098 54.4773 69.8112 54.1253 69.5125 53.784C69.3632 53.4427 69.1712 53.0587 68.9365 52.632C68.7018 52.184 68.4352 51.864 68.1365 51.672C68.0512 51.544 67.9552 51.3413 67.8485 51.064C67.7632 50.7867 67.6885 50.6373 67.6245 50.616C67.6245 50.616 67.5925 50.5627 67.5285 50.456C67.4858 50.3493 67.4325 50.2213 67.3685 50.072C67.0912 49.4533 67.0805 48.6853 67.3365 47.768C67.5925 46.8293 68.0618 45.9547 68.7445 45.144C68.9792 44.76 69.2778 44.376 69.6405 43.992C70.0032 43.5867 70.3338 43.256 70.6325 43C70.9525 42.7227 71.1552 42.584 71.2405 42.584C71.2405 42.584 71.3045 42.5627 71.4325 42.52C71.5818 42.456 71.7632 42.3493 71.9765 42.2C72.2112 42.0507 72.4352 41.9333 72.6485 41.848C72.8618 41.7413 73.1712 41.6453 73.5765 41.56L73.7685 41.528L73.8965 41.496C74.2592 41.3893 74.5578 41.3147 74.7925 41.272C75.0272 41.208 75.2512 41.176 75.4645 41.176C75.6778 41.176 75.9338 41.1867 76.2325 41.208C77.1925 41.464 77.9285 41.816 78.4405 42.264C78.9738 42.6907 79.2618 43.4693 79.3045 44.6L79.0485 45.496L78.5045 46.104C78.4405 46.0827 78.2698 46.1467 77.9925 46.296C77.7365 46.4453 77.3738 46.5627 76.9045 46.648C76.4565 46.712 75.8805 46.6053 75.1765 46.328C75.0912 46.3067 75.0592 46.2533 75.0805 46.168C75.1018 46.0613 75.1872 45.9973 75.3365 45.976C75.4005 45.9333 75.4965 45.8373 75.6245 45.688C75.7738 45.5387 75.9125 45.368 76.0405 45.176C76.3178 44.792 76.3818 44.504 76.2325 44.312C76.1045 44.0987 75.8485 43.992 75.4645 43.992C74.7392 44.0133 74.0458 44.152 73.3845 44.408C72.7232 44.6427 72.1152 45.0693 71.5605 45.688C71.1125 46.264 70.7818 46.776 70.5685 47.224C70.3552 47.6507 70.2485 48.0453 70.2485 48.408C70.2912 48.5573 70.3125 48.7813 70.3125 49.08C70.3338 49.3573 70.4192 49.6453 70.5685 49.944C71.2725 50.9253 71.8165 51.6827 72.2005 52.216C72.6058 52.7493 72.8832 53.1333 73.0325 53.368C73.0752 53.432 73.1072 53.4853 73.1285 53.528C73.1498 53.5707 73.1605 53.6133 73.1605 53.656C73.2458 53.8053 73.3632 54.0187 73.5125 54.296C73.6618 54.5733 73.8005 54.84 73.9285 55.096C74.0565 55.352 74.1205 55.5227 74.1205 55.608C74.1205 55.608 74.1525 55.672 74.2165 55.8C74.2805 55.9067 74.3552 56.0667 74.4405 56.28C74.5472 56.472 74.6432 56.7493 74.7285 57.112C74.8352 57.4533 74.9205 57.8267 74.9845 58.232C75.0485 58.616 75.0805 58.968 75.0805 59.288C75.0805 59.544 75.0165 59.8747 74.8885 60.28C74.7605 60.664 74.5898 61.0587 74.3765 61.464C74.1845 61.848 73.9392 62.168 73.6405 62.424C73.3418 62.68 72.9045 62.9893 72.3285 63.352C71.7525 63.7147 71.1232 64.0453 70.4405 64.344C69.7578 64.6427 69.0965 64.8453 68.4565 64.952C67.8165 65.0587 67.2085 65.144 66.6325 65.208C66.0778 65.272 65.5552 65.2933 65.0645 65.272C64.5952 65.272 64.1685 65.2187 63.7845 65.112C63.4005 65.0053 63.0805 64.8453 62.8245 64.632ZM81.5383 63.576C80.3649 63.576 79.4583 63.2347 78.8183 62.552C78.1996 61.8693 77.8903 60.824 77.8903 59.416C77.8903 58.648 78.0289 57.8053 78.3063 56.888C78.6049 55.9707 78.9889 55.0747 79.4583 54.2C79.9489 53.3253 80.4823 52.568 81.0583 51.928C81.6343 51.2667 82.2103 50.808 82.7863 50.552C82.9996 50.4453 83.2236 50.3707 83.4583 50.328C83.7143 50.264 83.9596 50.232 84.1943 50.232C84.4503 50.232 84.7276 50.2533 85.0263 50.296C85.3463 50.3173 85.6449 50.3813 85.9223 50.488C86.4129 50.6373 86.8396 50.9253 87.2023 51.352C87.5863 51.7787 87.7783 52.3973 87.7783 53.208C87.7783 53.4213 87.7569 53.656 87.7143 53.912C87.6716 54.1467 87.5969 54.3813 87.4903 54.616C87.2129 55.32 86.7863 55.992 86.2103 56.632C85.6556 57.272 85.0689 57.72 84.4503 57.976C84.2796 58.0613 84.1089 58.1253 83.9383 58.168C83.7889 58.1893 83.6289 58.2 83.4583 58.2C83.0103 58.2 82.6049 58.136 82.2423 58.008C81.9009 57.88 81.5809 57.7093 81.2823 57.496L81.0263 57.272L80.8663 57.592C80.7169 57.9973 80.6103 58.3387 80.5463 58.616C80.5036 58.8933 80.4823 59.096 80.4823 59.224C80.4823 59.48 80.4929 59.7467 80.5143 60.024C80.5356 60.28 80.5996 60.4933 80.7063 60.664C80.7916 60.7707 80.8983 60.856 81.0263 60.92C81.1756 60.984 81.3569 61.016 81.5703 61.016C81.6983 61.016 81.8156 61.016 81.9223 61.016C82.0503 60.9947 82.1569 60.9733 82.2423 60.952C82.6263 60.8667 82.9356 60.728 83.1703 60.536C83.4263 60.3227 83.6929 60.1413 83.9703 59.992L84.0983 59.928L84.0663 59.832C84.4289 59.64 84.6743 59.5227 84.8023 59.48C84.9303 59.416 85.0263 59.3627 85.0903 59.32C85.1756 59.2347 85.2716 59.192 85.3783 59.192C85.6769 59.1493 85.9649 59.2347 86.2423 59.448C86.5409 59.64 86.6903 59.8853 86.6903 60.184C86.6903 60.312 86.5943 60.5147 86.4023 60.792C86.2316 61.0693 86.0076 61.3467 85.7303 61.624C85.4743 61.88 85.2076 62.0827 84.9303 62.232C84.8663 62.2533 84.8023 62.2853 84.7383 62.328C84.6743 62.3493 84.6103 62.3813 84.5463 62.424H84.5783C84.3863 62.68 84.1943 62.808 84.0023 62.808H83.7463C83.6609 62.9573 83.3836 63.1173 82.9143 63.288C82.4449 63.48 81.9863 63.576 81.5383 63.576ZM83.2023 55.864C83.3943 55.864 83.5649 55.832 83.7143 55.768C83.8849 55.704 84.0449 55.6293 84.1943 55.544C84.7063 55.1813 85.0369 54.712 85.1863 54.136C85.3356 53.56 85.2823 53.1227 85.0263 52.824C84.9836 52.76 84.9303 52.7173 84.8663 52.696C84.8023 52.6533 84.7276 52.632 84.6423 52.632C84.4076 52.632 84.1409 52.7067 83.8423 52.856C83.5649 53.0053 83.2876 53.2187 83.0103 53.496C82.7329 53.7733 82.4769 54.104 82.2423 54.488L81.8263 55.16C81.8689 55.1387 81.9009 55.128 81.9223 55.128C81.9649 55.1067 81.9969 55.096 82.0183 55.096C82.2103 55.096 82.3383 55.16 82.4023 55.288C82.4663 55.416 82.5409 55.544 82.6263 55.672C82.7329 55.8 82.9249 55.864 83.2023 55.864ZM90.4877 63.352C90.0824 63.4587 89.7197 63.3413 89.3997 63C89.0797 62.68 88.8557 62.2 88.7277 61.56C88.5997 60.92 88.6211 60.2053 88.7917 59.416C88.8984 59.16 88.9837 58.9147 89.0477 58.68C89.1117 58.424 89.1437 58.2213 89.1437 58.072C89.1864 57.8587 89.2717 57.5493 89.3997 57.144C89.5277 56.7173 89.6664 56.28 89.8157 55.832C89.9651 55.384 90.1037 54.9893 90.2317 54.648C90.3811 54.2853 90.4771 54.0613 90.5197 53.976C90.6051 53.976 90.6797 53.9013 90.7437 53.752C90.8077 53.6027 90.8397 53.4533 90.8397 53.304C90.8397 53.1333 90.8717 52.9413 90.9357 52.728C91.0211 52.5147 91.1064 52.3653 91.1917 52.28C91.1917 52.1733 91.2131 52.056 91.2557 51.928C91.3197 51.7787 91.3517 51.6613 91.3517 51.576C91.3517 51.4907 91.3731 51.4053 91.4157 51.32C91.4797 51.2347 91.5117 51.1493 91.5117 51.064C91.6611 50.7867 91.8531 50.3493 92.0877 49.752C92.3437 49.1333 92.6104 48.4507 92.8877 47.704C93.1864 46.9573 93.4637 46.2213 93.7197 45.496C93.9757 44.7707 94.1784 44.1627 94.3277 43.672C94.4984 43.16 94.5837 42.8507 94.5837 42.744C94.5837 42.5733 94.6477 42.4133 94.7757 42.264C94.9037 42.1147 95.0531 42.04 95.2237 42.04C95.2877 41.976 95.4371 41.9333 95.6717 41.912C95.9064 41.8693 96.0664 41.848 96.1517 41.848C96.1517 41.848 96.1944 41.8907 96.2797 41.976C96.3651 42.0613 96.4931 42.1893 96.6637 42.36C96.8344 42.5093 96.9944 42.68 97.1437 42.872C97.3144 43.064 97.3997 43.288 97.3997 43.544C97.3997 43.8213 97.3571 44.088 97.2717 44.344C97.2077 44.6 97.0797 44.952 96.8877 45.4C96.6957 45.8267 96.3971 46.4667 95.9917 47.32C95.8211 47.7467 95.6397 48.152 95.4477 48.536C95.2557 48.8987 95.1597 49.1227 95.1597 49.208C95.1597 49.2933 95.1171 49.4213 95.0317 49.592C94.9677 49.7627 94.8931 49.976 94.8077 50.232C94.7224 50.4027 94.6051 50.6587 94.4557 51C94.3064 51.32 94.1464 51.672 93.9757 52.056C93.8264 52.4187 93.6984 52.7387 93.5917 53.016C93.4851 53.272 93.4317 53.4213 93.4317 53.464C93.4317 53.5493 93.4211 53.6347 93.3997 53.72C93.3997 53.8053 93.3571 53.8907 93.2717 53.976C93.1864 53.976 93.1331 54.04 93.1117 54.168C93.1117 54.2747 93.1117 54.328 93.1117 54.328C93.1117 54.5413 92.9411 55.1067 92.5997 56.024C92.2584 57.1973 91.9384 58.2747 91.6397 59.256C91.3624 60.2373 91.2237 61.0267 91.2237 61.624C91.2237 62.136 91.1384 62.5307 90.9677 62.808C90.8184 63.0853 90.6584 63.2667 90.4877 63.352ZM96.5493 65.784C96.2719 65.8053 95.9946 65.6347 95.7173 65.272C95.4399 64.9093 95.2053 64.4293 95.0133 63.832C94.8426 63.2347 94.7573 62.584 94.7573 61.88C94.6719 61.0053 94.7466 59.9387 94.9813 58.68C95.2159 57.4213 95.5679 55.9493 96.0373 54.264C96.2079 53.688 96.4533 52.984 96.7733 52.152C97.0933 51.32 97.4239 50.4987 97.7653 49.688C98.1279 48.8773 98.4479 48.1947 98.7253 47.64C99.0026 47.064 99.1733 46.744 99.2373 46.68C99.3653 46.7227 99.4293 46.6267 99.4293 46.392C99.4293 46.3493 99.5146 46.1893 99.6853 45.912C99.8559 45.6347 100.016 45.336 100.165 45.016C100.443 44.6107 100.795 44.184 101.221 43.736C101.669 43.2667 102.117 42.84 102.565 42.456C103.035 42.072 103.44 41.816 103.781 41.688C104.101 41.56 104.421 41.496 104.741 41.496C105.147 41.496 105.584 41.6347 106.053 41.912C106.544 42.168 106.96 42.4987 107.301 42.904C107.664 43.288 107.845 43.6827 107.845 44.088C107.845 44.4293 107.771 44.76 107.621 45.08C107.557 45.4 107.429 45.7627 107.237 46.168C107.045 46.552 106.853 46.9147 106.661 47.256C106.491 47.576 106.352 47.8107 106.245 47.96C105.627 48.4293 105.147 48.6107 104.805 48.504C104.464 48.3973 104.347 48.2693 104.453 48.12C104.453 48.0347 104.485 47.8533 104.549 47.576C104.613 47.2773 104.656 47.0533 104.677 46.904C104.677 46.8613 104.72 46.7333 104.805 46.52C104.912 46.3067 104.965 46.0933 104.965 45.88C105.157 45.112 105.243 44.6107 105.221 44.376C105.221 44.1413 105.125 44.024 104.933 44.024C104.827 44.0027 104.699 44.024 104.549 44.088C104.4 44.152 104.272 44.2373 104.165 44.344C104.08 44.4293 104.037 44.5253 104.037 44.632C104.037 44.696 104.037 44.7387 104.037 44.76C103.973 44.7387 103.781 44.92 103.461 45.304C103.163 45.6667 102.821 46.1147 102.437 46.648C102.053 47.16 101.733 47.6293 101.477 48.056C101.307 48.4187 101.115 48.8347 100.901 49.304C100.709 49.752 100.432 50.4453 100.069 51.384L99.8133 52.152L100.325 52.216C100.496 52.2373 100.709 52.2267 100.965 52.184C101.243 52.12 101.552 52.056 101.893 51.992C102.619 51.8853 103.109 51.96 103.365 52.216C103.643 52.4507 103.856 52.7387 104.005 53.08C104.24 53.592 104.112 53.944 103.621 54.136C103.131 54.3067 102.075 54.4347 100.453 54.52C100.112 54.4773 99.8133 54.4667 99.5573 54.488C99.3226 54.488 99.1626 54.5307 99.0773 54.616C98.9919 54.6587 98.8746 54.8933 98.7253 55.32C98.5759 55.7253 98.4159 56.216 98.2453 56.792C98.0959 57.3467 97.9786 57.88 97.8933 58.392C97.7226 59.0533 97.6159 59.768 97.5733 60.536C97.5306 61.2827 97.5306 61.9867 97.5733 62.648C97.6159 63.288 97.6799 63.7787 97.7653 64.12C97.8933 64.632 97.7866 65.0053 97.4453 65.24C97.1039 65.496 96.8053 65.6773 96.5493 65.784Z" fill="#311300"/>
<g opacity="0.2">
<path d="M136.245 76.7281C150.296 76.7281 161.687 76.1585 161.687 75.456C161.687 74.7534 150.296 74.1839 136.245 74.1839C122.194 74.1839 110.803 74.7534 110.803 75.456C110.803 76.1585 122.194 76.7281 136.245 76.7281Z" fill="#390176"/>
</g>
<path d="M135.364 32.9258C135.066 33.3682 134.647 33.7148 134.168 33.9478C133.292 34.3724 131.436 35.1023 130.398 34.0874C130.009 33.7065 129.886 33.3919 129.917 33.1269C129.995 32.4574 131.051 32.1002 131.29 31.7784C131.624 31.3301 130.292 30.3708 131.302 29.6588C131.734 29.3548 132.492 29.3997 133.261 29.6552C134.291 29.9994 135.338 30.7233 135.634 31.4993C135.831 32.015 135.634 32.526 135.364 32.9258Z" fill="#FFF5DC"/>
<path d="M135.364 32.9258C135.066 33.3682 134.647 33.7147 134.168 33.9478C133.292 34.3724 131.436 35.1022 130.398 34.0874C130.009 33.7065 129.886 33.3918 129.917 33.1269C129.976 33.2487 130.52 34.2672 132.305 33.7431C134.204 33.1848 132.416 32.1877 131.476 31.8328L131.444 31.271C131.444 31.271 132.404 32.196 133.71 31.9239C135.016 31.653 134.279 30.4252 133.468 29.8835C133.344 29.8007 133.279 29.7238 133.261 29.6552C134.291 29.9994 135.338 30.7233 135.634 31.4993C135.831 32.015 135.634 32.526 135.364 32.9258Z" fill="#EDCD96"/>
<path d="M131.81 34.9253C131.138 34.9253 130.581 34.7242 130.169 34.3213C129.739 33.9003 129.549 33.5018 129.59 33.103C129.651 32.5005 130.23 32.1282 130.653 31.8564C130.791 31.7678 130.96 31.6587 131.018 31.5946C131.015 31.5205 130.925 31.3352 130.865 31.2105C130.657 30.7828 130.27 29.9867 131.114 29.3917C131.746 28.9461 132.713 29.1454 133.234 29.3039C134.275 29.6213 135.567 30.4071 135.94 31.3823C136.143 31.9141 136.038 32.5111 135.636 33.1088V33.1089C135.315 33.5847 134.857 33.9765 134.31 34.2417C133.372 34.6972 132.526 34.9253 131.81 34.9253ZM132.116 29.7735C131.852 29.7735 131.635 29.8245 131.491 29.9266C131.135 30.1774 131.198 30.3994 131.453 30.9243C131.616 31.2598 131.801 31.6401 131.552 31.9741C131.435 32.1314 131.237 32.2591 131.007 32.4069C130.679 32.6178 130.27 32.8804 130.241 33.1694C130.217 33.3999 130.438 33.6686 130.627 33.8535C131.488 34.6959 133.125 34.0895 134.025 33.653C134.467 33.4381 134.837 33.1235 135.093 32.7434C135.375 32.3242 135.454 31.9449 135.328 31.6161C135.08 30.9669 134.119 30.2577 133.043 29.9299C132.701 29.8257 132.384 29.7735 132.116 29.7735Z" fill="#390176"/>
<path d="M154.562 62.4996C153.313 64.378 150.581 67.5764 145.918 68.7025C144.915 68.9462 143.823 69.0917 142.638 69.1094C141.873 69.1201 141.141 68.8078 140.608 68.2613L139.314 66.9365L137.424 65.0025L140.381 63.2933L152.998 56.001L153.997 58.1218L154.761 59.7459C155.179 60.6366 155.106 61.6811 154.562 62.4996Z" fill="white"/>
<path d="M145.228 67.858C144.5 68.0245 143.726 68.1403 142.904 68.1935C142.374 68.2278 141.856 68.0204 141.494 67.6314L140.672 66.7473C141.752 66.5734 142.781 66.3439 143.758 66.0577L145.228 67.858Z" fill="#F4E5D3"/>
<path d="M142.599 69.4776C141.761 69.4776 140.942 69.1296 140.344 68.5185L137.16 65.2602C137.081 65.1789 137.043 65.0655 137.059 64.953C137.074 64.8404 137.141 64.7413 137.239 64.6844L152.814 55.6822C152.903 55.6306 153.009 55.6188 153.108 55.6496C153.206 55.6804 153.287 55.751 153.331 55.8441L155.093 59.5895C155.565 60.5913 155.478 61.7845 154.868 62.7035C153.215 65.1914 149.428 69.3796 142.642 69.4774C142.628 69.4776 142.613 69.4776 142.599 69.4776ZM140.871 68.0041C141.338 68.4821 141.983 68.752 142.632 68.7415C149.08 68.6487 152.682 64.6635 154.255 62.2963C154.724 61.5904 154.79 60.6733 154.427 59.9029L152.835 56.5197L138.018 65.0846L140.871 68.0041Z" fill="#390176"/>
<path d="M154.214 57.7069C154.143 57.8476 154.07 57.986 153.996 58.1221C151.834 62.1154 148.374 64.7106 143.757 66.0579C142.378 66.4612 140.896 66.7522 139.313 66.9367C139.293 66.9391 139.273 66.9415 139.253 66.9438C138.341 67.0479 137.437 66.6813 136.858 65.9691L134.388 62.9316L126.861 53.6733L125.751 52.3083L124.801 51.1396L124.937 51.0627L127.718 49.5096L130.107 48.1754L143.74 40.5601L145.326 39.6742L147.535 38.4393L147.851 39.2341L147.992 39.5878L154.318 55.4902C154.604 56.2094 154.564 57.0173 154.214 57.7069Z" fill="white"/>
<path d="M142.523 66.2364C141.781 66.3831 141.012 66.5026 140.219 66.5948C140.199 66.5972 140.179 66.5996 140.159 66.6019C139.247 66.706 138.343 66.3393 137.764 65.6273L135.628 63.0001C136.968 63.0084 138.366 62.812 139.766 62.4513L140.38 63.2935L142.523 66.2364Z" fill="#F4E5D3"/>
<path d="M147.702 37.4137L146.194 34.8008C146.453 35.2526 146.57 35.7684 146.554 36.3338C146.526 37.325 146.095 38.4676 145.326 39.6742C144.868 40.3922 144.291 41.1326 143.608 41.8778C141.878 43.7669 139.469 45.6855 136.612 47.3355C134.957 48.2913 133.3 49.0708 131.712 49.6658C130.26 50.2111 128.866 50.6002 127.586 50.8274C126.633 50.9965 125.742 51.0769 124.937 51.0628L124.801 51.1397L125.751 52.3083L126.861 53.6733C127.088 53.6686 127.321 53.6566 127.56 53.638C127.828 53.617 128.089 53.7283 128.258 53.9364L129.357 55.2879C130.893 55.2477 132.467 54.9922 134.028 54.5676L133.04 53.2096C132.792 52.8694 132.935 52.3869 133.328 52.2368L133.336 52.2338C134.888 51.6459 136.504 50.8806 138.119 49.9485C143.045 47.1037 146.634 43.4652 147.72 40.5518C147.844 40.2207 147.935 39.8977 147.992 39.5878C148.143 38.7681 148.057 38.03 147.702 37.4137Z" fill="#F4E5D3"/>
<path d="M138.941 67.3292C138.025 67.3292 137.159 66.922 136.573 66.2012L124.515 51.3711C124.446 51.2868 124.419 51.1765 124.439 51.0698C124.459 50.963 124.526 50.8708 124.621 50.8178L147.356 38.1176C147.448 38.0659 147.558 38.0563 147.658 38.0921C147.758 38.1277 147.838 38.2044 147.877 38.3029L154.66 55.3542C154.984 56.1691 154.941 57.0874 154.543 57.8738C151.795 63.2914 146.665 66.4659 139.294 67.309C139.176 67.3226 139.058 67.3292 138.941 67.3292ZM125.362 51.2466L137.144 65.737C137.646 66.3541 138.419 66.6686 139.211 66.5779C146.32 65.7646 151.257 62.7241 153.886 57.5409C154.19 56.9428 154.222 56.2448 153.976 55.6261L147.348 38.9646L125.362 51.2466Z" fill="#390176"/>
<path d="M153.477 51.9178C151.932 56.2566 145.836 60.891 139.767 62.4512C137.928 62.9244 136.094 63.116 134.388 62.9314C134.136 62.9042 133.888 62.8688 133.642 62.825C133.597 62.8167 133.557 62.7931 133.528 62.7576L127.677 55.561C127.572 55.4333 127.671 55.244 127.834 55.2559C127.943 55.2641 128.053 55.27 128.163 55.2748C130.068 55.3706 132.059 55.1033 134.029 54.5675C141.089 52.6441 147.879 47.255 149.467 42.5981C149.523 42.4337 149.754 42.4301 149.817 42.591L153.475 51.7842C153.491 51.8267 153.493 51.8741 153.477 51.9178Z" fill="#8C5242"/>
<path d="M139.767 62.4512C138.203 62.8534 136.641 63.0521 135.161 62.9882L129.775 56.214C131.335 56.182 132.937 55.9242 134.524 55.4924C134.574 55.4794 134.622 55.4652 134.672 55.451L139.767 62.4512Z" fill="#723A2D"/>
<g opacity="0.3">
<path d="M137.356 54.6514C137.356 54.6514 145.832 51.1234 149.575 44.5306C149.623 44.4456 149.748 44.4536 149.783 44.5448L152.544 51.6211L149.655 46.3695C149.605 46.2775 149.477 46.2678 149.414 46.3518C148.643 47.3832 144.511 52.5325 137.356 54.6514Z" fill="white"/>
</g>
<path d="M146.051 56.5522C146.461 54.885 145.672 53.2576 144.289 52.9173C142.906 52.5769 141.452 53.6525 141.042 55.3198C140.631 56.987 141.42 58.6144 142.804 58.9547C144.187 59.2951 145.641 58.2194 146.051 56.5522Z" fill="#EFB06C"/>
<path d="M143.322 59.351C143.124 59.351 142.925 59.3275 142.727 59.2788C141.959 59.09 141.329 58.5575 140.952 57.7796C140.585 57.0228 140.502 56.1202 140.719 55.2381C141.173 53.3941 142.811 52.2064 144.372 52.5902C145.933 52.9743 146.833 54.7869 146.38 56.6309C145.984 58.2409 144.684 59.351 143.322 59.351ZM143.773 53.188C142.714 53.188 141.691 54.0934 141.37 55.3983C141.19 56.129 141.256 56.8709 141.555 57.4873C141.843 58.0825 142.316 58.4877 142.887 58.6279C144.088 58.9233 145.363 57.9558 145.729 56.4707C146.094 54.9856 145.414 53.5368 144.212 53.2411C144.066 53.2053 143.919 53.188 143.773 53.188Z" fill="white"/>
<path d="M141.729 58.6572C141.545 58.6572 141.395 58.5089 141.394 58.3247C141.392 58.1396 141.541 57.9884 141.726 57.9869C141.868 57.9834 143.141 57.8954 143.215 55.9221C143.311 53.3186 144.895 52.9436 144.963 52.9289C145.143 52.89 145.322 53.004 145.361 53.185C145.401 53.3646 145.288 53.5419 145.109 53.583C145.054 53.5968 143.961 53.8989 143.884 55.947C143.785 58.6102 141.752 58.657 141.731 58.6573C141.731 58.6572 141.73 58.6572 141.729 58.6572Z" fill="white"/>
<path d="M135.708 63.3678C134.969 63.3678 134.256 63.3082 133.577 63.1872C133.446 63.1638 133.327 63.0936 133.242 62.9895L127.391 55.7927C127.251 55.6207 127.227 55.3825 127.329 55.186C127.431 54.99 127.64 54.8732 127.86 54.8893C136.422 55.5034 147.093 48.4195 149.119 42.479C149.194 42.2575 149.394 42.1107 149.628 42.1049C149.868 42.1002 150.072 42.2365 150.159 42.455L153.816 51.6485C153.866 51.7747 153.869 51.9145 153.824 52.0417C152.786 54.9569 149.764 58.0737 145.74 60.3787C142.341 62.3254 138.798 63.3677 135.708 63.3678ZM133.772 62.4742C137.112 63.0474 141.336 62.0528 145.374 59.7402C149.162 57.5701 152.118 54.5558 153.107 51.8581L149.649 43.1631C148.469 46.0802 145.415 49.2536 141.369 51.7395C137.02 54.4119 132.256 55.8256 128.221 55.6471L133.772 62.4742Z" fill="#390176"/>
<path d="M146.685 35.0159C146.641 36.5962 145.57 38.5621 143.74 40.5599C142.009 42.449 139.601 44.3676 136.743 46.0177C135.088 46.9734 133.431 47.7529 131.844 48.3479C130.391 48.8932 128.998 49.2824 127.718 49.5095C125.422 49.9175 123.492 49.8052 122.244 49.1298C121.746 48.8612 121.355 48.5017 121.095 48.0498C120.158 46.4258 121.09 43.9536 123.314 41.3844C123.314 41.3844 123.315 41.3844 123.315 41.3832C125.064 39.3641 127.611 37.2858 130.679 35.515C137.646 31.4933 144.651 30.5837 146.326 33.4829C146.585 33.9347 146.702 34.4504 146.685 35.0159Z" fill="white"/>
<path d="M147.851 39.2339C146.766 42.1473 143.177 45.7858 138.25 48.6306C136.636 49.5627 135.02 50.328 133.468 50.9159C132.901 51.1323 132.342 51.3239 131.795 51.4907L131.791 51.4931C129.483 52.2016 127.388 52.4843 125.751 52.3081C124.26 52.1472 123.15 51.6066 122.604 50.6627L121.095 48.0498C121.355 48.5016 121.746 48.8612 122.244 49.1297C123.492 49.8051 125.422 49.9175 127.718 49.5094C128.998 49.2823 130.391 48.8932 131.844 48.3479C133.431 47.7529 135.088 46.9734 136.743 46.0176C139.601 44.3675 142.009 42.4489 143.74 40.5599C145.57 38.5621 146.641 36.5961 146.685 35.0158C146.702 34.4504 146.585 33.9347 146.326 33.4828L147.834 36.0958C148.323 36.9451 148.302 38.0274 147.851 39.2339Z" fill="white"/>
<path d="M133.468 50.9159L131.795 51.4908L131.79 51.4931C129.483 52.2016 127.388 52.4843 125.751 52.3081C125.56 52.288 125.375 52.2608 125.197 52.2277L123.409 49.5568C124.57 49.8276 126.048 49.8063 127.718 49.5095C128.998 49.2823 130.391 48.8932 131.844 48.3479L133.468 50.9159Z" fill="#F4E5D3"/>
<path d="M131.844 48.3479C130.391 48.8932 128.998 49.2823 127.718 49.5094C126.048 49.8063 124.57 49.8276 123.409 49.5567L122.911 48.8139C122.911 48.8139 120.563 47.1319 123.066 42.5873C122.7 46.5393 127.446 47.7872 130.107 48.1752C131.129 48.3254 131.844 48.3479 131.844 48.3479Z" fill="#F4E5D3"/>
<path d="M143.758 35.8823C143.648 36.9935 143.202 38.4088 141.912 39.7616C139.451 42.3434 128.977 47.0505 127.062 47.898C126.867 47.9839 126.762 48.0305 126.762 48.0305C126.762 48.0305 123.802 48.1409 122.406 46.1344C122.406 46.1344 124.33 41.2824 130.128 37.5454C135.927 33.8083 141.016 33.2368 143.597 33.8034C143.597 33.8034 143.88 34.6595 143.758 35.8823Z" fill="#390176"/>
<path d="M143.758 35.8823C143.648 36.9935 143.202 38.4088 141.912 39.7616C139.451 42.3433 128.977 47.0505 127.062 47.898C126.197 47.7165 125.102 47.2934 124.419 46.3122C124.419 46.3122 126.162 41.9177 131.414 38.5327C136.667 35.1476 141.276 34.6288 143.616 35.1427C143.616 35.1427 143.708 35.4211 143.758 35.8823Z" fill="#D18642"/>
<path d="M122.406 46.5016C122.361 46.5016 122.315 46.4933 122.27 46.4755C122.082 46.4006 121.989 46.187 122.064 45.9981C122.145 45.7956 124.098 40.9944 129.929 37.2364C135.747 33.4865 140.971 32.8501 143.676 33.4441C143.875 33.4877 144 33.684 143.957 33.8824C143.913 34.0809 143.717 34.2066 143.518 34.1629C140.951 33.599 135.955 34.2276 130.327 37.8549C124.706 41.478 122.767 46.2221 122.748 46.2696C122.691 46.4137 122.552 46.5016 122.406 46.5016Z" fill="#390176"/>
<path d="M125.229 50.1088C123.967 50.1088 122.887 49.8959 122.068 49.453C121.501 49.1471 121.066 48.7368 120.776 48.2339C118.974 45.1107 123.243 39.3841 130.495 35.197C133.905 33.2278 137.437 31.9286 140.439 31.5388C143.552 31.1346 145.755 31.7599 146.644 33.2994C146.934 33.8027 147.071 34.3838 147.053 35.0268C146.962 38.296 142.798 42.9467 136.927 46.3365C132.725 48.7624 128.402 50.1088 125.229 50.1088ZM142.163 32.1566C141.656 32.1566 141.112 32.1935 140.534 32.2685C137.625 32.6461 134.191 33.9125 130.863 35.8343C127.534 37.7562 124.72 40.0976 122.939 42.4272C121.25 44.6363 120.694 46.6188 121.414 47.8662C121.635 48.2493 121.972 48.5652 122.418 48.8056C123.664 49.4794 125.726 49.5612 128.225 49.0363C130.852 48.4842 133.734 47.3302 136.559 45.6993C139.383 44.0688 141.822 42.1502 143.614 40.1511C145.318 38.2492 146.278 36.422 146.318 35.0061V35.0061C146.332 34.5011 146.227 34.0506 146.006 33.6671C145.437 32.6817 144.072 32.1566 142.163 32.1566Z" fill="#390176"/>
<path d="M126.747 52.7269C124.554 52.7269 122.998 52.0803 122.285 50.8464L120.777 48.2341C120.777 48.234 120.777 48.2338 120.776 48.2338C120.675 48.0578 120.735 47.8329 120.911 47.7314C121.087 47.6298 121.312 47.6901 121.414 47.8661L121.417 47.871C121.637 48.2518 121.974 48.5662 122.418 48.8056C123.664 49.4793 125.726 49.5611 128.225 49.0362C130.852 48.4841 133.734 47.3301 136.559 45.6992C139.383 44.0687 141.822 42.1501 143.614 40.151C145.318 38.2492 146.278 36.4219 146.318 35.0061C146.332 34.501 146.227 34.0505 146.006 33.667C145.905 33.491 145.965 33.2661 146.141 33.1646C146.317 33.0631 146.542 33.1234 146.644 33.2993L148.152 35.9116C149.955 39.0349 145.685 44.7617 138.434 48.9488C135.024 50.918 131.492 52.2172 128.49 52.607C127.872 52.6872 127.29 52.7269 126.747 52.7269ZM122.431 49.6271L122.922 50.4785C123.643 51.7255 125.637 52.2351 128.395 51.8773C131.304 51.4996 134.738 50.2333 138.066 48.3116C141.395 46.3896 144.209 44.0482 145.99 41.7185C147.679 39.5095 148.235 37.527 147.515 36.2796L147.023 35.4275C146.625 38.6677 142.562 43.083 136.927 46.3364C131.291 49.5909 125.436 50.9028 122.431 49.6271Z" fill="#390176"/>
<path d="M144.011 36.4495C143.445 38.0476 142.077 40.5327 138.772 42.7967C133.341 46.518 128.782 47.0633 128.782 47.0633C126.579 48.892 123.165 49.5213 120.609 48.4769C120.493 48.4296 120.378 48.3787 120.266 48.3243C120.264 48.3231 120.262 48.3219 120.262 48.3219C119.631 48.0156 119.062 47.598 118.59 47.0633C116.181 44.3345 118.674 43.128 119.801 43.937C120.754 44.6243 120.803 45.8911 121.977 45.8923C122.19 45.8923 122.44 45.8509 122.738 45.7575C122.782 45.7433 122.824 45.7279 122.866 45.7125C124.633 45.0052 123.487 42.0149 121.535 41.4814C120.143 41.1017 119.161 41.4554 117.846 41.1443C117.272 41.0083 116.636 40.7457 115.874 40.2418C115.572 40.0419 115.307 39.81 115.075 39.5557L115.074 39.5545C113.369 37.6927 113.451 34.6173 114.457 33.9324C115.601 33.1553 116.591 34.1477 117.428 35.5044C118.266 36.86 118.692 35.6523 119.357 34.991C120.023 34.3298 121.202 34.8763 122.038 34.5605C122.718 34.3062 123.682 32.662 124.017 32.0564C124.095 31.918 124.139 31.8328 124.139 31.8328C124.139 31.8328 124.446 28.5586 124.89 26.7063C124.938 26.5052 124.991 26.2958 125.046 26.0805C125.495 24.324 126.054 22.2457 124.958 21.7454C123.728 21.1835 121.782 22.1097 121.27 20.5542C120.758 19.0011 123.148 16.1232 123.797 17.7106C124.446 19.2992 125.061 19.628 125.914 18.8686C126.768 18.108 128.203 18.108 128.545 19.0342C128.885 19.9592 127.349 22.3403 128.476 22.4066C129.602 22.4728 131.482 22.0434 130.934 25.12C130.731 26.2674 129.983 27.4302 129.142 28.6402H129.141C127.73 30.6712 126.051 32.8394 126.222 35.3057C126.416 38.0984 128.824 39.8005 130.205 40.5528C130.657 40.8 131 40.9455 131.119 40.9928C131.141 41.0011 131.156 41.007 131.162 41.0094L131.165 41.0106C131.165 41.0106 131.178 40.7231 131.168 40.2003C131.161 39.6385 131.13 38.8022 131.037 37.7613C130.857 35.7516 132.675 34.9342 133.778 35.9751C134.819 36.9593 135.805 39.2043 135.912 39.4504C135.916 39.4658 135.92 39.4729 135.92 39.4729C135.92 39.4729 138.688 36.6612 138.585 35.5375C138.519 34.8148 137.834 33.697 137.023 32.2622C136.57 31.4637 136.081 30.5659 135.637 29.5842C134.399 26.8388 136.727 26.7063 136.727 26.7063C136.846 23.9337 137.726 22.642 138.532 22.0399C139.014 21.678 139.694 22.1121 139.554 22.6869C139.19 24.1773 139.216 25.5566 139.46 26.782C140.016 29.5972 141.708 31.6069 142.426 32.313C142.824 32.7046 143.192 33.1292 143.5 33.5148C144.166 34.3499 144.364 35.4512 144.011 36.4495Z" fill="#EFB06C"/>
<path d="M122.859 36.6613C122.277 37.2894 121.834 36.5039 120.689 36.6199C119.546 36.7358 120.598 38.3362 119.23 37.8607C118.752 37.6951 117.309 37.8524 117.991 38.7289C118.658 39.5853 119.572 39.9828 118.482 40.5872C118.456 40.6026 118.43 40.6168 118.402 40.631C117.96 40.8592 117.441 40.819 116.943 40.6605C116.942 40.6605 116.942 40.6605 116.942 40.6605C116.07 40.3849 115.267 39.7474 115.075 39.5557L115.074 39.5546C113.369 37.6927 113.451 34.6173 114.457 33.9324C115.601 33.1553 116.591 34.1477 117.428 35.5044C118.266 36.86 118.692 35.6523 119.357 34.9911C120.023 34.3299 121.202 34.8763 122.038 34.5605C122.718 34.3062 123.682 32.662 124.017 32.0564C124.1 32.9282 124.039 34.3914 124.087 34.9733C124.149 35.7351 123.438 36.0332 122.859 36.6613Z" fill="#FFF5DC"/>
<path d="M123.099 46.9096C123.029 46.9462 122.949 46.9817 122.859 47.0137C121.663 47.4442 121.088 45.9633 120.675 46.5334C120.4 46.9143 120.877 47.1296 121.066 48.0227C121.177 48.5514 120.874 48.5585 120.609 48.4769C120.443 48.426 120.292 48.3397 120.266 48.3243C120.264 48.3231 120.262 48.3219 120.262 48.3219C119.631 48.0156 119.062 47.598 118.59 47.0634C116.182 44.3345 118.674 43.128 119.801 43.9371C120.754 44.6243 120.803 45.8911 121.978 45.8923C122.19 45.8923 122.44 45.8509 122.738 45.7575C122.782 45.7433 122.824 45.7279 122.866 45.7125C123.486 45.9598 123.849 46.5252 123.099 46.9096Z" fill="#FFF5DC"/>
<path d="M130.936 25.1035C130.936 25.1094 130.935 25.1142 130.934 25.1201C130.731 26.2675 129.983 27.4302 129.142 28.6403H129.141C127.066 28.6982 130.782 24.8634 129.551 23.9704C128.321 23.0761 127.707 24.0437 126.862 25.5578C126.017 27.0707 125.046 26.0806 125.046 26.0806C125.495 24.324 126.054 22.2458 124.958 21.7454C124.305 21.4473 123.452 21.568 122.717 21.5136C122.067 21.4674 121.511 21.2853 121.27 20.5543C120.758 19.0012 123.148 16.1233 123.797 17.7107C124.446 19.2993 125.061 19.6281 125.914 18.8687C126.768 18.1081 128.203 18.1081 128.545 19.0343C128.885 19.9593 127.349 22.3404 128.476 22.4066C129.6 22.4729 131.475 22.0447 130.936 25.1035Z" fill="#FFF5DC"/>
<path d="M139.554 22.687C139.191 24.1774 139.217 25.5566 139.46 26.782C139.444 26.8767 139.428 26.9725 139.413 27.0706C139.34 27.5438 139.258 27.9294 139.169 28.2405C138.577 30.3318 137.723 29.1288 137.723 29.1288C136.037 28.5823 136.99 32.138 137.022 32.2587C136.932 32.1014 136.841 31.9393 136.749 31.7737C136.378 31.103 135.992 30.3708 135.637 29.5842C134.399 26.8388 136.727 26.7063 136.727 26.7063C136.846 23.9337 137.726 22.642 138.532 22.04C139.014 21.678 139.694 22.1121 139.554 22.687Z" fill="#FFF5DC"/>
<path d="M133.777 35.9751C134.818 36.9599 135.805 39.2044 135.911 39.4509C135.862 39.4963 135.797 39.4472 135.715 39.2743C135.067 37.919 132.369 37.323 132.335 39.9035C132.301 42.4827 131.032 42.3858 131.032 42.3858L131.119 40.9926L131.169 40.2002C131.161 39.6385 131.131 38.8021 131.037 37.7608C130.857 35.7518 132.676 34.9338 133.777 35.9751Z" fill="#FFF5DC"/>
<path d="M135.714 39.1174C135.714 39.1174 135.834 39.265 136.03 39.473C136.554 40.0322 137.169 41.1269 138.337 40.4092C140.159 39.2901 137.641 37.4762 137.641 37.4762L135.714 39.1174Z" fill="#D18642"/>
<path d="M139.573 32.5461C139.601 34.0318 138.716 35.5932 138.716 35.5932C138.716 35.5932 137.791 33.9501 136.756 31.7879C136.754 31.7832 136.751 31.7784 136.749 31.7737C136.841 31.9393 136.932 32.1013 137.022 32.2587C136.99 32.138 136.037 28.5823 137.723 29.1288C137.723 29.1288 138.577 30.3318 139.169 28.2405C139.627 29.9343 139.573 32.5461 139.573 32.5461Z" fill="#D18642"/>
<path d="M139.169 28.2405C138.577 30.3318 137.723 29.1288 137.723 29.1288C136.037 28.5824 136.99 32.138 137.022 32.2587C136.932 32.1014 136.841 31.9393 136.749 31.7737C135.723 29.6162 136.134 27.6656 136.611 27.6029C136.75 27.584 136.877 27.5592 136.987 27.532C137.235 27.4728 137.42 27.2623 137.449 27.0092C137.6 25.6879 138.34 26.1811 138.963 27.6349C139.041 27.8159 139.109 28.0205 139.169 28.2405Z" fill="#EDCD96"/>
<path d="M124.634 37.0836C124.722 37.5689 124.84 38.0013 124.98 38.3902C124.998 37.8584 124.856 37.3742 124.634 37.0836Z" fill="#D18642"/>
<path d="M131.162 41.0095L130.205 40.5529L129.466 40.2004C129.466 40.2004 130.136 41.1692 129.274 41.4353C128.512 41.671 126.063 41.3953 124.98 38.3902C124.976 38.5223 124.962 38.6572 124.936 38.793C123.288 37.1528 121.445 38.6125 120.965 39.8748C120.804 40.3011 120.914 40.6963 121.147 41.0416C120.398 41.0125 119.516 40.8724 118.482 40.5872C118.456 40.6026 118.43 40.6168 118.402 40.631C117.96 40.8593 117.441 40.819 116.943 40.6605C116.968 40.6735 117.346 40.8746 117.846 41.1443C119.158 41.4548 120.139 41.1035 121.527 41.4794C122.121 42.037 122.917 42.3834 122.923 42.3861C123.897 43.4928 124.145 45.2005 122.866 45.7125C123.486 45.9598 123.849 46.5252 123.099 46.9096C123.435 46.9179 123.865 46.8729 124.419 46.7487C127.409 46.0792 127.624 46.8209 129.203 45.4334C130.781 44.0459 131.161 41.8209 131.165 41.0107L131.162 41.0095Z" fill="#D18642"/>
<path d="M116.943 40.6606C117.492 40.6641 118.004 40.6381 118.482 40.5872C118.456 40.6026 118.43 40.6168 118.402 40.631C117.961 40.8593 117.441 40.8191 116.943 40.6606Z" fill="#EDCD96"/>
<path d="M123.099 46.9096C121.899 46.8788 121.924 46.1608 121.977 45.8923C122.19 45.8923 122.44 45.8509 122.738 45.7575C122.782 45.7433 122.824 45.7279 122.866 45.7125C123.486 45.9598 123.849 46.5252 123.099 46.9096Z" fill="#EDCD96"/>
<path d="M138.964 34.9726C138.964 34.9726 139.555 31.5296 139.921 32.8016C140.683 35.4522 143.705 35.9767 143.932 35.5217C144.347 34.6884 142.668 39.2576 141.912 39.7616C141.157 40.2657 140.965 39.4825 140.327 38.4387C139.689 37.3949 137.84 38.0354 138.15 37.0835C138.459 36.1317 138.964 34.9726 138.964 34.9726Z" fill="#FCCA97"/>
<path d="M130.936 25.1036C130.802 25.074 130.718 24.8954 130.726 24.492C130.758 22.8183 129.69 23.4073 128.334 23.5469C126.979 23.6853 126.883 22.5308 127.281 21.1907C127.68 19.8517 127.425 18.974 126.436 19.7074C125.447 20.4419 124.379 20.41 123.963 19.8197C123.549 19.2295 122.911 18.5115 122.337 19.5323C121.856 20.3899 122.498 21.2581 122.717 21.5136C122.067 21.4674 121.511 21.2853 121.27 20.5543C120.758 19.0012 123.148 16.1233 123.797 17.7107C124.446 19.2993 125.061 19.6281 125.914 18.8687C126.768 18.1081 128.203 18.1081 128.545 19.0343C128.885 19.9593 127.349 22.3404 128.476 22.4066C129.6 22.4729 131.475 22.0447 130.936 25.1036Z" fill="white"/>
<path d="M124.506 31.9043C124.243 33.6576 124.362 35.4805 124.842 37.189C125.148 38.2356 125.595 39.2063 126.125 40.1717C126.153 40.2183 126.084 40.2728 126.046 40.2299C125.528 39.695 125.099 39.0689 124.763 38.3971C124.092 37.0466 123.738 35.5462 123.659 34.0422C123.625 33.4757 123.639 32.9066 123.692 32.3406C123.71 32.1482 123.734 31.9677 123.772 31.7615C123.808 31.5583 124.003 31.4233 124.206 31.46C124.413 31.497 124.548 31.6987 124.506 31.9043Z" fill="#390176"/>
<path d="M131.538 40.9874C131.626 43.1777 130.315 45.7426 128.061 46.2746C127.942 46.2991 127.869 46.1393 127.967 46.0672C128.809 45.4505 129.609 44.8445 130.092 43.9141C130.563 43.0387 130.799 42.0271 130.792 41.0342C130.774 40.5386 131.493 40.4918 131.538 40.9874Z" fill="#390176"/>
<path d="M136.259 39.3151C136.551 39.8347 137.028 40.1944 137.512 40.5307C137.562 40.5709 137.57 40.644 137.53 40.694C137.508 40.7207 137.477 40.7355 137.445 40.7373C137.265 40.7469 137.082 40.7264 136.905 40.6782C136.452 40.5561 136.038 40.2755 135.749 39.9029C135.685 39.8195 135.626 39.7272 135.582 39.6307C135.378 39.1696 136.031 38.8678 136.259 39.3151Z" fill="#390176"/>
<path d="M138.055 36.151C138.301 35.6659 138.505 35.0716 138.689 34.5251C138.877 33.9416 139.088 33.3653 139.192 32.7551C139.407 31.5361 139.393 30.2614 139.26 29.0228C139.255 28.9949 139.275 28.9682 139.303 28.9652C139.328 28.9624 139.35 28.9771 139.357 28.9993C139.559 29.6107 139.694 30.241 139.782 30.8826C139.907 31.8501 139.913 32.861 139.699 33.8279C139.467 34.7667 139.231 35.7419 138.685 36.5591C138.391 37.039 137.717 36.6057 138.055 36.151Z" fill="#390176"/>
<path d="M123.299 49.3467C121.398 49.3467 119.556 48.7241 118.309 47.3107C116.576 45.3468 117.34 44.2011 117.615 43.8967C118.207 43.2429 119.308 43.1226 120.02 43.6342C120.456 43.9478 120.719 44.3533 120.951 44.711C121.373 45.3622 121.605 45.7209 122.626 45.4001C123.128 45.2424 123.377 44.8785 123.367 44.3185C123.349 43.3922 122.552 42.1476 121.436 41.8427C120.755 41.6568 120.183 41.6588 119.578 41.6617C118.485 41.6674 117.356 41.6712 115.668 40.5536C113.983 39.438 113.373 37.4766 113.365 36.0129C113.358 34.8966 113.688 34.0035 114.247 33.6238C114.686 33.3254 115.142 33.2238 115.6 33.3218C116.324 33.4764 117.006 34.1074 117.746 35.3077C118.009 35.7343 118.145 35.7468 118.146 35.7469C118.147 35.747 118.148 35.747 118.149 35.747C118.255 35.747 118.518 35.4134 118.66 35.2334C118.794 35.0621 118.934 34.885 119.094 34.7262C119.599 34.2245 120.287 34.2554 120.894 34.2824C121.273 34.2992 121.63 34.3153 121.907 34.2115C122.38 34.0337 123.269 32.6724 123.773 31.7238C123.823 31.2137 124.113 28.343 124.526 26.6194C124.584 26.3798 124.648 26.1285 124.714 25.8715C125.084 24.4257 125.59 22.4456 124.803 22.0855C124.415 21.9084 123.892 21.9069 123.385 21.9055C122.465 21.9029 121.319 21.8997 120.915 20.6719C120.495 19.3967 121.686 17.3654 122.811 16.9508C123.39 16.7376 123.9 16.9744 124.143 17.5691C124.553 18.5721 124.862 18.8342 125.05 18.8776C125.204 18.9132 125.411 18.8161 125.666 18.589C126.268 18.0524 127.123 17.8222 127.844 18.0022C128.354 18.1296 128.727 18.4499 128.895 18.9042C129.082 19.4113 128.874 20.1209 128.672 20.807C128.564 21.1772 128.363 21.8613 128.444 22.0255C128.453 22.0281 128.469 22.0321 128.498 22.0338C128.627 22.0414 128.772 22.042 128.926 22.0425C129.604 22.045 130.447 22.0481 130.973 22.6782C131.403 23.1929 131.511 24.0127 131.303 25.1844C131.058 26.5626 130.116 27.905 129.119 29.3261C127.805 31.1989 126.446 33.1354 126.595 35.2798C126.796 38.1813 129.627 39.8621 130.797 40.4362C130.795 39.892 130.77 38.9753 130.665 37.7946C130.565 36.684 131.023 35.7428 131.858 35.3382C132.588 34.9844 133.422 35.1247 134.035 35.7038C134.873 36.4972 135.656 38.017 136.033 38.8138C137.07 37.6947 138.265 36.1542 138.212 35.5711C138.162 35.019 137.619 34.0674 136.992 32.9657C136.455 32.0228 135.846 30.9541 135.297 29.7378C134.823 28.6868 134.773 27.8383 135.151 27.2157C135.472 26.6856 136.017 26.4727 136.369 26.388C136.55 23.6181 137.515 22.3326 138.307 21.7398C138.66 21.4767 139.125 21.4637 139.493 21.7072C139.851 21.9442 140.018 22.3638 139.917 22.7761C138.665 27.9058 142.273 31.6374 142.688 32.046C143.048 32.3996 143.419 32.8153 143.791 33.2815C144.546 34.2253 144.76 35.4565 144.364 36.5748C143.757 38.2875 142.332 40.8108 138.983 43.1053C133.94 46.5612 129.686 47.3102 128.938 47.4196C127.428 48.6362 125.33 49.3467 123.299 49.3467ZM118.988 44.0641C118.681 44.0641 118.367 44.1802 118.17 44.3985C117.715 44.9007 117.977 45.8044 118.869 46.8159C121.199 49.4558 125.898 48.9717 128.544 46.7756C128.6 46.7297 128.667 46.7007 128.739 46.692C128.799 46.6846 133.289 46.1007 138.561 42.4884C141.743 40.3077 143.09 37.9331 143.659 36.3251C143.968 35.4522 143.799 34.4888 143.207 33.7482C142.853 33.3052 142.502 32.9119 142.164 32.5791C141.717 32.14 137.84 28.1294 139.191 22.5987C139.228 22.4473 139.126 22.3609 139.08 22.3309C139.041 22.305 138.902 22.2288 138.755 22.3387C138.064 22.8556 137.215 24.0359 137.1 26.7226C137.092 26.9144 136.939 27.0689 136.748 27.0798C136.743 27.0802 136.074 27.1306 135.788 27.6072C135.552 28.001 135.618 28.6314 135.978 29.4301C136.513 30.6144 137.113 31.6669 137.641 32.5955C138.34 33.8214 138.891 34.7897 138.956 35.5032C139.069 36.7377 136.669 39.245 136.187 39.7351C136.099 39.8241 135.973 39.8636 135.851 39.8402C135.728 39.8168 135.625 39.7339 135.576 39.6189C135.566 39.5951 134.552 37.2224 133.521 36.2469C133.14 35.8866 132.627 35.7963 132.184 36.0111C131.627 36.2809 131.337 36.9227 131.409 37.7281C131.589 39.7384 131.541 40.9746 131.539 41.0262C131.534 41.1462 131.471 41.2566 131.371 41.3228C131.271 41.3892 131.145 41.4031 131.033 41.3604C130.833 41.2847 126.135 39.4587 125.849 35.3315C125.682 32.9227 127.182 30.7838 128.507 28.8966C129.455 27.5452 130.35 26.2687 130.566 25.0536C130.731 24.1255 130.675 23.4876 130.399 23.1574C130.096 22.7945 129.5 22.7923 128.923 22.7902C128.759 22.7896 128.604 22.789 128.454 22.7802C128.114 22.7603 127.931 22.5967 127.837 22.4629C127.534 22.0326 127.729 21.3671 127.955 20.5966C128.106 20.0804 128.295 19.4381 128.193 19.1629C128.091 18.8872 127.849 18.774 127.663 18.7276C127.19 18.6094 126.573 18.782 126.163 19.1473C125.71 19.5508 125.291 19.7007 124.881 19.606C124.336 19.48 123.895 18.939 123.451 17.8519C123.349 17.6022 123.243 17.5885 123.07 17.6523C122.356 17.9157 121.32 19.5134 121.625 20.4378C121.85 21.1202 122.412 21.1549 123.387 21.1577C123.973 21.1593 124.579 21.161 125.114 21.4055C126.469 22.0255 125.922 24.1672 125.438 26.0568C125.373 26.31 125.31 26.5575 125.253 26.7936C124.821 28.5991 124.514 31.8353 124.511 31.8678C124.506 31.9162 124.492 31.9632 124.47 32.0062C124.248 32.4305 123.093 34.5646 122.17 34.9114C121.75 35.0691 121.298 35.049 120.861 35.0294C120.342 35.0061 119.893 34.9861 119.621 35.2566C119.493 35.3835 119.368 35.5425 119.247 35.6964C118.927 36.1022 118.592 36.5211 118.103 36.4934C117.635 36.4665 117.312 36.0279 117.11 35.7003C116.501 34.7134 115.94 34.1591 115.444 34.053C115.189 33.9985 114.935 34.0603 114.667 34.2423C114.387 34.4326 114.107 35.0525 114.113 36.0084C114.12 37.2793 114.641 38.9769 116.081 39.9301C117.579 40.9224 118.548 40.9175 119.575 40.914C120.203 40.911 120.854 40.9086 121.633 41.1214C123.136 41.532 124.091 43.0933 124.114 44.3043C124.131 45.1963 123.671 45.8556 122.85 46.1134C121.287 46.6048 120.775 45.8149 120.323 45.1178C120.118 44.8006 119.905 44.4727 119.583 44.2413C119.417 44.1216 119.204 44.0641 118.988 44.0641Z" fill="#390176"/>
<path d="M151.002 17.2634C150.853 18.6722 149.905 19.8787 148.572 20.3602C146.137 21.239 141.101 21.9227 131.962 18.8792C123.772 16.1503 120.229 11.8601 118.798 9.38084C117.863 7.7627 118.228 5.68796 119.704 4.54294C119.979 4.33002 120.17 4.2425 120.17 4.2425C120.17 4.2425 121.307 2.758 122.415 2.53801C123.522 2.31799 124.853 2.63973 124.853 2.63973C124.853 2.63973 146.445 9.96875 148.752 11.3137C150.621 12.4031 150.903 14.3903 150.943 15.1071C150.951 15.2762 150.948 15.3744 150.948 15.3744C151.065 16.0581 151.061 16.7027 151.002 17.2634Z" fill="#8C5242"/>
<path d="M151.002 17.2634C150.853 18.6722 149.905 19.8787 148.572 20.3601C146.137 21.239 141.101 21.9227 131.962 18.8792C123.772 16.1503 120.229 11.8601 118.798 9.38084C117.863 7.76269 118.228 5.68796 119.704 4.54294C119.979 4.33001 120.17 4.24249 120.17 4.24249C120.17 4.24249 119.131 6.08539 121.858 8.70188C124.585 11.3184 126.471 13.5268 133.71 16.0356C140.709 18.4605 149.704 19.842 150.943 15.1071C150.951 15.2762 150.948 15.3744 150.948 15.3744C151.065 16.0581 151.061 16.7027 151.002 17.2634Z" fill="#723A2D"/>
<path d="M125.596 8.89819C125.596 8.89819 129.591 14.3912 139.992 16.5498C148.262 18.2661 151.233 16.2947 150.947 14.0937C150.662 11.8928 149.373 11.7836 149.373 11.7836L125.596 8.89819Z" fill="#B27962"/>
<path d="M120.48 4.43965C120.073 5.47118 120.928 7.0092 121.52 7.89233C121.594 7.99746 121.798 8.28723 121.871 8.39014C122.083 8.65304 122.285 8.93314 122.503 9.1925C122.678 9.404 122.853 9.61635 123.022 9.83691C123.085 9.91668 122.974 10.0276 122.894 9.95833C122.419 9.56334 121.962 9.1118 121.548 8.65184C120.853 7.83674 120.214 6.98443 119.863 5.94785C119.717 5.51169 119.637 5.04341 119.697 4.5796C119.72 4.39862 119.767 4.20862 119.858 4.04629C120.128 3.64342 120.729 4.02221 120.48 4.43965Z" fill="#390176"/>
<path d="M128.464 13.8206C132.582 15.6823 136.916 17.1163 141.417 17.6422C143.943 17.9228 147.881 18.1137 149.886 16.3659C150.212 16.0604 150.462 15.6915 150.595 15.267C150.654 15.0685 150.866 14.9563 151.063 15.021C151.254 15.0835 151.36 15.2889 151.299 15.4808C151.133 16.0276 150.809 16.5241 150.394 16.9111C146.776 20.056 138.068 17.9706 133.905 16.5453C131.986 15.8661 130.064 15.1283 128.386 13.9498C128.352 13.9256 128.344 13.8784 128.369 13.8444C128.391 13.8137 128.431 13.8045 128.464 13.8206Z" fill="#390176"/>
<path d="M143.613 21.481C140.741 21.4811 136.905 20.9133 131.846 19.228C123.458 16.4339 119.871 11.9745 118.479 9.56487C117.448 7.77848 117.877 5.49479 119.479 4.2528C119.677 4.09915 119.837 4.00306 119.93 3.9524C120.18 3.64342 121.244 2.39506 122.343 2.17709C123.517 1.94455 124.882 2.26885 124.939 2.28273C124.95 2.28527 124.961 2.28838 124.971 2.29191C125.854 2.59165 146.625 9.6478 148.938 10.9962C151.278 12.3601 151.322 14.9726 151.316 15.348C151.421 15.9797 151.438 16.6371 151.368 17.3025C151.206 18.8427 150.157 20.1786 148.697 20.706C147.506 21.1358 145.853 21.481 143.613 21.481ZM120.322 4.57785C120.322 4.57785 120.162 4.65425 119.93 4.83423C118.618 5.85192 118.268 7.72742 119.117 9.19687C120.456 11.5161 123.921 15.8126 132.079 18.5299C141.347 21.6168 146.312 20.7847 148.447 20.0138C149.644 19.5815 150.503 18.487 150.636 17.2253C150.701 16.6143 150.683 16.0124 150.585 15.4362C150.58 15.4106 150.579 15.3846 150.58 15.3587C150.584 15.2574 150.649 12.8453 148.568 11.632C146.345 10.3365 125.469 3.23826 124.752 2.99459C124.608 2.9619 123.44 2.71001 122.486 2.89889C121.689 3.05692 120.755 4.08431 120.462 4.46686C120.425 4.51468 120.377 4.55279 120.322 4.57785Z" fill="#390176"/>
<path d="M148.415 9.87128C148.323 10.1239 148.135 10.3336 147.865 10.5017C146.176 11.5565 141.24 10.996 135.824 9.00908C130.406 7.02098 126.277 4.25649 125.673 2.36038C125.575 2.05744 125.569 1.77657 125.661 1.52514C125.727 1.34362 125.843 1.18418 126.003 1.04682L126.014 1.03823C127.482 -0.205408 132.605 0.315842 138.252 2.38736C143.901 4.46011 148.148 7.37788 148.46 9.27402L148.462 9.28383C148.496 9.49353 148.481 9.68976 148.415 9.87128Z" fill="#8C5242"/>
<path d="M149.296 13.4563C148.511 15.5965 141.242 15.7837 133.865 13.1486C124.761 9.89612 121.885 5.83011 122.67 3.68992C122.762 3.4385 122.935 3.22264 123.179 3.04356L123.278 2.97367L126.003 1.04688C125.842 1.18424 125.727 1.34367 125.661 1.52519C125.569 1.77663 125.575 2.05748 125.673 2.36043C126.277 4.25655 130.406 7.02103 135.824 9.00913C141.24 10.996 146.176 11.5565 147.865 10.5017C148.135 10.3337 148.323 10.124 148.414 9.87133C148.481 9.68981 148.495 9.49359 148.462 9.28386L149.21 12.2801L149.37 12.9191V12.9204C149.382 13.1092 149.358 13.2883 149.296 13.4563Z" fill="#723A2D"/>
<path d="M148.462 9.28383L148.46 9.27402C148.148 7.37788 143.901 4.46011 138.252 2.38736C133.001 0.461139 128.205 -0.123708 126.378 0.803473C128.717 0.559693 132.593 1.24309 136.755 2.77014C142.405 4.84288 146.652 7.76066 146.963 9.6568L146.966 9.66661C146.999 9.87633 146.984 10.0726 146.918 10.2541C146.826 10.5067 146.638 10.7165 146.369 10.8845C146.318 10.9163 146.263 10.9465 146.207 10.9754C146.909 10.9018 147.475 10.7454 147.865 10.5017C148.135 10.3337 148.323 10.124 148.415 9.87133C148.481 9.68978 148.496 9.49356 148.462 9.28383Z" fill="#B27962"/>
<path d="M145.193 11.3873C142.745 11.3873 139.301 10.6769 135.697 9.35452C130.241 7.35231 125.975 4.52212 125.323 2.47194C125.198 2.08785 125.196 1.72617 125.316 1.3987C125.403 1.15959 125.554 0.947027 125.764 0.767182C125.769 0.763376 125.773 0.759615 125.778 0.756012L125.783 0.752093C127.409 -0.612691 132.586 -0.0833078 138.379 2.04193C144.173 4.16794 148.462 7.11014 148.821 9.20223C148.823 9.21097 148.825 9.22026 148.826 9.22629C148.869 9.50004 148.847 9.75939 148.76 9.99723C148.641 10.3237 148.406 10.5985 148.059 10.814C147.441 11.2006 146.447 11.3873 145.193 11.3873ZM126.236 1.33189C126.125 1.42829 126.05 1.53289 126.007 1.65138C125.945 1.82097 125.95 2.02127 126.023 2.24699C126.52 3.80843 130.089 6.51272 135.95 8.66367C141.808 10.8125 146.28 11.0578 147.67 10.1897C147.874 10.063 148.008 9.91359 148.069 9.74539C148.069 9.74534 148.069 9.74523 148.069 9.74516C148.112 9.62751 148.122 9.49914 148.101 9.35294C148.099 9.34575 148.098 9.33855 148.097 9.33368C147.847 7.8159 144.268 4.98664 138.125 2.73281C131.988 0.481239 127.427 0.323756 126.252 1.31906C126.248 1.32248 126.244 1.32586 126.24 1.32912L126.236 1.33189Z" fill="#390176"/>
<path d="M143.959 15.5564C141.19 15.5564 137.654 14.9722 133.958 13.5768L133.891 13.5514C132.373 12.9786 131.277 12.5647 130.288 12.1193C124.402 9.47051 121.571 5.61566 122.324 3.56317C122.44 3.24666 122.654 2.97187 122.961 2.74691L125.791 0.74642C125.951 0.632913 126.173 0.665674 126.294 0.820868C126.414 0.976018 126.392 1.19877 126.242 1.32653C126.128 1.42443 126.051 1.53069 126.007 1.65138C125.945 1.82096 125.95 2.02126 126.023 2.24698C126.52 3.80842 130.089 6.51271 135.95 8.66366C141.808 10.8125 146.28 11.0576 147.67 10.1896C147.874 10.063 148.008 9.91358 148.069 9.74538C148.113 9.62442 148.123 9.49233 148.099 9.34137C148.068 9.14685 148.196 8.96258 148.389 8.92332C148.581 8.88399 148.772 9.00364 148.819 9.1947L149.727 12.83C149.733 12.8542 149.737 12.8789 149.738 12.9038C149.752 13.1411 149.72 13.3694 149.642 13.5826C149.453 14.0968 148.997 14.5224 148.286 14.848C147.302 15.2979 145.8 15.5563 143.959 15.5564ZM125.233 2.0417L123.39 3.34442C123.209 3.47785 123.08 3.63803 123.015 3.81624C122.472 5.29795 124.856 8.86802 130.59 11.4482C131.558 11.8842 132.646 12.2948 134.151 12.8629L134.218 12.8884C140.119 15.1164 145.712 15.216 147.979 14.1787C148.498 13.9413 148.834 13.6477 148.951 13.3296C148.992 13.218 149.009 13.1011 149.004 12.9734L148.399 10.5497C148.301 10.6457 148.188 10.7339 148.06 10.814C146.233 11.9547 141.149 11.3547 135.697 9.35449C130.241 7.35228 125.975 4.52209 125.323 2.47191C125.275 2.32501 125.245 2.18142 125.233 2.0417Z" fill="#390176"/>
<path d="M113.877 41.2533C114.196 40.938 114.694 40.8835 115.079 41.1132C115.496 41.3616 115.972 41.8153 116.052 42.6101C116.199 44.0699 114.549 45.0263 113.603 43.3917C113.028 42.3992 113.454 41.6717 113.877 41.2533Z" fill="#FFF5DC"/>
<path d="M113.343 42.2161C113.343 42.2161 113.964 43.2641 114.905 43.0408C115.846 42.8175 115.799 41.8189 115.799 41.8189C115.799 41.8189 116.765 44.3023 114.958 44.2378C113.151 44.1732 113.343 42.2161 113.343 42.2161Z" fill="#EDCD96"/>
<path d="M114.825 44.6196C114.314 44.6196 113.725 44.3482 113.279 43.579C112.742 42.6521 112.861 41.7316 113.614 40.9874C114.054 40.5528 114.735 40.4724 115.271 40.792C115.744 41.0737 116.327 41.6112 116.424 42.5725C116.514 43.4719 116.025 44.3042 115.26 44.5514C115.126 44.5948 114.979 44.6196 114.825 44.6196ZM114.569 41.3471C114.411 41.3471 114.254 41.406 114.14 41.519C114.14 41.519 114.14 41.519 114.14 41.5192C113.631 42.0223 113.561 42.5735 113.926 43.2042C114.234 43.7353 114.636 43.9675 115.03 43.84C115.4 43.7202 115.743 43.272 115.68 42.6473C115.627 42.1242 115.361 41.7161 114.888 41.4343C114.79 41.3757 114.679 41.3471 114.569 41.3471Z" fill="#390176"/>
<path d="M144.972 30.2125C144.526 30.2552 144.105 29.9822 143.952 29.5608C143.786 29.1049 143.704 28.4528 144.145 27.7864C144.954 26.5624 146.836 26.8638 146.537 28.7289C146.355 29.8612 145.565 30.1558 144.972 30.2125Z" fill="#FFF5DC"/>
<path d="M146.156 27.3159C146.167 27.473 146.16 27.6454 146.13 27.8348C145.948 28.9672 145.158 29.2617 144.566 29.3184C144.294 29.3444 144.033 29.2532 143.835 29.0834C143.857 29.2579 143.9 29.4189 143.952 29.5608C144.105 29.9823 144.526 30.2552 144.972 30.2125C145.565 30.1558 146.354 29.8613 146.536 28.7289C146.645 28.0524 146.466 27.5827 146.156 27.3159Z" fill="#EDCD96"/>
<path d="M144.879 30.5907C144.313 30.5907 143.799 30.2339 143.6 29.6885C143.412 29.1716 143.3 28.3863 143.833 27.5801C144.331 26.8261 145.236 26.4906 145.986 26.7825C146.551 27.0028 147.089 27.6453 146.906 28.7881C146.736 29.8457 146.062 30.4837 145.008 30.5846C144.965 30.5887 144.922 30.5907 144.879 30.5907ZM145.418 27.4261C145.093 27.4261 144.717 27.5976 144.457 27.9924C144.167 28.4312 144.115 28.9158 144.303 29.4328C144.398 29.6948 144.664 29.8659 144.937 29.8402C145.649 29.772 146.052 29.389 146.167 28.6694C146.265 28.0633 146.099 27.6295 145.714 27.4792C145.625 27.4444 145.524 27.4261 145.418 27.4261Z" fill="#390176"/>
<path d="M118.604 16.5425C118.09 16.5028 117.54 16.0723 117.272 15.5114C116.983 14.9046 116.751 14.0691 117.127 13.3248C117.819 11.9576 120.087 12.7293 120.126 15.0074C120.149 16.3906 119.286 16.5952 118.604 16.5425Z" fill="#FFF5DC"/>
<path d="M119.519 13.2946C119.639 13.544 119.715 13.8434 119.721 14.1906C119.739 15.2232 119.094 15.376 118.585 15.3367C118.201 15.3071 117.79 14.9857 117.591 14.5668C117.374 14.1138 117.201 13.49 117.482 12.9343C117.496 12.9074 117.511 12.8822 117.526 12.8575C117.367 12.9682 117.23 13.1225 117.127 13.3247C116.751 14.0691 116.983 14.9046 117.272 15.5113C117.54 16.0723 118.09 16.5028 118.604 16.5425C119.286 16.5952 120.149 16.3905 120.126 15.0074C120.113 14.2721 119.868 13.6948 119.519 13.2946Z" fill="#EDCD96"/>
<path d="M118.784 16.9237C118.716 16.9237 118.646 16.9209 118.575 16.9154C117.934 16.8659 117.26 16.3548 116.935 15.6724C116.486 14.7315 116.437 13.8613 116.794 13.1561C117.139 12.4726 117.858 12.1445 118.625 12.3206C119.509 12.5236 120.473 13.4491 120.499 15.0012C120.511 15.6657 120.337 16.1712 119.984 16.5037C119.691 16.7801 119.279 16.9237 118.784 16.9237ZM118.632 16.1699C119.01 16.1989 119.292 16.1281 119.472 15.9593C119.665 15.7772 119.759 15.4591 119.752 15.0139C119.732 13.8638 119.067 13.1894 118.457 13.0494C118.249 13.0017 117.736 12.9494 117.461 13.4936C117.147 14.1136 117.369 14.8455 117.609 15.3504C117.819 15.7887 118.258 16.1409 118.632 16.1699Z" fill="#390176"/>
<path d="M116.264 32.0683C115.635 32.1144 115.14 31.73 114.791 31.3029C114.406 30.8322 114.165 30.2596 114.069 29.6576C113.927 28.7799 113.779 27.157 114.464 26.1303C114.636 25.87 114.862 25.6489 115.156 25.4868C116.929 24.5086 117.007 26.3834 117.309 27.0777C117.333 27.1357 117.361 27.1842 117.389 27.2232C117.462 27.3214 117.575 27.3593 117.713 27.3652C118.276 27.39 119.261 26.892 119.658 27.8147C119.674 27.8513 119.69 27.8916 119.704 27.9341C120.15 29.2743 117.914 31.9476 116.264 32.0683Z" fill="#FFF5DC"/>
<path d="M116.264 32.0682C115.635 32.1144 115.14 31.7299 114.791 31.3029C114.406 30.8321 114.165 30.2596 114.069 29.6575C113.927 28.7798 113.779 27.157 114.464 26.1302C114.493 26.1326 114.51 26.135 114.51 26.135C114.51 26.135 113.677 28.8627 114.937 29.1336C116.197 29.4044 117.09 26.9807 117.09 26.9807C117.09 26.9807 117.189 27.0221 117.309 27.0777C117.507 27.1712 117.763 27.306 117.713 27.3652C117.633 27.4586 116.381 29.1016 116.856 30.042C117.329 30.9835 119.466 29.2932 119.609 28.0891C119.621 27.9885 119.638 27.8975 119.658 27.8146C119.674 27.8513 119.69 27.8915 119.704 27.9341C120.15 29.2743 117.914 31.9476 116.264 32.0682Z" fill="#EDCD96"/>
<path d="M116.163 32.4462C115.561 32.4462 114.989 32.1352 114.503 31.5403C114.087 31.0332 113.81 30.4028 113.699 29.7173C113.332 27.435 113.785 25.8164 114.976 25.1597C115.578 24.8273 116.076 24.7513 116.5 24.927C117.139 25.1925 117.355 25.9486 117.514 26.5008C117.565 26.6807 117.629 26.9021 117.68 26.9865C117.761 27.0077 117.994 26.9703 118.151 26.945C118.687 26.8582 119.686 26.6967 120.059 27.8162C120.338 28.6548 119.802 29.6476 119.457 30.1649C118.766 31.2003 117.481 32.3545 116.292 32.4415C116.249 32.4446 116.206 32.4462 116.163 32.4462ZM116.031 25.5846C115.808 25.5846 115.542 25.7015 115.337 25.8144C114.132 26.4794 114.256 28.4707 114.438 29.5985C114.527 30.1538 114.75 30.6615 115.081 31.0666C115.447 31.5135 115.837 31.7254 116.237 31.6958C117.029 31.6378 118.122 30.8195 118.835 29.7501C119.286 29.0735 119.478 28.439 119.349 28.0528C119.192 27.581 118.928 27.5766 118.27 27.6832C117.849 27.7511 117.372 27.8285 117.089 27.4461C116.955 27.2662 116.881 27.0069 116.795 26.7068C116.672 26.2782 116.519 25.7448 116.213 25.6175C116.157 25.5945 116.096 25.5846 116.031 25.5846Z" fill="#390176"/>
<path d="M114.593 22.5913C115.449 20.6116 113.895 18.0343 111.122 16.8348C108.349 15.6353 105.407 16.2678 104.551 18.2476C103.694 20.2273 105.248 22.8046 108.021 24.0041C110.794 25.2036 113.736 24.571 114.593 22.5913Z" fill="#CC8A5E"/>
<path d="M114.54 23.2737C114.542 23.4772 114.38 23.6439 114.176 23.6463H114.172C114.074 23.6463 113.985 23.6085 113.92 23.547C113.849 23.4807 113.805 23.3873 113.804 23.2832C113.798 22.8005 113.791 22.2363 113.36 21.7655C112.868 21.2238 111.817 20.8086 109.569 20.7873C107.776 20.7708 106.597 20.3709 105.823 19.8753C105.035 19.3726 104.667 18.7729 104.499 18.379C104.4 18.1472 104.372 17.9875 104.367 17.9614C104.334 17.7603 104.47 17.5711 104.671 17.538C104.77 17.5214 104.866 17.5462 104.942 17.5995C105.02 17.6539 105.076 17.7379 105.093 17.8384C105.1 17.8763 105.174 18.2264 105.511 18.638C106.024 19.2638 107.147 20.0291 109.575 20.0516C111.806 20.0717 113.074 20.462 113.768 21.1232C114.23 21.5609 114.438 22.118 114.51 22.765C114.528 22.9295 114.537 23.0987 114.54 23.2737Z" fill="#994722"/>
<path d="M107.03 16.3705C106.423 16.6438 105.95 17.0779 105.699 17.6575C105.564 17.9698 105.504 18.301 105.511 18.6381C105.174 18.2264 105.1 17.8763 105.093 17.8385C105.076 17.7379 105.02 17.6539 104.942 17.5995C105.429 16.9904 106.163 16.574 107.03 16.3705Z" fill="#BF723D"/>
<path d="M114.593 22.5924C114.567 22.6515 114.54 22.7095 114.51 22.7651C114.438 22.1181 114.23 21.5609 113.768 21.1233C114.172 20.1663 113.877 19.0379 113.094 18.0833C114.563 19.3963 115.216 21.1517 114.593 22.5924Z" fill="#BF723D"/>
<path d="M113.92 23.5469C112.657 24.7428 110.283 24.9829 108.022 24.0047C105.309 22.8313 103.764 20.3402 104.5 18.379C104.667 18.7729 105.035 19.3726 105.823 19.8754C106.283 20.8382 107.227 21.7348 108.485 22.2777C110.388 23.101 112.39 22.8491 113.36 21.7656C113.791 22.2364 113.798 22.8006 113.804 23.2832C113.805 23.3872 113.849 23.4807 113.92 23.5469Z" fill="#BF723D"/>
<path d="M105.511 18.6381C105.519 19.0474 105.627 19.4673 105.823 19.8754C105.035 19.3727 104.667 18.773 104.5 18.3791C104.515 18.3353 104.533 18.2915 104.552 18.2478C104.653 18.0124 104.786 17.7959 104.942 17.5995C105.02 17.6539 105.076 17.7379 105.093 17.8385C105.1 17.8763 105.174 18.2265 105.511 18.6381Z" fill="#6B2C12"/>
<path d="M114.51 22.7651C114.36 23.0596 114.16 23.3198 113.92 23.5469C113.849 23.4807 113.805 23.3873 113.804 23.2832C113.798 22.8005 113.791 22.2363 113.36 21.7655C113.526 21.5822 113.661 21.3752 113.76 21.1445C113.764 21.1374 113.766 21.1303 113.768 21.1232C114.23 21.5609 114.438 22.1181 114.51 22.7651Z" fill="#6B2C12"/>
<g opacity="0.3">
<path d="M106.543 18.3627C106.226 17.8863 106.499 17.2371 107.059 17.1235C107.892 16.9547 109.196 16.907 110.744 17.6045C111.906 18.1282 112.652 18.6998 113.126 19.1817C113.597 19.6606 113.317 20.475 112.651 20.5587C111.762 20.6704 110.898 20.4725 109.581 20.0776C108.197 19.6623 106.987 19.0313 106.543 18.3627Z" fill="white"/>
</g>
<path d="M110.84 25.042C109.861 25.042 108.834 24.8238 107.851 24.3986C106.429 23.7832 105.259 22.8037 104.558 21.6404C103.829 20.4311 103.687 19.1658 104.157 18.0775C104.628 16.9892 105.648 16.2264 107.028 15.9297C108.356 15.6442 109.871 15.826 111.293 16.4412C114.279 17.7328 115.936 20.5684 114.987 22.7623C114.517 23.8506 113.497 24.6134 112.116 24.9101C111.706 24.9983 111.278 25.0419 110.84 25.042ZM108.306 16.6559C107.929 16.6559 107.561 16.6933 107.209 16.769C106.107 17.0059 105.303 17.5917 104.945 18.4184C104.588 19.2451 104.711 20.232 105.293 21.1972C105.903 22.2086 106.932 23.0656 108.192 23.6106C109.452 24.1556 110.782 24.3191 111.936 24.0708C113.038 23.8339 113.842 23.2482 114.199 22.4215C114.96 20.6621 113.504 18.3329 110.952 17.2292C110.077 16.8504 109.167 16.6559 108.306 16.6559Z" fill="#390176"/>
<path d="M119.714 69.0718C123.349 68.4526 125.938 65.8466 125.496 63.2512C125.054 60.6557 121.749 59.0536 118.113 59.6728C114.478 60.292 111.889 62.898 112.331 65.4935C112.773 68.0889 116.078 69.691 119.714 69.0718Z" fill="#CC8A5E"/>
<path d="M125.899 63.9824C126.036 64.1889 125.982 64.4674 125.775 64.6053L125.77 64.6085C125.67 64.6738 125.554 64.6942 125.446 64.6746C125.33 64.6541 125.223 64.5876 125.152 64.4819C124.825 63.9922 124.442 63.4197 123.688 63.2248C122.824 62.9983 121.472 63.2738 119.158 64.7484C117.313 65.9255 115.84 66.3018 114.719 66.3099C113.578 66.3202 112.803 65.9517 112.369 65.6606C112.113 65.4896 111.977 65.3451 111.955 65.3217C111.787 65.138 111.801 64.8538 111.984 64.6861C112.075 64.603 112.189 64.5646 112.302 64.5686C112.418 64.5723 112.531 64.6212 112.616 64.7122C112.649 64.7462 112.957 65.0555 113.576 65.2521C114.518 65.5504 116.175 65.5858 118.675 63.9919C120.97 62.527 122.527 62.082 123.678 62.296C124.441 62.4366 125.025 62.8679 125.53 63.4817C125.657 63.6381 125.78 63.8048 125.899 63.9824Z" fill="#994722"/>
<path d="M113.62 61.9213C113.181 62.6049 112.986 63.364 113.115 64.1239C113.185 64.5331 113.344 64.9121 113.576 65.2522C112.957 65.0556 112.649 64.7463 112.616 64.7123C112.531 64.6213 112.418 64.5724 112.302 64.5687C112.395 63.621 112.868 62.7068 113.62 61.9213Z" fill="#BF723D"/>
<path d="M125.499 63.25C125.512 63.3278 125.523 63.4052 125.53 63.4818C125.025 62.8679 124.441 62.4366 123.678 62.2961C123.453 61.0486 122.401 60.0904 120.964 59.6353C123.341 60.0002 125.178 61.3611 125.499 63.25Z" fill="#BF723D"/>
<path d="M125.447 64.6746C124.95 66.7391 122.682 68.5655 119.718 69.0699C116.161 69.6764 112.922 68.1567 112.369 65.6606C112.803 65.9517 113.579 66.3202 114.719 66.3099C115.831 66.9885 117.394 67.2772 119.041 66.9953C121.536 66.5702 123.417 64.979 123.688 63.2248C124.442 63.4197 124.825 63.9922 125.152 64.4819C125.223 64.5876 125.33 64.6541 125.447 64.6746Z" fill="#BF723D"/>
<path d="M113.576 65.2522C113.857 65.6654 114.247 66.0232 114.719 66.3099C113.579 66.3203 112.803 65.9517 112.369 65.6606C112.355 65.6056 112.344 65.549 112.335 65.4916C112.282 65.1831 112.273 64.8735 112.302 64.5686C112.418 64.5723 112.531 64.6212 112.616 64.7122C112.649 64.7463 112.957 65.0556 113.576 65.2522Z" fill="#6B2C12"/>
<path d="M125.53 63.4818C125.572 63.8831 125.541 64.2824 125.446 64.6746C125.33 64.6541 125.223 64.5876 125.152 64.482C124.825 63.9922 124.442 63.4197 123.688 63.2249C123.735 62.927 123.735 62.6255 123.683 62.3234C123.682 62.3137 123.68 62.3049 123.678 62.2961C124.441 62.4366 125.025 62.8679 125.53 63.4818Z" fill="#6B2C12"/>
<g opacity="0.3">
<path d="M114.448 64.2835C113.807 64.0067 113.654 63.1611 114.151 62.6717C114.891 61.9444 116.193 61.0273 118.241 60.7105C119.778 60.4726 120.922 60.5602 121.728 60.7376C122.528 60.914 122.784 61.9335 122.158 62.4629C121.324 63.1687 120.308 63.5417 118.698 64.0142C117.006 64.5111 115.347 64.6717 114.448 64.2835Z" fill="white"/>
</g>
<path d="M118.179 69.7256C114.943 69.7256 112.239 68.051 111.818 65.58C111.575 64.1534 112.11 62.6941 113.324 61.4713C114.493 60.2951 116.163 59.4723 118.028 59.1545C121.942 58.4879 125.526 60.2851 126.016 63.1612C126.506 66.0372 123.72 68.9197 119.805 69.5866C119.254 69.6806 118.709 69.7256 118.179 69.7256ZM118.204 60.1876C116.553 60.469 115.084 61.1871 114.068 62.2098C113.098 63.1859 112.666 64.3202 112.851 65.404C113.244 67.7106 116.284 69.1229 119.63 68.5537C122.974 67.9838 125.376 65.6437 124.983 63.3371C124.59 61.0309 121.549 59.6181 118.204 60.1876Z" fill="#390176"/>
<path d="M159.102 33.1352C161.255 30.1196 161.255 26.429 159.102 24.8921C156.949 23.3552 153.458 24.554 151.306 27.5697C149.153 30.5853 149.153 34.2759 151.306 35.8128C153.459 37.3496 156.949 36.1509 159.102 33.1352Z" fill="#CC8A5E"/>
<path d="M159.906 25.1327C160.15 25.1823 160.309 25.4195 160.259 25.6641L160.258 25.6697C160.233 25.7875 160.164 25.8841 160.074 25.9462C159.976 26.0143 159.853 26.0426 159.728 26.0172C159.148 25.9 158.469 25.7631 157.794 26.158C157.018 26.6084 156.249 27.7622 155.644 30.4512C155.162 32.5969 154.379 33.9078 153.585 34.7076C152.78 35.5226 151.966 35.8091 151.45 35.909C151.147 35.9684 150.948 35.9613 150.916 35.9603C150.666 35.9482 150.474 35.7363 150.486 35.4867C150.492 35.3633 150.546 35.2548 150.63 35.1777C150.715 35.0982 150.83 35.0532 150.955 35.0578C151.003 35.059 151.441 35.0613 152.022 34.7632C152.904 34.3089 154.111 33.1603 154.764 30.2545C155.363 27.585 156.157 26.1653 157.129 25.5032C157.773 25.0629 158.494 24.9568 159.289 25.037C159.49 25.0582 159.695 25.0904 159.906 25.1327Z" fill="#994722"/>
<path d="M149.694 32.358C149.865 33.1559 150.264 33.835 150.894 34.2851C151.234 34.5272 151.616 34.6849 152.022 34.7632C151.441 35.0613 151.002 35.059 150.955 35.0578C150.83 35.0532 150.715 35.0982 150.63 35.1778C150.025 34.4365 149.715 33.4499 149.694 32.358Z" fill="#BF723D"/>
<path d="M159.103 24.8933C159.167 24.9398 159.229 24.9873 159.289 25.0371C158.494 24.9569 157.773 25.0629 157.129 25.5032C156.086 24.7731 154.657 24.8354 153.31 25.5283C155.263 24.1052 157.536 23.7747 159.103 24.8933Z" fill="#BF723D"/>
<path d="M160.074 25.9462C161.182 27.769 160.858 30.6772 159.103 33.1353C156.997 36.0862 153.612 37.2965 151.45 35.909C151.966 35.8091 152.78 35.5226 153.586 34.7076C154.859 34.4041 156.177 33.5034 157.152 32.1358C158.629 30.066 158.843 27.6001 157.794 26.158C158.469 25.7631 159.148 25.9 159.728 26.0173C159.853 26.0427 159.976 26.0143 160.074 25.9462Z" fill="#BF723D"/>
<path d="M152.022 34.7632C152.514 34.8588 153.046 34.8379 153.585 34.7076C152.78 35.5226 151.966 35.8091 151.45 35.909C151.402 35.8793 151.354 35.8468 151.306 35.8128C151.05 35.6302 150.825 35.4156 150.63 35.1778C150.715 35.0982 150.83 35.0532 150.955 35.0578C151.002 35.0591 151.441 35.0613 152.022 34.7632Z" fill="#6B2C12"/>
<path d="M159.289 25.0371C159.603 25.2931 159.863 25.5998 160.074 25.9462C159.976 26.0143 159.853 26.0427 159.728 26.0173C159.148 25.9 158.469 25.7631 157.794 26.158C157.617 25.9122 157.403 25.6972 157.152 25.5187C157.145 25.5126 157.137 25.5079 157.129 25.5033C157.773 25.0629 158.494 24.9569 159.289 25.0371Z" fill="#6B2C12"/>
<g opacity="0.3">
<path d="M151.957 33.4552C151.305 33.7117 150.596 33.2176 150.605 32.5162C150.617 31.4741 150.896 29.8984 152.131 28.2228C153.058 26.9649 153.936 26.217 154.636 25.773C155.331 25.3319 156.235 25.8775 156.164 26.698C156.069 27.7919 155.609 28.7773 154.796 30.2537C153.942 31.8062 152.873 33.0951 151.957 33.4552Z" fill="white"/>
</g>
<path d="M153.493 37.0119C152.569 37.0119 151.717 36.7531 151.001 36.2417C149.817 35.3969 149.165 33.978 149.165 32.2463C149.165 30.5808 149.773 28.8113 150.878 27.2643C151.982 25.7173 153.458 24.5674 155.033 24.0263C156.671 23.4639 158.225 23.6194 159.408 24.4643C160.592 25.3091 161.243 26.728 161.244 28.4597C161.244 30.1253 160.635 31.8946 159.531 33.4417C158.427 34.9887 156.951 36.1386 155.376 36.6796C154.729 36.9017 154.095 37.0119 153.493 37.0119ZM156.911 24.7485C156.425 24.7485 155.907 24.8393 155.375 25.0221C154.005 25.4925 152.712 26.506 151.735 27.876V27.876C150.757 29.246 150.218 30.798 150.218 32.2462C150.218 33.6284 150.713 34.743 151.612 35.3848C152.511 36.0266 153.726 36.1328 155.034 35.6839C156.403 35.2135 157.696 34.2 158.674 32.83C159.652 31.4599 160.191 29.9079 160.191 28.4598C160.191 27.0776 159.695 25.963 158.796 25.3212C158.263 24.9408 157.62 24.7485 156.911 24.7485Z" fill="#390176"/>
</svg>
