<svg width="170" height="170" viewBox="0 0 170 170" fill="none" xmlns="http://www.w3.org/2000/svg">
<rect width="170" height="170" rx="16" fill="#FFDBC8"/>
<path d="M89.068 135.529C108.988 135.529 125.136 131.582 125.136 126.715C125.136 121.847 108.988 117.901 89.068 117.901C69.1482 117.901 53 121.847 53 126.715C53 131.582 69.1482 135.529 89.068 135.529Z" fill="#C49A6C"/>
<path d="M56.8149 52.6055C56.8149 36.7085 71.3389 23.8215 89.2549 23.8215C107.171 23.8215 121.695 36.7085 121.695 52.6055" fill="#DAE6E8"/>
<path d="M56.941 54.8306L65.338 126.249C65.338 129.848 76.046 130.91 89.255 130.91C102.464 130.91 113.172 129.847 113.172 126.249L121.569 54.8306H56.941Z" fill="#DAE6E8"/>
<path d="M114.772 17.9455C113.615 17.4025 112.162 16.7865 112.028 17.0725L85.5699 73.4345C85.4359 73.7195 86.6719 74.7975 87.8279 75.3405C88.9849 75.8835 90.0319 76.0925 90.1659 75.8075L116.624 19.4455C116.759 19.1595 115.929 18.4885 114.772 17.9455Z" fill="#F1F1F1"/>
<path d="M63.746 51.9505C63.746 51.9505 62.475 45.0475 74.547 44.7955H77.709C77.709 44.7955 70.235 45.9805 72.248 41.6695C72.248 41.6695 72.536 37.6455 79.721 37.3585C79.721 37.3585 77.134 33.0465 81.733 32.4725C81.733 32.4725 91.505 32.9805 92.08 27.6965C92.08 27.6965 108.463 34.7715 99.841 41.3825C99.841 41.3825 106.452 40.7375 106.739 44.7965C106.739 44.7965 113.063 46.7115 112.775 51.9515L63.746 51.9505Z" fill="#E6D7BA"/>
<path d="M84.255 41.9025C86.668 41.9025 86.672 38.1525 84.255 38.1525C81.842 38.1525 81.838 41.9025 84.255 41.9025Z" fill="#A07338"/>
<path d="M90.255 36.4025C92.668 36.4025 92.672 32.6525 90.255 32.6525C87.842 32.6525 87.838 36.4025 90.255 36.4025Z" fill="#A07338"/>
<path d="M97.755 45.9025C100.168 45.9025 100.172 42.1525 97.755 42.1525C95.342 42.1525 95.338 45.9025 97.755 45.9025Z" fill="#A07338"/>
<path d="M74.755 43.4025C77.168 43.4025 77.172 39.6525 74.755 39.6525C72.342 39.6525 72.338 43.4025 74.755 43.4025Z" fill="#A07338"/>
<path d="M89.255 120.711C81.95 120.711 77.315 120.369 74.401 119.978C72.066 119.664 70.266 118 70.006 115.917L62.729 59.4645H115.782L108.505 115.917C108.245 118 106.446 119.664 104.11 119.978C101.195 120.37 96.56 120.711 89.255 120.711Z" fill="#C49A6C"/>
<path d="M66.062 85.3235H112.448L115.782 59.4645H62.729L66.062 85.3235Z" fill="#A07338"/>
<path opacity="0.5" d="M104.1 100.421C103.984 100.421 103.868 100.413 103.749 100.397C102.382 100.206 101.429 98.9415 101.621 97.5745L106.958 59.5625C107.15 58.1945 108.408 57.2405 109.781 57.4345C111.148 57.6265 112.101 58.8905 111.909 60.2575L106.572 98.2695C106.397 99.5185 105.327 100.421 104.1 100.421Z" fill="white"/>
<path d="M124.49 59.9106H54.02C53.457 59.9106 53 59.4536 53 58.8906V52.9716C53 52.4086 53.457 51.9515 54.02 51.9515H124.491C125.055 51.9515 125.511 52.4086 125.511 52.9716V58.8906C125.511 59.4536 125.054 59.9106 124.49 59.9106Z" fill="#E2E2E2"/>
</svg>
