<svg width="858" height="858" viewBox="0 0 858 858" fill="none" xmlns="http://www.w3.org/2000/svg">
<path d="M429.317 843.784C658.238 843.784 843.815 658.207 843.815 429.286C843.815 200.365 658.238 14.788 429.317 14.788C200.396 14.788 14.8188 200.365 14.8188 429.286C14.8188 658.207 200.396 843.784 429.317 843.784Z" fill="#FFDBC8"/>
<path d="M689.716 728.844V751.779C618.553 809.321 527.962 843.782 429.315 843.782C330.677 843.782 240.076 809.321 168.923 751.798V728.843C168.923 604.931 269.374 504.471 393.285 504.471H465.354C589.265 504.473 689.716 604.933 689.716 728.844Z" fill="#311300"/>
<path d="M429.317 443.84C505.356 443.84 566.998 382.198 566.998 306.159C566.998 230.12 505.356 168.478 429.317 168.478C353.278 168.478 291.636 230.12 291.636 306.159C291.636 382.198 353.278 443.84 429.317 443.84Z" fill="#311300"/>
<path d="M429.317 857.978C371.45 857.978 315.306 846.642 262.446 824.284C211.396 802.692 165.551 771.784 126.185 732.418C86.8201 693.052 55.912 647.208 34.319 596.158C11.961 543.298 0.625 487.154 0.625 429.287C0.625 371.42 11.961 315.277 34.319 262.416C55.912 211.366 86.8201 165.521 126.185 126.155C165.551 86.789 211.396 55.881 262.446 34.289C315.306 11.931 371.45 0.595001 429.317 0.595001C487.184 0.595001 543.327 11.931 596.187 34.289C647.238 55.881 693.082 86.789 732.448 126.155C771.813 165.521 802.721 211.365 824.314 262.416C846.672 315.276 858.008 371.42 858.008 429.287C858.008 487.154 846.672 543.297 824.314 596.158C802.721 647.208 771.813 693.053 732.448 732.418C693.082 771.784 647.238 802.692 596.187 824.284C543.327 846.641 487.185 857.978 429.317 857.978ZM429.317 28.981C375.27 28.981 322.846 39.563 273.504 60.433C225.837 80.594 183.025 109.46 146.258 146.227C109.489 182.995 80.624 225.807 60.463 273.473C39.593 322.815 29.011 375.238 29.011 429.286C29.011 483.333 39.593 535.756 60.463 585.098C80.624 632.765 109.489 675.576 146.258 712.344C183.026 749.112 225.837 777.977 273.504 798.138C322.846 819.008 375.27 829.59 429.317 829.59C483.364 829.59 535.787 819.008 585.13 798.138C632.796 777.977 675.608 749.111 712.375 712.344C749.144 675.576 778.009 632.764 798.17 585.098C819.04 535.756 829.622 483.333 829.622 429.286C829.622 375.239 819.04 322.816 798.17 273.473C778.009 225.806 749.144 182.995 712.375 146.227C675.607 109.459 632.796 80.594 585.13 60.433C535.787 39.563 483.364 28.981 429.317 28.981Z" fill="#311300"/>
</svg>
